Exo-BlackItalic.ufo
<glyph name="exclam" format="1">
  <advance width="277"/>
  <unicode hex="0021"/>
  <outline>
    <contour>
      <point x="96" y="208" type="line"/>
      <point x="242" y="208" type="line"/>
      <point x="345" y="731" type="line"/>
      <point x="161" y="731" type="line"/>
    </contour>
    <contour>
      <point x="57" y="23" type="line" smooth="yes"/>
      <point x="55" y="9"/>
      <point x="64" y="0"/>
      <point x="78" y="0" type="curve" smooth="yes"/>
      <point x="193" y="0" type="line" smooth="yes"/>
      <point x="207" y="0"/>
      <point x="217" y="8"/>
      <point x="219" y="23" type="curve" smooth="yes"/>
      <point x="238" y="140" type="line" smooth="yes"/>
      <point x="240" y="154"/>
      <point x="234" y="165"/>
      <point x="219" y="165" type="curve" smooth="yes"/>
      <point x="104" y="165" type="line" smooth="yes"/>
      <point x="88" y="165"/>
      <point x="78" y="155"/>
      <point x="76" y="140" type="curve" smooth="yes"/>
    </contour>
  </outline>
</glyph>
<glyph name="quotedbl" format="1">
  <advance width="497"/>
  <unicode hex="0022"/>
  <outline>
    <contour>
      <point x="360" y="531" type="line"/>
      <point x="371" y="665" type="line"/>
      <point x="382" y="732" type="line"/>
      <point x="566" y="732" type="line"/>
      <point x="555" y="665" type="line"/>
      <point x="524" y="531" type="line"/>
    </contour>
    <contour>
      <point x="144" y="531" type="line"/>
      <point x="153" y="665" type="line"/>
      <point x="164" y="732" type="line"/>
      <point x="348" y="732" type="line"/>
      <point x="337" y="665" type="line"/>
      <point x="306" y="531" type="line"/>
    </contour>
  </outline>
</glyph>
<glyph name="numbersign" format="1">
  <advance width="749"/>
  <unicode hex="0023"/>
  <outline>
    <contour>
      <point x="361" y="324" type="line"/>
      <point x="455" y="323" type="line"/>
      <point x="484" y="409" type="line"/>
      <point x="390" y="409" type="line"/>
    </contour>
    <contour>
      <point x="41" y="192" type="line"/>
      <point x="82" y="324" type="line"/>
      <point x="229" y="324" type="line"/>
      <point x="258" y="409" type="line"/>
      <point x="109" y="409" type="line"/>
      <point x="151" y="541" type="line"/>
      <point x="305" y="541" type="line"/>
      <point x="373" y="732" type="line"/>
      <point x="505" y="732" type="line"/>
      <point x="437" y="541" type="line"/>
      <point x="525" y="541" type="line"/>
      <point x="592" y="732" type="line"/>
      <point x="724" y="732" type="line"/>
      <point x="657" y="541" type="line"/>
      <point x="824" y="541" type="line"/>
      <point x="784" y="409" type="line"/>
      <point x="616" y="409" type="line"/>
      <point x="587" y="323" type="line"/>
      <point x="755" y="323" type="line"/>
      <point x="716" y="191" type="line"/>
      <point x="536" y="191" type="line"/>
      <point x="469" y="0" type="line"/>
      <point x="337" y="0" type="line"/>
      <point x="404" y="191" type="line"/>
      <point x="315" y="192" type="line"/>
      <point x="248" y="0" type="line"/>
      <point x="116" y="0" type="line"/>
      <point x="183" y="192" type="line"/>
    </contour>
  </outline>
</glyph>
<glyph name="dollar" format="1">
  <advance width="566"/>
  <unicode hex="0024"/>
  <outline>
    <contour>
      <point x="58" y="26" type="curve"/>
      <point x="82" y="177" type="line"/>
      <point x="121" y="173"/>
      <point x="216" y="166"/>
      <point x="309" y="166" type="curve" smooth="yes"/>
      <point x="352" y="166"/>
      <point x="370" y="177"/>
      <point x="375" y="207" type="curve"/>
      <point x="377" y="223" type="line"/>
      <point x="382" y="252"/>
      <point x="375" y="267"/>
      <point x="331" y="267" type="curve" smooth="yes"/>
      <point x="271" y="267" type="line" smooth="yes"/>
      <point x="80" y="267"/>
      <point x="101" y="458"/>
      <point x="108" y="505" type="curve" smooth="yes"/>
      <point x="116" y="566" type="line"/>
      <point x="137" y="710"/>
      <point x="238" y="734"/>
      <point x="350" y="738" type="curve"/>
      <point x="363" y="824" type="line"/>
      <point x="471" y="824" type="line"/>
      <point x="458" y="738" type="line"/>
      <point x="531" y="735"/>
      <point x="571" y="724"/>
      <point x="621" y="705" type="curve"/>
      <point x="597" y="554" type="line"/>
      <point x="534" y="561"/>
      <point x="454" y="564"/>
      <point x="388" y="564" type="curve" smooth="yes"/>
      <point x="334" y="564"/>
      <point x="314" y="562"/>
      <point x="307" y="520" type="curve" smooth="yes"/>
      <point x="305" y="509" type="line" smooth="yes"/>
      <point x="300" y="478"/>
      <point x="304" y="461"/>
      <point x="358" y="461" type="curve" smooth="yes"/>
      <point x="422" y="461" type="line" smooth="yes"/>
      <point x="574" y="461"/>
      <point x="588" y="304"/>
      <point x="575" y="224" type="curve" smooth="yes"/>
      <point x="570" y="191" type="line"/>
      <point x="541" y="10"/>
      <point x="437" y="-6"/>
      <point x="340" y="-8" type="curve"/>
      <point x="327" y="-90" type="line"/>
      <point x="219" y="-90" type="line"/>
      <point x="232" y="-8" type="line"/>
      <point x="144" y="-7"/>
      <point x="132" y="0"/>
    </contour>
  </outline>
</glyph>
<glyph name="percent" format="1">
  <advance width="967"/>
  <unicode hex="0025"/>
  <outline>
    <contour>
      <point x="719" y="168" type="line" smooth="yes"/>
      <point x="716" y="146"/>
      <point x="717" y="128"/>
      <point x="750" y="128" type="curve" smooth="yes"/>
      <point x="800" y="128" type="line" smooth="yes"/>
      <point x="834" y="128"/>
      <point x="843" y="146"/>
      <point x="846" y="168" type="curve" smooth="yes"/>
      <point x="854" y="221" type="line" smooth="yes"/>
      <point x="859" y="254"/>
      <point x="848" y="261"/>
      <point x="823" y="261" type="curve" smooth="yes"/>
      <point x="773" y="261" type="line" smooth="yes"/>
      <point x="751" y="261"/>
      <point x="732" y="255"/>
      <point x="727" y="221" type="curve" smooth="yes"/>
    </contour>
    <contour>
      <point x="590" y="148" type="curve" smooth="yes"/>
      <point x="607" y="261" type="line" smooth="yes"/>
      <point x="620" y="346"/>
      <point x="665" y="386"/>
      <point x="766" y="386" type="curve" smooth="yes"/>
      <point x="868" y="386" type="line" smooth="yes"/>
      <point x="966" y="386"/>
      <point x="996" y="321"/>
      <point x="984" y="236" type="curve" smooth="yes"/>
      <point x="968" y="123" type="line" smooth="yes"/>
      <point x="955" y="38"/>
      <point x="907" y="3"/>
      <point x="806" y="3" type="curve" smooth="yes"/>
      <point x="704" y="3" type="line" smooth="yes"/>
      <point x="606" y="3"/>
      <point x="577" y="63"/>
    </contour>
    <contour>
      <point x="191" y="0" type="line"/>
      <point x="761" y="732" type="line"/>
      <point x="885" y="732" type="line"/>
      <point x="322" y="0" type="line"/>
    </contour>
    <contour>
      <point x="230" y="514" type="line" smooth="yes"/>
      <point x="227" y="492"/>
      <point x="227" y="474"/>
      <point x="260" y="474" type="curve" smooth="yes"/>
      <point x="311" y="474" type="line" smooth="yes"/>
      <point x="345" y="474"/>
      <point x="354" y="492"/>
      <point x="357" y="514" type="curve" smooth="yes"/>
      <point x="365" y="567" type="line" smooth="yes"/>
      <point x="370" y="600"/>
      <point x="359" y="607"/>
      <point x="334" y="607" type="curve" smooth="yes"/>
      <point x="283" y="607" type="line" smooth="yes"/>
      <point x="261" y="607"/>
      <point x="243" y="601"/>
      <point x="238" y="567" type="curve" smooth="yes"/>
    </contour>
    <contour>
      <point x="100" y="499" type="curve" smooth="yes"/>
      <point x="118" y="612" type="line" smooth="yes"/>
      <point x="131" y="697"/>
      <point x="177" y="732"/>
      <point x="278" y="732" type="curve" smooth="yes"/>
      <point x="379" y="732" type="line" smooth="yes"/>
      <point x="477" y="732"/>
      <point x="508" y="670"/>
      <point x="495" y="585" type="curve" smooth="yes"/>
      <point x="477" y="472" type="line" smooth="yes"/>
      <point x="464" y="387"/>
      <point x="418" y="349"/>
      <point x="317" y="349" type="curve" smooth="yes"/>
      <point x="216" y="349" type="line" smooth="yes"/>
      <point x="118" y="349"/>
      <point x="87" y="414"/>
    </contour>
  </outline>
</glyph>
<glyph name="ampersand" format="1">
  <advance width="711"/>
  <unicode hex="0026"/>
  <outline>
    <contour>
      <point x="235" y="194" type="curve" smooth="yes"/>
      <point x="250" y="169"/>
      <point x="272" y="155"/>
      <point x="308" y="183" type="curve" smooth="yes"/>
      <point x="351" y="217" type="line"/>
      <point x="307" y="290" type="line"/>
      <point x="259" y="257" type="line"/>
      <point x="222" y="227"/>
      <point x="226" y="209"/>
    </contour>
    <contour>
      <point x="78" y="87" type="curve" smooth="yes"/>
      <point x="21" y="188"/>
      <point x="41" y="285"/>
      <point x="149" y="365" type="curve" smooth="yes"/>
      <point x="236" y="430" type="line"/>
      <point x="204" y="487" type="line"/>
      <point x="142" y="594"/>
      <point x="222" y="715"/>
      <point x="311" y="730" type="curve" smooth="yes"/>
      <point x="436" y="752"/>
      <point x="543" y="727"/>
      <point x="612" y="710" type="curve"/>
      <point x="589" y="566" type="line"/>
      <point x="456" y="566" type="line" smooth="yes"/>
      <point x="380" y="566"/>
      <point x="383" y="552"/>
      <point x="419" y="488" type="curve" smooth="yes"/>
      <point x="510" y="328" type="line"/>
      <point x="648" y="443" type="line"/>
      <point x="704" y="355" type="line"/>
      <point x="634" y="231" type="line"/>
      <point x="589" y="188" type="line"/>
      <point x="696" y="0" type="line"/>
      <point x="480" y="0" type="line"/>
      <point x="434" y="81" type="line"/>
      <point x="358" y="25" type="line" smooth="yes"/>
      <point x="292" y="-24"/>
      <point x="142" y="-27"/>
    </contour>
  </outline>
</glyph>
<glyph name="quotesingle" format="1">
  <advance width="256"/>
  <unicode hex="0027"/>
  <outline>
    <contour>
      <point x="126" y="531" type="line"/>
      <point x="136" y="665" type="line"/>
      <point x="147" y="732" type="line"/>
      <point x="342" y="732" type="line"/>
      <point x="331" y="665" type="line"/>
      <point x="300" y="531" type="line"/>
    </contour>
  </outline>
</glyph>
<glyph name="parenleft" format="1">
  <advance width="412"/>
  <unicode hex="0028"/>
  <outline>
    <contour>
      <point x="93" y="296" type="curve" smooth="yes"/>
      <point x="151" y="662"/>
      <point x="367" y="800"/>
      <point x="367" y="800" type="curve"/>
      <point x="538" y="800" type="line"/>
      <point x="538" y="800"/>
      <point x="333" y="556"/>
      <point x="287" y="266" type="curve" smooth="yes"/>
      <point x="237" y="-50"/>
      <point x="368" y="-270"/>
      <point x="368" y="-270" type="curve"/>
      <point x="197" y="-270" type="line"/>
      <point x="197" y="-270"/>
      <point x="30" y="-101"/>
    </contour>
  </outline>
</glyph>
<glyph name="parenright" format="1">
  <advance width="413"/>
  <unicode hex="0029"/>
  <outline>
    <contour>
      <point x="-22" y="-270" type="line"/>
      <point x="-22" y="-270"/>
      <point x="179" y="-50"/>
      <point x="229" y="266" type="curve" smooth="yes"/>
      <point x="275" y="556"/>
      <point x="147" y="800"/>
      <point x="147" y="800" type="curve"/>
      <point x="318" y="800" type="line"/>
      <point x="318" y="800"/>
      <point x="481" y="602"/>
      <point x="423" y="236" type="curve" smooth="yes"/>
      <point x="360" y="-161"/>
      <point x="169" y="-270"/>
      <point x="169" y="-270" type="curve"/>
    </contour>
  </outline>
</glyph>
<glyph name="asterisk" format="1">
  <advance width="417"/>
  <unicode hex="002A"/>
  <outline>
    <contour>
      <point x="320" y="571" type="line"/>
      <point x="452" y="652" type="line"/>
      <point x="484" y="595" type="line"/>
      <point x="367" y="498" type="line"/>
    </contour>
    <contour>
      <point x="271" y="722" type="line"/>
      <point x="341" y="744" type="line"/>
      <point x="382" y="618" type="line"/>
      <point x="289" y="584" type="line"/>
    </contour>
    <contour>
      <point x="248" y="459" type="line"/>
      <point x="312" y="538" type="line"/>
      <point x="411" y="449" type="line"/>
      <point x="361" y="393" type="line"/>
    </contour>
    <contour>
      <point x="142" y="418" type="line"/>
      <point x="188" y="556" type="line"/>
      <point x="276" y="532" type="line"/>
      <point x="205" y="397" type="line"/>
    </contour>
    <contour>
      <point x="117" y="566" type="line"/>
      <point x="128" y="636" type="line"/>
      <point x="270" y="655" type="line"/>
      <point x="260" y="561" type="line"/>
    </contour>
  </outline>
</glyph>
<glyph name="plus" format="1">
  <advance width="456"/>
  <unicode hex="002B"/>
  <outline>
    <contour>
      <point x="64" y="279" type="line"/>
      <point x="88" y="433" type="line"/>
      <point x="218" y="433" type="line"/>
      <point x="239" y="564" type="line"/>
      <point x="393" y="564" type="line"/>
      <point x="372" y="433" type="line"/>
      <point x="504" y="433" type="line"/>
      <point x="480" y="279" type="line"/>
      <point x="348" y="279" type="line"/>
      <point x="327" y="148" type="line"/>
      <point x="173" y="148" type="line"/>
      <point x="194" y="279" type="line"/>
    </contour>
  </outline>
</glyph>
<glyph name="comma" format="1">
  <advance width="254"/>
  <unicode hex="002C"/>
  <outline>
    <contour>
      <point x="39" y="-88" type="curve"/>
      <point x="49" y="-26" type="line"/>
      <point x="79" y="-27"/>
      <point x="81" y="-15"/>
      <point x="83" y="-5" type="curve" smooth="yes"/>
      <point x="84" y="0" type="line"/>
      <point x="73" y="0" type="line" smooth="yes"/>
      <point x="59" y="0"/>
      <point x="49" y="8"/>
      <point x="52" y="25" type="curve" smooth="yes"/>
      <point x="70" y="139" type="line" smooth="yes"/>
      <point x="73" y="157"/>
      <point x="83" y="166"/>
      <point x="99" y="166" type="curve" smooth="yes"/>
      <point x="210" y="166" type="line" smooth="yes"/>
      <point x="228" y="166"/>
      <point x="232" y="154"/>
      <point x="230" y="139" type="curve" smooth="yes"/>
      <point x="206" y="-11" type="line" smooth="yes"/>
      <point x="186" y="-135"/>
      <point x="39" y="-88"/>
    </contour>
  </outline>
</glyph>
<glyph name="hyphen" format="1">
  <advance width="353"/>
  <unicode hex="002D"/>
  <outline>
    <contour>
      <point x="61" y="213" type="line"/>
      <point x="85" y="367" type="line"/>
      <point x="399" y="367" type="line"/>
      <point x="375" y="213" type="line"/>
    </contour>
  </outline>
</glyph>
<glyph name="period" format="1">
  <advance width="256"/>
  <unicode hex="002E"/>
  <outline>
    <contour>
      <point x="51" y="23" type="curve" smooth="yes"/>
      <point x="70" y="140" type="line" smooth="yes"/>
      <point x="72" y="155"/>
      <point x="82" y="165"/>
      <point x="98" y="165" type="curve" smooth="yes"/>
      <point x="211" y="165" type="line" smooth="yes"/>
      <point x="229" y="165"/>
      <point x="235" y="156"/>
      <point x="232" y="140" type="curve" smooth="yes"/>
      <point x="213" y="23" type="line" smooth="yes"/>
      <point x="210" y="5"/>
      <point x="199" y="0"/>
      <point x="185" y="0" type="curve" smooth="yes"/>
      <point x="72" y="0" type="line" smooth="yes"/>
      <point x="58" y="0"/>
      <point x="49" y="9"/>
    </contour>
  </outline>
</glyph>
<glyph name="slash" format="1">
  <advance width="503"/>
  <unicode hex="002F"/>
  <outline>
    <contour>
      <point x="0" y="-72" type="line"/>
      <point x="414" y="770" type="line"/>
      <point x="613" y="770" type="line"/>
      <point x="199" y="-72" type="line"/>
    </contour>
  </outline>
</glyph>
<glyph name="zero" format="1">
  <advance width="619"/>
  <unicode hex="0030"/>
  <outline>
    <contour>
      <point x="269" y="233" type="line" smooth="yes"/>
      <point x="260" y="177"/>
      <point x="294" y="174"/>
      <point x="316" y="174" type="curve" smooth="yes"/>
      <point x="358" y="174" type="line" smooth="yes"/>
      <point x="391" y="174"/>
      <point x="414" y="178"/>
      <point x="423" y="232" type="curve" smooth="yes"/>
      <point x="466" y="500" type="line" smooth="yes"/>
      <point x="473" y="546"/>
      <point x="454" y="558"/>
      <point x="427" y="558" type="curve" smooth="yes"/>
      <point x="370" y="558" type="line" smooth="yes"/>
      <point x="318" y="558"/>
      <point x="313" y="513"/>
      <point x="311" y="500" type="curve" smooth="yes"/>
    </contour>
    <contour>
      <point x="68" y="192" type="curve" smooth="yes"/>
      <point x="122" y="530" type="line" smooth="yes"/>
      <point x="143" y="660"/>
      <point x="203" y="732"/>
      <point x="328" y="732" type="curve" smooth="yes"/>
      <point x="492" y="732" type="line" smooth="yes"/>
      <point x="637" y="732"/>
      <point x="682" y="640"/>
      <point x="666" y="540" type="curve" smooth="yes"/>
      <point x="611" y="192" type="line" smooth="yes"/>
      <point x="592" y="73"/>
      <point x="535" y="0"/>
      <point x="415" y="0" type="curve" smooth="yes"/>
      <point x="251" y="0" type="line" smooth="yes"/>
      <point x="121" y="0"/>
      <point x="49" y="72"/>
    </contour>
  </outline>
</glyph>
<glyph name="one" format="1">
  <advance width="379"/>
  <unicode hex="0031"/>
  <outline>
    <contour>
      <point x="105" y="528" type="curve"/>
      <point x="124" y="651" type="line"/>
      <point x="124" y="651"/>
      <point x="209" y="677"/>
      <point x="257" y="732" type="curve"/>
      <point x="449" y="732" type="line"/>
      <point x="333" y="0" type="line"/>
      <point x="139" y="0" type="line"/>
      <point x="226" y="548" type="line"/>
      <point x="183" y="519"/>
      <point x="105" y="528"/>
    </contour>
  </outline>
</glyph>
<glyph name="two" format="1">
  <advance width="582"/>
  <unicode hex="0032"/>
  <outline>
    <contour>
      <point x="141" y="565" type="line"/>
      <point x="362" y="565" type="line" smooth="yes"/>
      <point x="393.7647058823529" y="565"/>
      <point x="410" y="551"/>
      <point x="410" y="519" type="curve" smooth="yes"/>
      <point x="410" y="482"/>
      <point x="384.3003895140109" y="435.0070331795783"/>
      <point x="333" y="390" type="curve" smooth="yes"/>
      <point x="64" y="154" type="line"/>
      <point x="40" y="0" type="line"/>
      <point x="554" y="0" type="line"/>
      <point x="582" y="174" type="line"/>
      <point x="334" y="174" type="line"/>
      <point x="482" y="305" type="line" smooth="yes"/>
      <point x="572.8717339870274" y="385.43376454257157"/>
      <point x="604.0" y="475.0"/>
      <point x="604" y="577" type="curve" smooth="yes"/>
      <point x="604" y="676"/>
      <point x="550" y="749"/>
      <point x="401" y="749" type="curve" smooth="yes"/>
      <point x="302.3921568627451" y="749.0"/>
      <point x="227.96494397575728" y="731.947898741203"/>
      <point x="166" y="719" type="curve"/>
    </contour>
  </outline>
</glyph>
<glyph name="three" format="1">
  <advance width="574"/>
  <unicode hex="0033"/>
  <outline>
    <contour>
      <point x="26" y="21" type="curve"/>
      <point x="50" y="168" type="line"/>
      <point x="268" y="168" type="line" smooth="yes"/>
      <point x="346" y="168"/>
      <point x="367" y="169"/>
      <point x="374" y="216" type="curve"/>
      <point x="375" y="226" type="line"/>
      <point x="382" y="272"/>
      <point x="354" y="273"/>
      <point x="291" y="277" type="curve" smooth="yes"/>
      <point x="129" y="286" type="line"/>
      <point x="155" y="444" type="line"/>
      <point x="319" y="452" type="line" smooth="yes"/>
      <point x="388" y="455"/>
      <point x="414" y="455"/>
      <point x="421" y="501" type="curve"/>
      <point x="422" y="509" type="line"/>
      <point x="431" y="560"/>
      <point x="388" y="560"/>
      <point x="336" y="560" type="curve" smooth="yes"/>
      <point x="105" y="560" type="line"/>
      <point x="128" y="706" type="line"/>
      <point x="221" y="737"/>
      <point x="344" y="736"/>
      <point x="461" y="734" type="curve" smooth="yes"/>
      <point x="571" y="732"/>
      <point x="640" y="648"/>
      <point x="621" y="529" type="curve"/>
      <point x="614" y="490" type="line"/>
      <point x="602" y="417"/>
      <point x="567" y="373"/>
      <point x="507" y="364" type="curve"/>
      <point x="571" y="347"/>
      <point x="579" y="266"/>
      <point x="567" y="190" type="curve"/>
      <point x="562" y="161" type="line"/>
      <point x="543" y="40"/>
      <point x="459" y="-7"/>
      <point x="337" y="-7" type="curve" smooth="yes"/>
      <point x="223" y="-7"/>
      <point x="109" y="-10"/>
    </contour>
  </outline>
</glyph>
<glyph name="four" format="1">
  <advance width="635"/>
  <unicode hex="0034"/>
  <outline>
    <contour>
      <point x="46" y="224" type="line"/>
      <point x="337" y="732" type="line"/>
      <point x="545" y="732" type="line"/>
      <point x="322" y="315" type="line"/>
      <point x="419" y="315" type="line"/>
      <point x="441" y="449" type="line"/>
      <point x="480" y="527" type="line"/>
      <point x="647" y="527" type="line"/>
      <point x="613" y="315" type="line"/>
      <point x="673" y="315" type="line"/>
      <point x="650" y="166" type="line"/>
      <point x="585" y="137" type="line"/>
      <point x="564" y="2" type="line"/>
      <point x="370" y="2" type="line"/>
      <point x="391" y="137" type="line"/>
      <point x="66" y="137" type="line"/>
    </contour>
  </outline>
</glyph>
<glyph name="five" format="1">
  <advance width="592"/>
  <unicode hex="0035"/>
  <outline>
    <contour>
      <point x="45" y="14" type="line"/>
      <point x="129" y="5"/>
      <point x="222" y="-6"/>
      <point x="297" y="-6" type="curve" smooth="yes"/>
      <point x="474" y="-6"/>
      <point x="568" y="49"/>
      <point x="589" y="186" type="curve" smooth="yes"/>
      <point x="607" y="295" type="line" smooth="yes"/>
      <point x="609" y="309"/>
      <point x="610" y="323"/>
      <point x="610" y="336" type="curve" smooth="yes"/>
      <point x="610" y="417"/>
      <point x="567" y="476"/>
      <point x="467" y="476" type="curve" smooth="yes"/>
      <point x="391" y="476" type="line" smooth="yes"/>
      <point x="368" y="476"/>
      <point x="343" y="470"/>
      <point x="320" y="456" type="curve"/>
      <point x="342" y="569" type="line"/>
      <point x="619" y="569" type="line"/>
      <point x="647" y="743" type="line"/>
      <point x="184" y="743" type="line"/>
      <point x="89" y="277" type="line"/>
      <point x="275" y="277" type="line"/>
      <point x="282" y="301"/>
      <point x="293" y="312"/>
      <point x="325" y="312" type="curve" smooth="yes"/>
      <point x="369" y="312" type="line" smooth="yes"/>
      <point x="399" y="312"/>
      <point x="409" y="299"/>
      <point x="409" y="277" type="curve" smooth="yes"/>
      <point x="409" y="271"/>
      <point x="408" y="265"/>
      <point x="407" y="259" type="curve" smooth="yes"/>
      <point x="402" y="228" type="line" smooth="yes"/>
      <point x="399" y="207"/>
      <point x="396" y="168"/>
      <point x="334" y="168" type="curve" smooth="yes"/>
      <point x="70" y="168" type="line"/>
    </contour>
  </outline>
</glyph>
<glyph name="six" format="1">
  <advance width="599"/>
  <unicode hex="0036"/>
  <outline>
    <contour>
      <point x="279" y="294" type="line"/>
      <point x="262" y="188"/>
      <point x="275" y="173"/>
      <point x="340" y="173" type="curve" smooth="yes"/>
      <point x="362" y="173" type="line" smooth="yes"/>
      <point x="395" y="173"/>
      <point x="406" y="182"/>
      <point x="412" y="219" type="curve"/>
      <point x="416" y="239" type="line"/>
      <point x="423" y="282"/>
      <point x="423" y="294"/>
      <point x="386" y="294" type="curve" smooth="yes"/>
    </contour>
    <contour>
      <point x="98" y="404" type="curve" smooth="yes"/>
      <point x="140" y="669"/>
      <point x="236" y="719"/>
      <point x="327" y="733" type="curve" smooth="yes"/>
      <point x="430" y="749"/>
      <point x="565" y="732"/>
      <point x="655" y="712" type="curve"/>
      <point x="632" y="564" type="line"/>
      <point x="413" y="564" type="line" smooth="yes"/>
      <point x="322" y="564"/>
      <point x="314" y="510"/>
      <point x="302" y="437" type="curve"/>
      <point x="342" y="456"/>
      <point x="374" y="458"/>
      <point x="458" y="458" type="curve" smooth="yes"/>
      <point x="604" y="458"/>
      <point x="626" y="358"/>
      <point x="609" y="249" type="curve" smooth="yes"/>
      <point x="594" y="148" type="line"/>
      <point x="573" y="18"/>
      <point x="492" y="-1"/>
      <point x="376" y="-1" type="curve" smooth="yes"/>
      <point x="238" y="-1" type="line" smooth="yes"/>
      <point x="116" y="-1"/>
      <point x="48" y="89"/>
    </contour>
  </outline>
</glyph>
<glyph name="seven" format="1">
  <advance width="561"/>
  <unicode hex="0037"/>
  <outline>
    <contour>
      <point x="105" y="558" type="line"/>
      <point x="133" y="732" type="line"/>
      <point x="614" y="732" type="line"/>
      <point x="648" y="654" type="line"/>
      <point x="316" y="0" type="line"/>
      <point x="110" y="0" type="line"/>
      <point x="396" y="558" type="line"/>
    </contour>
  </outline>
</glyph>
<glyph name="eight" format="1">
  <advance width="616"/>
  <unicode hex="0038"/>
  <outline>
    <contour>
      <point x="314" y="494" type="line" smooth="yes"/>
      <point x="308" y="455"/>
      <point x="320" y="450"/>
      <point x="354" y="450" type="curve" smooth="yes"/>
      <point x="406" y="450" type="line" smooth="yes"/>
      <point x="450" y="450"/>
      <point x="455" y="464"/>
      <point x="460" y="494" type="curve" smooth="yes"/>
      <point x="464" y="524" type="line"/>
      <point x="472" y="572"/>
      <point x="449" y="573"/>
      <point x="425" y="573" type="curve" smooth="yes"/>
      <point x="373" y="573" type="line" smooth="yes"/>
      <point x="343" y="573"/>
      <point x="325" y="570"/>
      <point x="318" y="524" type="curve" smooth="yes"/>
    </contour>
    <contour>
      <point x="269" y="210" type="line" smooth="yes"/>
      <point x="263" y="175"/>
      <point x="273" y="164"/>
      <point x="308" y="164" type="curve" smooth="yes"/>
      <point x="360" y="164" type="line" smooth="yes"/>
      <point x="404" y="164"/>
      <point x="411" y="182"/>
      <point x="415" y="210" type="curve" smooth="yes"/>
      <point x="421" y="250" type="line" smooth="yes"/>
      <point x="425" y="276"/>
      <point x="423" y="297"/>
      <point x="384" y="297" type="curve" smooth="yes"/>
      <point x="330" y="297" type="line" smooth="yes"/>
      <point x="288" y="297"/>
      <point x="279" y="277"/>
      <point x="275" y="250" type="curve" smooth="yes"/>
    </contour>
    <contour>
      <point x="70" y="199" type="curve" smooth="yes"/>
      <point x="78" y="252" type="line" smooth="yes"/>
      <point x="86" y="302"/>
      <point x="114" y="340"/>
      <point x="171" y="349" type="curve"/>
      <point x="103" y="386"/>
      <point x="111" y="458"/>
      <point x="121" y="519" type="curve" smooth="yes"/>
      <point x="131" y="584" type="line" smooth="yes"/>
      <point x="153" y="724"/>
      <point x="251" y="737"/>
      <point x="354" y="737" type="curve" smooth="yes"/>
      <point x="510" y="737" type="line" smooth="yes"/>
      <point x="628" y="737"/>
      <point x="685" y="671"/>
      <point x="665" y="543" type="curve" smooth="yes"/>
      <point x="658" y="499" type="line" smooth="yes"/>
      <point x="654" y="472"/>
      <point x="630" y="412"/>
      <point x="564" y="403" type="curve"/>
      <point x="631" y="390"/>
      <point x="624" y="284"/>
      <point x="617" y="241" type="curve" smooth="yes"/>
      <point x="605" y="165" type="line" smooth="yes"/>
      <point x="579" y="2"/>
      <point x="489" y="0"/>
      <point x="392" y="0" type="curve" smooth="yes"/>
      <point x="237" y="0" type="line" smooth="yes"/>
      <point x="47" y="0"/>
      <point x="60" y="135"/>
    </contour>
  </outline>
</glyph>
<glyph name="nine" format="1">
  <advance width="598"/>
  <unicode hex="0039"/>
  <outline>
    <contour>
      <point x="301" y="493" type="line" smooth="yes"/>
      <point x="294" y="450"/>
      <point x="293" y="438"/>
      <point x="330" y="438" type="curve" smooth="yes"/>
      <point x="437" y="438" type="line"/>
      <point x="454" y="544"/>
      <point x="440" y="559"/>
      <point x="375" y="559" type="curve" smooth="yes"/>
      <point x="354" y="559" type="line" smooth="yes"/>
      <point x="321" y="559"/>
      <point x="310" y="550"/>
      <point x="304" y="513" type="curve" smooth="yes"/>
    </contour>
    <contour>
      <point x="61" y="20" type="curve"/>
      <point x="84" y="168" type="line"/>
      <point x="303" y="168" type="line" smooth="yes"/>
      <point x="394" y="168"/>
      <point x="403" y="222"/>
      <point x="415" y="295" type="curve"/>
      <point x="375" y="276"/>
      <point x="342" y="274"/>
      <point x="258" y="274" type="curve" smooth="yes"/>
      <point x="112" y="274"/>
      <point x="92" y="384"/>
      <point x="109" y="493" type="curve" smooth="yes"/>
      <point x="122" y="574" type="line" smooth="yes"/>
      <point x="142" y="704"/>
      <point x="222" y="733"/>
      <point x="338" y="733" type="curve" smooth="yes"/>
      <point x="476" y="733" type="line" smooth="yes"/>
      <point x="604" y="733"/>
      <point x="667" y="623"/>
      <point x="617" y="308" type="curve" smooth="yes"/>
      <point x="575" y="43"/>
      <point x="481" y="13"/>
      <point x="390" y="-1" type="curve" smooth="yes"/>
      <point x="287" y="-17"/>
      <point x="151" y="0"/>
    </contour>
  </outline>
</glyph>
<glyph name="colon" format="1">
  <advance width="257"/>
  <unicode hex="003A"/>
  <outline>
    <contour>
      <point x="109" y="389" type="curve" smooth="yes"/>
      <point x="128" y="506" type="line" smooth="yes"/>
      <point x="130" y="521"/>
      <point x="140" y="531"/>
      <point x="156" y="531" type="curve" smooth="yes"/>
      <point x="269" y="531" type="line" smooth="yes"/>
      <point x="287" y="531"/>
      <point x="292" y="522"/>
      <point x="289" y="506" type="curve" smooth="yes"/>
      <point x="271" y="389" type="line" smooth="yes"/>
      <point x="268" y="371"/>
      <point x="257" y="366"/>
      <point x="243" y="366" type="curve" smooth="yes"/>
      <point x="130" y="366" type="line" smooth="yes"/>
      <point x="116" y="366"/>
      <point x="107" y="375"/>
    </contour>
    <contour>
      <point x="51" y="23" type="curve" smooth="yes"/>
      <point x="70" y="140" type="line" smooth="yes"/>
      <point x="72" y="155"/>
      <point x="82" y="165"/>
      <point x="98" y="165" type="curve" smooth="yes"/>
      <point x="211" y="165" type="line" smooth="yes"/>
      <point x="229" y="165"/>
      <point x="235" y="156"/>
      <point x="232" y="140" type="curve" smooth="yes"/>
      <point x="213" y="23" type="line" smooth="yes"/>
      <point x="210" y="5"/>
      <point x="199" y="0"/>
      <point x="185" y="0" type="curve" smooth="yes"/>
      <point x="72" y="0" type="line" smooth="yes"/>
      <point x="58" y="0"/>
      <point x="49" y="9"/>
    </contour>
  </outline>
</glyph>
<glyph name="semicolon" format="1">
  <advance width="257"/>
  <unicode hex="003B"/>
  <outline>
    <contour>
      <point x="110" y="389" type="curve" smooth="yes"/>
      <point x="128" y="506" type="line" smooth="yes"/>
      <point x="130" y="521"/>
      <point x="140" y="531"/>
      <point x="156" y="531" type="curve" smooth="yes"/>
      <point x="269" y="531" type="line" smooth="yes"/>
      <point x="287" y="531"/>
      <point x="293" y="522"/>
      <point x="290" y="506" type="curve" smooth="yes"/>
      <point x="272" y="389" type="line" smooth="yes"/>
      <point x="269" y="371"/>
      <point x="257" y="366"/>
      <point x="243" y="366" type="curve" smooth="yes"/>
      <point x="130" y="366" type="line" smooth="yes"/>
      <point x="116" y="366"/>
      <point x="108" y="375"/>
    </contour>
    <contour>
      <point x="39" y="-88" type="curve"/>
      <point x="49" y="-26" type="line"/>
      <point x="79" y="-27"/>
      <point x="81" y="-15"/>
      <point x="83" y="-5" type="curve" smooth="yes"/>
      <point x="84" y="0" type="line"/>
      <point x="73" y="0" type="line" smooth="yes"/>
      <point x="59" y="0"/>
      <point x="49" y="8"/>
      <point x="52" y="25" type="curve" smooth="yes"/>
      <point x="70" y="139" type="line" smooth="yes"/>
      <point x="73" y="157"/>
      <point x="83" y="166"/>
      <point x="99" y="166" type="curve" smooth="yes"/>
      <point x="210" y="166" type="line" smooth="yes"/>
      <point x="228" y="166"/>
      <point x="232" y="154"/>
      <point x="230" y="139" type="curve" smooth="yes"/>
      <point x="206" y="-11" type="line" smooth="yes"/>
      <point x="186" y="-135"/>
      <point x="39" y="-88"/>
    </contour>
  </outline>
</glyph>
<glyph name="less" format="1">
  <advance width="431"/>
  <unicode hex="003C"/>
  <outline>
    <contour>
      <point x="70" y="266" type="line"/>
      <point x="97" y="436" type="line"/>
      <point x="493" y="566" type="line"/>
      <point x="466" y="396" type="line"/>
      <point x="274" y="348" type="line"/>
      <point x="450" y="300" type="line"/>
      <point x="423" y="130" type="line"/>
    </contour>
  </outline>
</glyph>
<glyph name="equal" format="1">
  <advance width="467"/>
  <unicode hex="003D"/>
  <outline>
    <contour>
      <point x="80" y="381" type="line"/>
      <point x="104" y="535" type="line"/>
      <point x="531" y="535" type="line"/>
      <point x="507" y="381" type="line"/>
    </contour>
    <contour>
      <point x="45" y="162" type="line"/>
      <point x="69" y="316" type="line"/>
      <point x="496" y="316" type="line"/>
      <point x="472" y="162" type="line"/>
    </contour>
  </outline>
</glyph>
<glyph name="greater" format="1">
  <advance width="430"/>
  <unicode hex="003E"/>
  <outline>
    <contour>
      <point x="48" y="130" type="line"/>
      <point x="75" y="300" type="line"/>
      <point x="268" y="362" type="line"/>
      <point x="90" y="396" type="line"/>
      <point x="117" y="566" type="line"/>
      <point x="471" y="436" type="line"/>
      <point x="445" y="266" type="line"/>
    </contour>
  </outline>
</glyph>
<glyph name="question" format="1">
  <advance width="545"/>
  <unicode hex="003F"/>
  <outline>
    <contour>
      <point x="157" y="23" type="curve" smooth="yes"/>
      <point x="176" y="140" type="line" smooth="yes"/>
      <point x="178" y="155"/>
      <point x="188" y="165"/>
      <point x="204" y="165" type="curve" smooth="yes"/>
      <point x="317" y="165" type="line" smooth="yes"/>
      <point x="335" y="165"/>
      <point x="341" y="156"/>
      <point x="338" y="140" type="curve" smooth="yes"/>
      <point x="319" y="23" type="line" smooth="yes"/>
      <point x="316" y="5"/>
      <point x="305" y="0"/>
      <point x="291" y="0" type="curve" smooth="yes"/>
      <point x="178" y="0" type="line" smooth="yes"/>
      <point x="164" y="0"/>
      <point x="155" y="9"/>
    </contour>
    <contour>
      <point x="100" y="564" type="line"/>
      <point x="123" y="709" type="line"/>
      <point x="213" y="732"/>
      <point x="296" y="744"/>
      <point x="410" y="739" type="curve"/>
      <point x="562" y="739"/>
      <point x="623" y="622"/>
      <point x="607" y="524" type="curve"/>
      <point x="598" y="453" type="line" smooth="yes"/>
      <point x="581" y="317"/>
      <point x="517" y="270"/>
      <point x="352" y="276" type="curve"/>
      <point x="340" y="195" type="line"/>
      <point x="195" y="195" type="line"/>
      <point x="230" y="417" type="line"/>
      <point x="322" y="417" type="line"/>
      <point x="371" y="419"/>
      <point x="398" y="434"/>
      <point x="406" y="487" type="curve" smooth="yes"/>
      <point x="408" y="502" type="line"/>
      <point x="415" y="546"/>
      <point x="388" y="564"/>
      <point x="331" y="564" type="curve" smooth="yes"/>
    </contour>
  </outline>
</glyph>
<glyph name="at" format="1">
  <advance width="920"/>
  <unicode hex="0040"/>
  <outline>
    <contour>
      <point x="415" y="274" type="curve" smooth="yes"/>
      <point x="407" y="224"/>
      <point x="394" y="137"/>
      <point x="464" y="140" type="curve" smooth="yes"/>
      <point x="519" y="142"/>
      <point x="554" y="163"/>
      <point x="558" y="210" type="curve"/>
      <point x="587" y="398" type="line"/>
      <point x="558" y="402"/>
      <point x="532" y="403"/>
      <point x="508" y="403" type="curve" smooth="yes"/>
      <point x="451" y="403"/>
      <point x="430" y="370"/>
    </contour>
    <contour>
      <point x="40" y="59" type="curve" smooth="yes"/>
      <point x="113" y="521" type="line" smooth="yes"/>
      <point x="143" y="708"/>
      <point x="254" y="739"/>
      <point x="409" y="739" type="curve" smooth="yes"/>
      <point x="764" y="739" type="line" smooth="yes"/>
      <point x="934" y="739"/>
      <point x="965" y="612"/>
      <point x="943" y="461" type="curve" smooth="yes"/>
      <point x="898" y="157" type="line" smooth="yes"/>
      <point x="882" y="47"/>
      <point x="830" y="3"/>
      <point x="686" y="3" type="curve" smooth="yes"/>
      <point x="562" y="3" type="line"/>
      <point x="538" y="53" type="line"/>
      <point x="523" y="30"/>
      <point x="496" y="-6"/>
      <point x="423" y="-4" type="curve" smooth="yes"/>
      <point x="298" y="0"/>
      <point x="244" y="115"/>
      <point x="271" y="292" type="curve" smooth="yes"/>
      <point x="305" y="514"/>
      <point x="412" y="546"/>
      <point x="516" y="546" type="curve" smooth="yes"/>
      <point x="634" y="546"/>
      <point x="691" y="526"/>
      <point x="742" y="477" type="curve"/>
      <point x="695" y="147" type="line"/>
      <point x="743" y="147"/>
      <point x="750" y="156"/>
      <point x="762" y="237" type="curve" smooth="yes"/>
      <point x="798" y="481" type="line" smooth="yes"/>
      <point x="811" y="572"/>
      <point x="789" y="594"/>
      <point x="718" y="594" type="curve" smooth="yes"/>
      <point x="376" y="594" type="line" smooth="yes"/>
      <point x="281" y="594"/>
      <point x="265" y="538"/>
      <point x="256" y="481" type="curve" smooth="yes"/>
      <point x="186" y="39" type="line" smooth="yes"/>
      <point x="177" y="-18"/>
      <point x="188" y="-55"/>
      <point x="274" y="-55" type="curve" smooth="yes"/>
      <point x="660" y="-55" type="line"/>
      <point x="641" y="-172" type="line"/>
      <point x="591" y="-182"/>
      <point x="475" y="-199"/>
      <point x="349" y="-199" type="curve" smooth="yes"/>
      <point x="261" y="-199" type="line" smooth="yes"/>
      <point x="48" y="-199"/>
      <point x="21" y="-66"/>
    </contour>
  </outline>
</glyph>
<glyph name="A" format="1">
  <advance width="709.0"/>
  <unicode hex="0041"/>
  <outline>
    <contour>
      <point x="343" y="293" type="line"/>
      <point x="437" y="515" type="line"/>
      <point x="460" y="293" type="line"/>
    </contour>
    <contour>
      <point x="15" y="0" type="line"/>
      <point x="220" y="0" type="line"/>
      <point x="274" y="129" type="line"/>
      <point x="477" y="129" type="line"/>
      <point x="491" y="0" type="line"/>
      <point x="695" y="0" type="line"/>
      <point x="594" y="743" type="line"/>
      <point x="360" y="743" type="line"/>
    </contour>
    <contour>
      <point x="480" y="810" type="move" name="top"/>
    </contour>
    <contour>
      <point x="328" y="-150" type="move" name="bottom"/>
    </contour>
    <contour>
      <point x="685" y="0" type="move" name="ogonek"/>
    </contour>
  </outline>
</glyph>
<glyph name="B" format="1">
  <advance width="641.0"/>
  <unicode hex="0042"/>
  <outline>
    <contour>
      <point x="320" y="462" type="line"/>
      <point x="339" y="579" type="line"/>
      <point x="422" y="579" type="line" smooth="yes"/>
      <point x="441" y="579"/>
      <point x="458" y="562"/>
      <point x="458" y="531" type="curve" smooth="yes"/>
      <point x="458" y="526"/>
      <point x="458" y="521"/>
      <point x="457" y="515" type="curve" smooth="yes"/>
      <point x="453" y="484"/>
      <point x="434" y="462"/>
      <point x="404" y="462" type="curve" smooth="yes"/>
    </contour>
    <contour>
      <point x="275" y="164" type="line"/>
      <point x="295" y="288" type="line"/>
      <point x="403" y="288" type="line" smooth="yes"/>
      <point x="433" y="288"/>
      <point x="445" y="277"/>
      <point x="445" y="250" type="curve" smooth="yes"/>
      <point x="445" y="242"/>
      <point x="444" y="234"/>
      <point x="443" y="226" type="curve" smooth="yes"/>
      <point x="436" y="178"/>
      <point x="422.0" y="164"/>
      <point x="384" y="164" type="curve" smooth="yes"/>
    </contour>
    <contour>
      <point x="55" y="0" type="line"/>
      <point x="377" y="0" type="line" smooth="yes"/>
      <point x="545" y="0"/>
      <point x="619" y="46"/>
      <point x="636" y="202" type="curve" smooth="yes"/>
      <point x="637" y="214"/>
      <point x="638" y="226"/>
      <point x="638" y="237" type="curve" smooth="yes"/>
      <point x="638" y="315"/>
      <point x="607" y="366"/>
      <point x="536" y="386" type="curve"/>
      <point x="601" y="400"/>
      <point x="641" y="456"/>
      <point x="651" y="518" type="curve" smooth="yes"/>
      <point x="654.3034950254828" y="536.7198051444022"/>
      <point x="655.0" y="554.4375"/>
      <point x="655" y="571" type="curve" smooth="yes"/>
      <point x="655" y="671"/>
      <point x="598" y="743"/>
      <point x="463" y="743" type="curve" smooth="yes"/>
      <point x="171" y="743" type="line"/>
    </contour>
  </outline>
</glyph>
<glyph name="C" format="1">
  <advance width="592.0"/>
  <unicode hex="0043"/>
  <outline>
    <contour>
      <point x="98" y="399" type="curve" smooth="yes"/>
      <point x="90" y="348"/>
      <point x="86" y="300"/>
      <point x="86" y="258" type="curve" smooth="yes"/>
      <point x="86" y="95"/>
      <point x="170" y="-6"/>
      <point x="348" y="-6" type="curve" smooth="yes"/>
      <point x="415" y="-6"/>
      <point x="493" y="-1"/>
      <point x="561" y="26" type="curve"/>
      <point x="585" y="177" type="line"/>
      <point x="585" y="177"/>
      <point x="485" y="168"/>
      <point x="391" y="168" type="curve" smooth="yes"/>
      <point x="308" y="168"/>
      <point x="278" y="195"/>
      <point x="278" y="256" type="curve" smooth="yes"/>
      <point x="278" y="284"/>
      <point x="283" y="320"/>
      <point x="290" y="366" type="curve" smooth="yes"/>
      <point x="321" y="562"/>
      <point x="370" y="575"/>
      <point x="444" y="575" type="curve" smooth="yes"/>
      <point x="516" y="575"/>
      <point x="569" y="564"/>
      <point x="644" y="549" type="curve"/>
      <point x="668" y="700" type="line"/>
      <point x="625" y="721"/>
      <point x="544" y="749"/>
      <point x="420" y="749" type="curve" smooth="yes"/>
      <point x="223" y="749"/>
      <point x="134" y="632"/>
    </contour>
  </outline>
</glyph>
<glyph name="D" format="1">
  <advance width="696.0"/>
  <unicode hex="0044"/>
  <note>
    GF Latin Plus glyph
  </note>
  <outline>
    <contour>
      <point x="277" y="174" type="line"/>
      <point x="339" y="569" type="line"/>
      <point x="416" y="569" type="line" smooth="yes"/>
      <point x="497" y="569"/>
      <point x="532" y="548"/>
      <point x="532" y="474" type="curve" smooth="yes"/>
      <point x="532" y="456"/>
      <point x="528" y="421"/>
      <point x="521" y="375" type="curve" smooth="yes"/>
      <point x="498" y="232"/>
      <point x="452.9148936170213" y="174"/>
      <point x="361" y="174" type="curve" smooth="yes"/>
    </contour>
    <contour>
      <point x="55" y="0" type="line"/>
      <point x="340" y="0" type="line" smooth="yes"/>
      <point x="554" y="0"/>
      <point x="674" y="85"/>
      <point x="715" y="344" type="curve" smooth="yes"/>
      <point x="723" y="393"/>
      <point x="726" y="440"/>
      <point x="726" y="483" type="curve" smooth="yes"/>
      <point x="726" y="636"/>
      <point x="672" y="743"/>
      <point x="464" y="743" type="curve" smooth="yes"/>
      <point x="173" y="743" type="line"/>
    </contour>
    <contour>
      <point x="450" y="810" type="move" name="top"/>
    </contour>
    <contour>
      <point x="298" y="-150" type="move" name="bottom"/>
    </contour>
  </outline>
</glyph>
<glyph name="E" format="1">
  <advance width="604.0"/>
  <unicode hex="0045"/>
  <outline>
    <contour>
      <point x="82" y="173" type="line" smooth="yes"/>
      <point x="58" y="20"/>
      <point x="177" y="-6"/>
      <point x="251" y="-6" type="curve" smooth="yes"/>
      <point x="363" y="-6"/>
      <point x="458" y="3"/>
      <point x="551" y="12" type="curve"/>
      <point x="577" y="176" type="line"/>
      <point x="331" y="176" type="line" smooth="yes"/>
      <point x="292" y="176"/>
      <point x="280" y="195"/>
      <point x="285" y="228" type="curve" smooth="yes"/>
      <point x="294" y="286" type="line"/>
      <point x="543" y="291" type="line"/>
      <point x="569" y="455" type="line"/>
      <point x="322" y="460" type="line"/>
      <point x="329" y="507" type="line" smooth="yes"/>
      <point x="334" y="544"/>
      <point x="348" y="564"/>
      <point x="390" y="564" type="curve" smooth="yes"/>
      <point x="638" y="564" type="line"/>
      <point x="664" y="728" type="line"/>
      <point x="558" y="737"/>
      <point x="460" y="743"/>
      <point x="360" y="743" type="curve" smooth="yes"/>
      <point x="251" y="743"/>
      <point x="165" y="697"/>
      <point x="143" y="556" type="curve" smooth="yes"/>
    </contour>
    <contour>
      <point x="430" y="810" type="move" name="top"/>
    </contour>
    <contour>
      <point x="278" y="-150" type="move" name="bottom"/>
    </contour>
  </outline>
</glyph>
<glyph name="F" format="1">
  <advance width="557"/>
  <unicode hex="0046"/>
  <outline>
    <contour>
      <point x="40" y="0" type="line"/>
      <point x="127" y="552" type="line" smooth="yes"/>
      <point x="150" y="696"/>
      <point x="252" y="732"/>
      <point x="342" y="732" type="curve"/>
      <point x="342" y="732"/>
      <point x="531" y="732"/>
      <point x="646" y="716" type="curve"/>
      <point x="621" y="553" type="line"/>
      <point x="374" y="553" type="line" smooth="yes"/>
      <point x="322" y="553"/>
      <point x="317" y="524"/>
      <point x="313" y="497" type="curve" smooth="yes"/>
      <point x="306" y="453" type="line"/>
      <point x="553" y="442" type="line"/>
      <point x="528" y="281" type="line"/>
      <point x="277" y="272" type="line"/>
      <point x="234" y="0" type="line"/>
    </contour>
  </outline>
</glyph>
<glyph name="G" format="1">
  <advance width="650.0"/>
  <unicode hex="0047"/>
  <outline>
    <contour>
      <point x="100" y="410" type="curve" smooth="yes"/>
      <point x="67" y="202"/>
      <point x="59" y="-6"/>
      <point x="270" y="-6" type="curve" smooth="yes"/>
      <point x="329" y="-6"/>
      <point x="377" y="15"/>
      <point x="411" y="49" type="curve"/>
      <point x="421" y="0" type="line"/>
      <point x="595" y="0" type="line"/>
      <point x="665" y="444" type="line"/>
      <point x="637.9199653464946" y="447.53217843306595"/>
      <point x="574.1261261261261" y="452.0"/>
      <point x="534" y="452" type="curve" smooth="yes"/>
      <point x="469.1925465838509" y="452.0"/>
      <point x="424.3752394823841" y="448.47699259071453"/>
      <point x="393" y="446" type="curve"/>
      <point x="370" y="302" type="line"/>
      <point x="449" y="302" type="line"/>
      <point x="431" y="188" type="line"/>
      <point x="413" y="181"/>
      <point x="386" y="173"/>
      <point x="345" y="173" type="curve" smooth="yes"/>
      <point x="273.8235294117647" y="173.0"/>
      <point x="266" y="212"/>
      <point x="290" y="368" type="curve" smooth="yes"/>
      <point x="315" y="531"/>
      <point x="343.4836601307189" y="576.0"/>
      <point x="457" y="576" type="curve" smooth="yes"/>
      <point x="567.7747747747748" y="576.0"/>
      <point x="640.2373670452504" y="562.6287898864249"/>
      <point x="669" y="554" type="curve"/>
      <point x="692" y="701" type="line"/>
      <point x="630.9882080959301" y="726.1794696746955"/>
      <point x="563.9259259259259" y="749.0"/>
      <point x="432" y="749" type="curve" smooth="yes"/>
      <point x="226.8198757763975" y="749.0"/>
      <point x="137" y="643"/>
    </contour>
  </outline>
</glyph>
<glyph name="H" format="1">
  <advance width="706.0"/>
  <unicode hex="0048"/>
  <outline>
    <contour>
      <point x="55" y="0" type="line"/>
      <point x="249" y="0" type="line"/>
      <point x="293" y="278" type="line"/>
      <point x="503" y="278" type="line"/>
      <point x="459" y="0" type="line"/>
      <point x="653" y="0" type="line"/>
      <point x="771" y="743" type="line"/>
      <point x="577" y="743" type="line"/>
      <point x="531" y="452" type="line"/>
      <point x="321" y="452" type="line"/>
      <point x="367" y="743" type="line"/>
      <point x="173" y="743" type="line"/>
    </contour>
  </outline>
</glyph>
<glyph name="I" format="1">
  <advance width="282"/>
  <unicode hex="0049"/>
  <outline>
    <contour>
      <point x="45" y="0" type="line"/>
      <point x="161" y="732" type="line"/>
      <point x="355" y="732" type="line"/>
      <point x="239" y="0" type="line"/>
    </contour>
  </outline>
</glyph>
<glyph name="J" format="1">
  <advance width="354"/>
  <unicode hex="004A"/>
  <outline>
    <contour>
      <point x="23" y="25" type="curve"/>
      <point x="47" y="179" type="line"/>
      <point x="152" y="179"/>
      <point x="159" y="199"/>
      <point x="171" y="276" type="curve" smooth="yes"/>
      <point x="243" y="732" type="line"/>
      <point x="437" y="732" type="line"/>
      <point x="347" y="165" type="line" smooth="yes"/>
      <point x="340" y="118"/>
      <point x="325" y="50"/>
      <point x="270" y="18" type="curve" smooth="yes"/>
      <point x="212" y="-16"/>
      <point x="70" y="-9"/>
    </contour>
  </outline>
</glyph>
<glyph name="K" format="1">
  <advance width="660"/>
  <unicode hex="004B"/>
  <outline>
    <contour>
      <point x="45" y="0" type="line"/>
      <point x="161" y="732" type="line"/>
      <point x="345" y="732" type="line"/>
      <point x="299" y="444" type="line"/>
      <point x="329" y="444" type="line"/>
      <point x="524" y="732" type="line"/>
      <point x="757" y="732" type="line"/>
      <point x="498" y="349" type="line"/>
      <point x="641" y="0" type="line"/>
      <point x="423" y="0" type="line"/>
      <point x="323" y="280" type="line"/>
      <point x="274" y="280" type="line"/>
      <point x="230" y="0" type="line"/>
    </contour>
  </outline>
</glyph>
<glyph name="L" format="1">
  <advance width="525"/>
  <unicode hex="004C"/>
  <outline>
    <contour>
      <point x="69" y="156" type="curve" smooth="yes"/>
      <point x="160" y="732" type="line"/>
      <point x="354" y="732" type="line"/>
      <point x="274" y="226" type="line" smooth="yes"/>
      <point x="266" y="173"/>
      <point x="299" y="174"/>
      <point x="328" y="174" type="curve" smooth="yes"/>
      <point x="534" y="174" type="line"/>
      <point x="506" y="0" type="line"/>
      <point x="210" y="0" type="line" smooth="yes"/>
      <point x="119" y="0"/>
      <point x="51" y="43"/>
    </contour>
  </outline>
</glyph>
<glyph name="M" format="1">
  <advance width="906.0"/>
  <unicode hex="004D"/>
  <outline>
    <contour>
      <point x="30" y="0" type="line"/>
      <point x="224" y="0" type="line"/>
      <point x="328" y="410" type="line"/>
      <point x="392" y="0" type="line"/>
      <point x="514" y="0" type="line"/>
      <point x="707" y="410" type="line"/>
      <point x="682" y="0" type="line"/>
      <point x="876" y="0" type="line"/>
      <point x="916" y="743" type="line"/>
      <point x="736" y="743" type="line"/>
      <point x="503" y="302" type="line"/>
      <point x="407" y="743" type="line"/>
      <point x="225" y="743" type="line"/>
    </contour>
    <contour>
      <point x="570" y="810" type="move" name="top"/>
    </contour>
    <contour>
      <point x="418" y="-150" type="move" name="bottom"/>
    </contour>
  </outline>
</glyph>
<glyph name="N" format="1">
  <advance width="709.0"/>
  <unicode hex="004E"/>
  <outline>
    <contour>
      <point x="55" y="0" type="line"/>
      <point x="249" y="0" type="line"/>
      <point x="315" y="414" type="line"/>
      <point x="510" y="0" type="line"/>
      <point x="664" y="0" type="line"/>
      <point x="782" y="743" type="line"/>
      <point x="588" y="743" type="line"/>
      <point x="522" y="329" type="line"/>
      <point x="327" y="743" type="line"/>
      <point x="173" y="743" type="line"/>
    </contour>
    <contour>
      <point x="462" y="810" type="move" name="top"/>
    </contour>
    <contour>
      <point x="310" y="-150" type="move" name="bottom"/>
    </contour>
  </outline>
</glyph>
<glyph name="O" format="1">
  <advance width="704.0"/>
  <unicode hex="004F"/>
  <outline>
    <contour>
      <point x="277" y="249" type="curve" smooth="yes"/>
      <point x="277" y="276"/>
      <point x="283" y="325"/>
      <point x="291" y="373" type="curve" smooth="yes"/>
      <point x="316" y="532"/>
      <point x="349" y="575"/>
      <point x="443" y="575" type="curve" smooth="yes"/>
      <point x="514" y="575"/>
      <point x="543" y="559"/>
      <point x="543" y="490" type="curve" smooth="yes"/>
      <point x="543" y="462"/>
      <point x="537" y="411"/>
      <point x="529" y="361" type="curve" smooth="yes"/>
      <point x="509" y="233"/>
      <point x="479" y="169"/>
      <point x="380" y="169" type="curve" smooth="yes"/>
      <point x="305" y="169"/>
      <point x="277" y="188"/>
    </contour>
    <contour>
      <point x="83" y="239" type="curve" smooth="yes"/>
      <point x="83" y="36"/>
      <point x="194" y="-6"/>
      <point x="350" y="-6" type="curve" smooth="yes"/>
      <point x="577" y="-6"/>
      <point x="678" y="56"/>
      <point x="722" y="336" type="curve" smooth="yes"/>
      <point x="731" y="391"/>
      <point x="737" y="451"/>
      <point x="737" y="492" type="curve" smooth="yes"/>
      <point x="737" y="708"/>
      <point x="621" y="749"/>
      <point x="470" y="749" type="curve" smooth="yes"/>
      <point x="244" y="749"/>
      <point x="141" y="667"/>
      <point x="98" y="398" type="curve" smooth="yes"/>
      <point x="89" y="344"/>
      <point x="83" y="284"/>
    </contour>
    <contour>
      <point x="481" y="810" type="move" name="top"/>
    </contour>
    <contour>
      <point x="329" y="-150" type="move" name="bottom"/>
    </contour>
  </outline>
</glyph>
<glyph name="P" format="1">
  <advance width="616.0"/>
  <unicode hex="0050"/>
  <outline>
    <contour>
      <point x="311" y="392" type="line"/>
      <point x="337" y="558" type="line"/>
      <point x="429" y="558" type="line" smooth="yes"/>
      <point x="458" y="558"/>
      <point x="473" y="547"/>
      <point x="473" y="515" type="curve" smooth="yes"/>
      <point x="473" y="509"/>
      <point x="471" y="491"/>
      <point x="468" y="474" type="curve" smooth="yes"/>
      <point x="462" y="431"/>
      <point x="442" y="392"/>
      <point x="404" y="392" type="curve" smooth="yes"/>
    </contour>
    <contour>
      <point x="55" y="0" type="line"/>
      <point x="249" y="0" type="line"/>
      <point x="287" y="238" type="line"/>
      <point x="315" y="227"/>
      <point x="379" y="216"/>
      <point x="441" y="216" type="curve" smooth="yes"/>
      <point x="537" y="216"/>
      <point x="635" y="277"/>
      <point x="663" y="453" type="curve" smooth="yes"/>
      <point x="667" y="478"/>
      <point x="671" y="513"/>
      <point x="671" y="534" type="curve" smooth="yes"/>
      <point x="671" y="689"/>
      <point x="567" y="732"/>
      <point x="477" y="732" type="curve" smooth="yes"/>
      <point x="171" y="732" type="line"/>
    </contour>
  </outline>
</glyph>
<glyph name="Q" format="1">
  <advance width="666"/>
  <unicode hex="0051"/>
  <outline>
    <contour>
      <point x="280" y="-33" type="curve"/>
      <point x="382" y="-33" type="line"/>
      <point x="378" y="-94"/>
      <point x="473" y="-80"/>
      <point x="535" y="-68" type="curve"/>
      <point x="513" y="-208" type="line"/>
      <point x="386" y="-226"/>
      <point x="257" y="-184"/>
    </contour>
    <contour>
      <point x="288" y="361" type="curve" smooth="yes"/>
      <point x="264" y="208"/>
      <point x="268" y="170"/>
      <point x="366" y="170" type="curve" smooth="yes"/>
      <point x="452" y="170"/>
      <point x="481" y="206"/>
      <point x="506" y="361" type="curve" smooth="yes"/>
      <point x="533" y="531"/>
      <point x="520" y="563"/>
      <point x="429" y="563" type="curve" smooth="yes"/>
      <point x="341" y="563"/>
      <point x="316" y="540"/>
    </contour>
    <contour>
      <point x="94" y="391" type="curve" smooth="yes"/>
      <point x="148" y="734"/>
      <point x="288" y="737"/>
      <point x="456" y="737" type="curve" smooth="yes"/>
      <point x="629" y="737"/>
      <point x="754" y="674"/>
      <point x="700" y="331" type="curve" smooth="yes"/>
      <point x="649" y="8"/>
      <point x="519" y="-2"/>
      <point x="339" y="-4" type="curve"/>
      <point x="159" y="-4"/>
      <point x="41" y="58"/>
    </contour>
  </outline>
</glyph>
<glyph name="R" format="1">
  <advance width="644.0"/>
  <unicode hex="0052"/>
  <outline>
    <contour>
      <point x="318" y="430" type="line"/>
      <point x="342" y="578" type="line"/>
      <point x="429" y="578" type="line" smooth="yes"/>
      <point x="469.0444444444444" y="578"/>
      <point x="482.0" y="562.0"/>
      <point x="482" y="535" type="curve" smooth="yes"/>
      <point x="482" y="527"/>
      <point x="482" y="518"/>
      <point x="480" y="508" type="curve"/>
      <point x="471.97864696266635" y="455.8612052573312"/>
      <point x="462.24657534246575" y="430"/>
      <point x="399" y="430" type="curve" smooth="yes"/>
    </contour>
    <contour>
      <point x="55" y="0" type="line"/>
      <point x="249" y="0" type="line"/>
      <point x="292" y="270" type="line"/>
      <point x="307" y="268"/>
      <point x="334" y="266"/>
      <point x="352" y="266" type="curve"/>
      <point x="431" y="0" type="line"/>
      <point x="624" y="0" type="line"/>
      <point x="532" y="274" type="line"/>
      <point x="581.4726074955576" y="292.2833549440104"/>
      <point x="653.9729680568897" y="339.81592533977323"/>
      <point x="675" y="483" type="curve"/>
      <point x="679" y="507"/>
      <point x="681" y="529"/>
      <point x="681" y="549" type="curve" smooth="yes"/>
      <point x="681.0" y="684.0"/>
      <point x="597.6839378238342" y="743"/>
      <point x="480" y="743" type="curve" smooth="yes"/>
      <point x="173" y="743" type="line"/>
    </contour>
  </outline>
</glyph>
<glyph name="S" format="1">
  <advance width="598.0"/>
  <unicode hex="0053"/>
  <outline>
    <contour>
      <point x="68" y="23" type="curve"/>
      <point x="92" y="177" type="line"/>
      <point x="149" y="172"/>
      <point x="246" y="168"/>
      <point x="326" y="168" type="curve" smooth="yes"/>
      <point x="384" y="168"/>
      <point x="403" y="178"/>
      <point x="408" y="207" type="curve" smooth="yes"/>
      <point x="410" y="218" type="line" smooth="yes"/>
      <point x="417.7021261440201" y="260.3616937921104"/>
      <point x="400.0" y="279"/>
      <point x="356" y="279" type="curve" smooth="yes"/>
      <point x="296" y="279" type="line" smooth="yes"/>
      <point x="163.0" y="279"/>
      <point x="94.76970834932217" y="372.61825009593304"/>
      <point x="115" y="494" type="curve" smooth="yes"/>
      <point x="129" y="578" type="line" smooth="yes"/>
      <point x="152" y="714"/>
      <point x="248" y="749"/>
      <point x="389" y="749" type="curve" smooth="yes"/>
      <point x="501" y="749"/>
      <point x="599" y="731"/>
      <point x="656" y="718" type="curve"/>
      <point x="631" y="564" type="line"/>
      <point x="568" y="571"/>
      <point x="468" y="575"/>
      <point x="404" y="575" type="curve" smooth="yes"/>
      <point x="341" y="575"/>
      <point x="316" y="564"/>
      <point x="310" y="530" type="curve" smooth="yes"/>
      <point x="308" y="519" type="line" smooth="yes"/>
      <point x="302.622139945533" y="489.42176970043135"/>
      <point x="316.0" y="473"/>
      <point x="373" y="473" type="curve" smooth="yes"/>
      <point x="427" y="473" type="line" smooth="yes"/>
      <point x="573.0" y="473"/>
      <point x="621.9133004058796" y="374.4537925570415"/>
      <point x="602" y="249" type="curve" smooth="yes"/>
      <point x="592" y="186" type="line" smooth="yes"/>
      <point x="572" y="62"/>
      <point x="515" y="-6"/>
      <point x="331" y="-6" type="curve" smooth="yes"/>
      <point x="207" y="-6"/>
      <point x="121" y="8"/>
    </contour>
  </outline>
</glyph>
<glyph name="T" format="1">
  <advance width="597"/>
  <unicode hex="0054"/>
  <outline>
    <contour>
      <point x="108" y="558" type="line"/>
      <point x="136" y="732" type="line"/>
      <point x="704" y="732" type="line"/>
      <point x="676" y="558" type="line"/>
      <point x="486" y="558" type="line"/>
      <point x="398" y="0" type="line"/>
      <point x="204" y="0" type="line"/>
      <point x="292" y="558" type="line"/>
    </contour>
  </outline>
</glyph>
<glyph name="U" format="1">
  <advance width="696.0"/>
  <unicode hex="0055"/>
  <outline>
    <contour>
      <point x="110" y="350" type="line" smooth="yes"/>
      <point x="103" y="306"/>
      <point x="97" y="263"/>
      <point x="97" y="228" type="curve" smooth="yes"/>
      <point x="97" y="64"/>
      <point x="182" y="-6"/>
      <point x="350" y="-6" type="curve" smooth="yes"/>
      <point x="540" y="-6"/>
      <point x="647" y="39"/>
      <point x="687" y="290" type="curve" smooth="yes"/>
      <point x="759" y="743" type="line"/>
      <point x="565" y="743" type="line"/>
      <point x="498" y="320" type="line" smooth="yes"/>
      <point x="479" y="200"/>
      <point x="447" y="168"/>
      <point x="378" y="168" type="curve" smooth="yes"/>
      <point x="313" y="168"/>
      <point x="291" y="195"/>
      <point x="291" y="245" type="curve" smooth="yes"/>
      <point x="291" y="266"/>
      <point x="296" y="292"/>
      <point x="300" y="320" type="curve" smooth="yes"/>
      <point x="367" y="743" type="line"/>
      <point x="173" y="743" type="line"/>
    </contour>
    <contour>
      <point x="472" y="810" type="move" name="top"/>
    </contour>
    <contour>
      <point x="320" y="-150" type="move" name="bottom"/>
    </contour>
  </outline>
</glyph>
<glyph name="V" format="1">
  <advance width="710.0"/>
  <unicode hex="0056"/>
  <outline>
    <contour>
      <point x="132" y="743" type="line"/>
      <point x="234" y="0" type="line"/>
      <point x="476" y="0" type="line"/>
      <point x="814" y="743" type="line"/>
      <point x="615" y="743" type="line"/>
      <point x="389" y="211" type="line"/>
      <point x="333" y="743" type="line"/>
    </contour>
  </outline>
</glyph>
<glyph name="W" format="1">
  <advance width="1050.0"/>
  <unicode hex="0057"/>
  <outline>
    <contour>
      <point x="133" y="743" type="line"/>
      <point x="214" y="0" type="line"/>
      <point x="428" y="0" type="line"/>
      <point x="574" y="337" type="line"/>
      <point x="615" y="0" type="line"/>
      <point x="828" y="0" type="line"/>
      <point x="1153" y="743" type="line"/>
      <point x="949" y="743" type="line"/>
      <point x="759" y="228" type="line"/>
      <point x="715" y="743" type="line"/>
      <point x="567" y="743" type="line"/>
      <point x="379" y="228" type="line"/>
      <point x="337" y="743" type="line"/>
    </contour>
  </outline>
</glyph>
<glyph name="X" format="1">
  <advance width="679"/>
  <unicode hex="0058"/>
  <outline>
    <contour>
      <point x="28" y="0" type="line"/>
      <point x="294" y="383" type="line"/>
      <point x="141" y="732" type="line"/>
      <point x="356" y="732" type="line"/>
      <point x="429" y="529" type="line"/>
      <point x="566" y="732" type="line"/>
      <point x="781" y="732" type="line"/>
      <point x="509" y="343" type="line"/>
      <point x="660" y="0" type="line"/>
      <point x="445" y="0" type="line"/>
      <point x="375" y="196" type="line"/>
      <point x="243" y="0" type="line"/>
    </contour>
  </outline>
</glyph>
<glyph name="Y" format="1">
  <advance width="679"/>
  <unicode hex="0059"/>
  <outline>
    <contour>
      <point x="130" y="732" type="line"/>
      <point x="341" y="732" type="line"/>
      <point x="389" y="408" type="line"/>
      <point x="551" y="732" type="line"/>
      <point x="770" y="732" type="line"/>
      <point x="455" y="200" type="line"/>
      <point x="423" y="0" type="line"/>
      <point x="229" y="0" type="line"/>
      <point x="261" y="200" type="line"/>
    </contour>
  </outline>
</glyph>
<glyph name="Z" format="1">
  <advance width="552"/>
  <unicode hex="005A"/>
  <outline>
    <contour>
      <point x="20" y="0" type="line"/>
      <point x="48" y="174" type="line"/>
      <point x="389" y="558" type="line"/>
      <point x="108" y="558" type="line"/>
      <point x="136" y="732" type="line"/>
      <point x="649" y="732" type="line"/>
      <point x="621" y="558" type="line"/>
      <point x="299" y="174" type="line"/>
      <point x="561" y="174" type="line"/>
      <point x="533" y="0" type="line"/>
    </contour>
  </outline>
</glyph>
<glyph name="bracketleft" format="1">
  <advance width="345"/>
  <unicode hex="005B"/>
  <outline>
    <contour>
      <point x="50" y="-19" type="curve" smooth="yes"/>
      <point x="153" y="606" type="line" smooth="yes"/>
      <point x="175" y="738"/>
      <point x="238" y="782"/>
      <point x="388" y="782" type="curve" smooth="yes"/>
      <point x="468" y="782" type="line"/>
      <point x="444" y="628" type="line"/>
      <point x="414" y="628" type="line" smooth="yes"/>
      <point x="376" y="628"/>
      <point x="350" y="610"/>
      <point x="340" y="550" type="curve" smooth="yes"/>
      <point x="244" y="-38" type="line" smooth="yes"/>
      <point x="234" y="-98"/>
      <point x="253" y="-116"/>
      <point x="291" y="-116" type="curve" smooth="yes"/>
      <point x="326" y="-116" type="line"/>
      <point x="302" y="-270" type="line"/>
      <point x="206" y="-270" type="line" smooth="yes"/>
      <point x="50" y="-270"/>
      <point x="32" y="-125"/>
    </contour>
  </outline>
</glyph>
<glyph name="backslash" format="1">
  <advance width="497"/>
  <unicode hex="005C"/>
  <outline>
    <contour>
      <point x="132" y="770" type="line"/>
      <point x="328" y="770" type="line"/>
      <point x="476" y="-72" type="line"/>
      <point x="280" y="-72" type="line"/>
    </contour>
  </outline>
</glyph>
<glyph name="bracketright" format="1">
  <advance width="339"/>
  <unicode hex="005D"/>
  <outline>
    <contour>
      <point x="-22" y="-270" type="line"/>
      <point x="78" y="-270" type="line" smooth="yes"/>
      <point x="247" y="-270"/>
      <point x="292" y="-190"/>
      <point x="305" y="-93" type="curve" smooth="yes"/>
      <point x="395" y="548" type="line" smooth="yes"/>
      <point x="397" y="566"/>
      <point x="399" y="584"/>
      <point x="399" y="601" type="curve" smooth="yes"/>
      <point x="399" y="706"/>
      <point x="349" y="782"/>
      <point x="229" y="782" type="curve" smooth="yes"/>
      <point x="145" y="782" type="line"/>
      <point x="120" y="628" type="line"/>
      <point x="150" y="628" type="line" smooth="yes"/>
      <point x="182" y="628"/>
      <point x="202" y="615"/>
      <point x="202" y="576" type="curve" smooth="yes"/>
      <point x="202" y="568"/>
      <point x="202" y="560"/>
      <point x="200" y="550" type="curve" smooth="yes"/>
      <point x="107" y="-38" type="line" smooth="yes"/>
      <point x="97" y="-98"/>
      <point x="70" y="-116"/>
      <point x="32" y="-116" type="curve" smooth="yes"/>
      <point x="2" y="-116" type="line"/>
    </contour>
  </outline>
</glyph>
<glyph name="asciicircum" format="1">
  <advance width="378"/>
  <unicode hex="005E"/>
  <outline>
    <contour>
      <point x="112" y="531" type="line"/>
      <point x="234" y="671" type="line"/>
      <point x="365" y="671" type="line"/>
      <point x="434" y="531" type="line"/>
      <point x="323" y="531" type="line"/>
      <point x="282" y="582" type="line"/>
      <point x="224" y="531" type="line"/>
    </contour>
  </outline>
</glyph>
<glyph name="underscore" format="1">
  <advance width="673"/>
  <unicode hex="005F"/>
  <outline>
    <contour>
      <point x="29" y="-1" type="line"/>
      <point x="53" y="153" type="line"/>
      <point x="687" y="153" type="line"/>
      <point x="663" y="-1" type="line"/>
    </contour>
  </outline>
</glyph>
<glyph name="grave" format="1">
  <advance width="243"/>
  <unicode hex="0060"/>
  <outline>
    <contour>
      <point x="117" y="674" type="line"/>
      <point x="262" y="674" type="line"/>
      <point x="316" y="531" type="line"/>
      <point x="207" y="531" type="line"/>
    </contour>
  </outline>
</glyph>
<glyph name="a" format="1">
  <advance width="583.0"/>
  <unicode hex="0061"/>
  <outline>
    <contour>
      <point x="272" y="288" type="curve" smooth="yes"/>
      <point x="280" y="337"/>
      <point x="310" y="371"/>
      <point x="361" y="371" type="curve" smooth="yes"/>
      <point x="379" y="371"/>
      <point x="397" y="366"/>
      <point x="402" y="364" type="curve"/>
      <point x="375" y="197" type="line"/>
      <point x="364" y="185"/>
      <point x="342" y="168"/>
      <point x="311" y="168" type="curve" smooth="yes"/>
      <point x="273" y="168"/>
      <point x="264" y="193"/>
      <point x="264" y="218" type="curve" smooth="yes"/>
      <point x="264" y="231"/>
      <point x="267" y="260"/>
    </contour>
    <contour>
      <point x="82" y="299" type="curve" smooth="yes"/>
      <point x="78" y="272"/>
      <point x="70" y="223"/>
      <point x="70" y="182" type="curve" smooth="yes"/>
      <point x="70" y="50"/>
      <point x="134" y="-6"/>
      <point x="208" y="-6" type="curve" smooth="yes"/>
      <point x="265" y="-6"/>
      <point x="324" y="25"/>
      <point x="352" y="52" type="curve"/>
      <point x="364" y="0" type="line"/>
      <point x="538" y="0" type="line"/>
      <point x="614" y="479" type="line"/>
      <point x="565" y="515"/>
      <point x="475" y="545"/>
      <point x="372" y="545" type="curve" smooth="yes"/>
      <point x="187" y="545"/>
      <point x="108" y="462"/>
    </contour>
  </outline>
</glyph>
<glyph name="b" format="1">
  <advance width="593.0"/>
  <unicode hex="0062"/>
  <outline>
    <contour>
      <point x="270" y="190" type="curve"/>
      <point x="296" y="356" type="line"/>
      <point x="314.02738274018304" y="366.1404027913529"/>
      <point x="344.88524590163934" y="371.0"/>
      <point x="367" y="371" type="curve" smooth="yes"/>
      <point x="394" y="371"/>
      <point x="415" y="360"/>
      <point x="415" y="320" type="curve" smooth="yes"/>
      <point x="415" y="308"/>
      <point x="413" y="292"/>
      <point x="411" y="273" type="curve" smooth="yes"/>
      <point x="400" y="190"/>
      <point x="374" y="168"/>
      <point x="339" y="168" type="curve" smooth="yes"/>
      <point x="302.7457627118644" y="168.0"/>
      <point x="286.3207666227499" y="173.6792333772501"/>
    </contour>
    <contour>
      <point x="45" y="0" type="line"/>
      <point x="219" y="0" type="line"/>
      <point x="248" y="49" type="line"/>
      <point x="283.26225563463976" y="14.774869531084953"/>
      <point x="337.95744680851067" y="-6.0"/>
      <point x="399" y="-6" type="curve" smooth="yes"/>
      <point x="499" y="-6"/>
      <point x="572" y="73"/>
      <point x="595" y="223" type="curve" smooth="yes"/>
      <point x="603" y="274"/>
      <point x="609" y="321"/>
      <point x="609" y="351" type="curve" smooth="yes"/>
      <point x="609" y="474"/>
      <point x="552" y="545"/>
      <point x="457" y="545" type="curve" smooth="yes"/>
      <point x="419.22222222222223" y="545.0"/>
      <point x="362.51940762232016" y="535.227403713438"/>
      <point x="321" y="515" type="curve"/>
      <point x="363" y="783" type="line"/>
      <point x="169" y="783" type="line"/>
    </contour>
  </outline>
</glyph>
<glyph name="c" format="1">
  <advance width="489"/>
  <unicode hex="0063"/>
  <outline>
    <contour>
      <point x="70" y="296" type="curve" smooth="yes"/>
      <point x="103" y="504"/>
      <point x="185" y="541"/>
      <point x="287" y="541" type="curve" smooth="yes"/>
      <point x="339" y="541"/>
      <point x="462" y="536"/>
      <point x="540" y="505" type="curve"/>
      <point x="522" y="391" type="line"/>
      <point x="522" y="391"/>
      <point x="463" y="397"/>
      <point x="374" y="397" type="curve" smooth="yes"/>
      <point x="306" y="397"/>
      <point x="284" y="394"/>
      <point x="263" y="264" type="curve" smooth="yes"/>
      <point x="244" y="142"/>
      <point x="261" y="139"/>
      <point x="333" y="139" type="curve" smooth="yes"/>
      <point x="425" y="139"/>
      <point x="491" y="147"/>
      <point x="491" y="147" type="curve"/>
      <point x="473" y="33" type="line"/>
      <point x="400" y="0"/>
      <point x="334" y="-7"/>
      <point x="202" y="-5" type="curve" smooth="yes"/>
      <point x="103" y="-4"/>
      <point x="37" y="88"/>
    </contour>
  </outline>
</glyph>
<glyph name="d" format="1">
  <advance width="549"/>
  <unicode hex="0064"/>
  <outline>
    <contour>
      <point x="265" y="273" type="curve" smooth="yes"/>
      <point x="248" y="164"/>
      <point x="261" y="151"/>
      <point x="290" y="151" type="curve" smooth="yes"/>
      <point x="321" y="151"/>
      <point x="345" y="156"/>
      <point x="358" y="173" type="curve"/>
      <point x="392" y="385" type="line"/>
      <point x="384" y="396"/>
      <point x="354" y="400"/>
      <point x="329" y="400" type="curve" smooth="yes"/>
      <point x="301" y="400"/>
      <point x="283" y="386"/>
    </contour>
    <contour>
      <point x="69" y="303" type="curve" smooth="yes"/>
      <point x="96" y="454"/>
      <point x="141" y="539"/>
      <point x="285" y="539" type="curve" smooth="yes"/>
      <point x="330" y="539"/>
      <point x="379" y="528"/>
      <point x="412" y="509" type="curve"/>
      <point x="456" y="785" type="line"/>
      <point x="650" y="785" type="line"/>
      <point x="526" y="0" type="line"/>
      <point x="360" y="0" type="line"/>
      <point x="338" y="49" type="line"/>
      <point x="294" y="16"/>
      <point x="258" y="-6"/>
      <point x="199" y="-6" type="curve" smooth="yes"/>
      <point x="80" y="-6"/>
      <point x="37" y="124"/>
    </contour>
  </outline>
</glyph>
<glyph name="e" format="1">
  <advance width="548.0"/>
  <unicode hex="0065"/>
  <note>
    GF Latin Plus glyph
  </note>
  <outline>
    <contour>
      <point x="272" y="299" type="curve"/>
      <point x="284" y="364"/>
      <point x="307" y="398"/>
      <point x="351" y="398" type="curve" smooth="yes"/>
      <point x="383" y="398"/>
      <point x="398" y="381"/>
      <point x="398" y="355" type="curve" smooth="yes"/>
      <point x="398.0" y="318.0769230769231"/>
      <point x="384.8488372093023" y="295.0"/>
      <point x="311" y="295" type="curve" smooth="yes"/>
      <point x="299" y="295"/>
      <point x="285" y="297"/>
    </contour>
    <contour>
      <point x="68" y="203" type="curve" smooth="yes"/>
      <point x="68" y="72"/>
      <point x="121" y="-6"/>
      <point x="278" y="-6" type="curve" smooth="yes"/>
      <point x="373" y="-6"/>
      <point x="458" y="7"/>
      <point x="518" y="22" type="curve"/>
      <point x="536" y="135" type="line"/>
      <point x="357" y="135" type="line" smooth="yes"/>
      <point x="288.3061224489795" y="135"/>
      <point x="258.0" y="149.0"/>
      <point x="258" y="178" type="curve" smooth="yes"/>
      <point x="258" y="184"/>
      <point x="259" y="192"/>
      <point x="260" y="198" type="curve"/>
      <point x="282.44040947767155" y="192.89990693689282"/>
      <point x="316.58333333333326" y="190.0"/>
      <point x="357" y="190" type="curve" smooth="yes"/>
      <point x="480.0" y="190.0"/>
      <point x="578" y="220"/>
      <point x="578" y="376" type="curve" smooth="yes"/>
      <point x="578" y="516"/>
      <point x="465" y="545"/>
      <point x="364" y="545" type="curve" smooth="yes"/>
      <point x="209" y="545"/>
      <point x="106" y="482"/>
      <point x="77" y="299" type="curve" smooth="yes"/>
      <point x="72" y="269"/>
      <point x="68" y="237"/>
    </contour>
    <contour>
      <point x="379.0" y="650.0" type="move" name="top"/>
    </contour>
    <contour>
      <point x="273" y="-150" type="move" name="bottom"/>
    </contour>
    <contour>
      <point x="508" y="22" type="move" name="ogonek"/>
    </contour>
  </outline>
</glyph>
<glyph name="f" format="1">
  <advance width="406"/>
  <unicode hex="0066"/>
  <outline>
    <contour>
      <point x="73" y="397" type="line"/>
      <point x="92" y="514" type="line"/>
      <point x="166" y="531" type="line"/>
      <point x="182" y="630" type="line" smooth="yes"/>
      <point x="201" y="751"/>
      <point x="271" y="786"/>
      <point x="391" y="786" type="curve" smooth="yes"/>
      <point x="440" y="786"/>
      <point x="480" y="782"/>
      <point x="516" y="762" type="curve"/>
      <point x="498" y="651" type="line" smooth="yes"/>
      <point x="497" y="651"/>
      <point x="425" y="652"/>
      <point x="425" y="652" type="curve" smooth="yes"/>
      <point x="375" y="653"/>
      <point x="376" y="632"/>
      <point x="366" y="570" type="curve" smooth="yes"/>
      <point x="360" y="531" type="line"/>
      <point x="458" y="531" type="line"/>
      <point x="437" y="397" type="line"/>
      <point x="339" y="397" type="line"/>
      <point x="276" y="0" type="line"/>
      <point x="82" y="0" type="line"/>
      <point x="145" y="397" type="line"/>
    </contour>
  </outline>
</glyph>
<glyph name="g" format="1">
  <advance width="574.0158576361092"/>
  <unicode hex="0067"/>
  <outline>
    <contour>
      <point x="268" y="291" type="curve" smooth="yes"/>
      <point x="281" y="365"/>
      <point x="320" y="390"/>
      <point x="354" y="390" type="curve" smooth="yes"/>
      <point x="369" y="390"/>
      <point x="385" y="388"/>
      <point x="399" y="383" type="curve"/>
      <point x="366" y="178" type="line"/>
      <point x="352" y="163"/>
      <point x="330" y="149"/>
      <point x="304" y="149" type="curve" smooth="yes"/>
      <point x="274" y="149"/>
      <point x="259" y="171"/>
      <point x="259" y="217" type="curve" smooth="yes"/>
      <point x="259" y="239"/>
      <point x="261" y="250"/>
    </contour>
    <contour>
      <point x="25" y="-221" type="line"/>
      <point x="202" y="-237" type="line" smooth="yes"/>
      <point x="393.2877312485383" y="-254.2915463275515"/>
      <point x="500.6505441805831" y="-200.65557082083208"/>
      <point x="524" y="-54" type="curve" smooth="yes"/>
      <point x="613" y="505" type="line"/>
      <point x="559" y="524"/>
      <point x="469" y="545"/>
      <point x="363" y="545" type="curve" smooth="yes"/>
      <point x="238" y="545"/>
      <point x="109" y="502"/>
      <point x="79" y="313" type="curve" smooth="yes"/>
      <point x="73" y="273"/>
      <point x="65" y="217"/>
      <point x="65" y="183" type="curve" smooth="yes"/>
      <point x="65" y="88"/>
      <point x="101" y="-6"/>
      <point x="202" y="-6" type="curve" smooth="yes"/>
      <point x="254" y="-6"/>
      <point x="321" y="24"/>
      <point x="347" y="52" type="curve"/>
      <point x="335" y="-24" type="line" smooth="yes"/>
      <point x="326.6044580627218" y="-77.17176560276204"/>
      <point x="286.42241379310343" y="-87"/>
      <point x="220" y="-87" type="curve" smooth="yes"/>
      <point x="46" y="-87" type="line"/>
    </contour>
    <contour>
      <point x="379" y="650" type="move" name="top"/>
    </contour>
    <contour>
      <point x="213" y="-350" type="move" name="bottom"/>
    </contour>
  </outline>
</glyph>
<glyph name="h" format="1">
  <advance width="555"/>
  <unicode hex="0068"/>
  <outline>
    <contour>
      <point x="34" y="0" type="line"/>
      <point x="158" y="782" type="line"/>
      <point x="351" y="782" type="line"/>
      <point x="303" y="479" type="line"/>
      <point x="337" y="508"/>
      <point x="379" y="540"/>
      <point x="460" y="540" type="curve" smooth="yes"/>
      <point x="598" y="540"/>
      <point x="600" y="452"/>
      <point x="582" y="340" type="curve" smooth="yes"/>
      <point x="528" y="0" type="line"/>
      <point x="334" y="0" type="line"/>
      <point x="388" y="344" type="line" smooth="yes"/>
      <point x="395" y="386"/>
      <point x="386" y="396"/>
      <point x="364" y="396" type="curve" smooth="yes"/>
      <point x="327" y="396"/>
      <point x="301" y="386"/>
      <point x="285" y="359" type="curve"/>
      <point x="228" y="0" type="line"/>
    </contour>
  </outline>
</glyph>
<glyph name="i" format="1">
  <advance width="280.0"/>
  <unicode hex="0069"/>
  <outline>
    <contour>
      <point x="139" y="614" type="line" smooth="yes"/>
      <point x="137" y="600"/>
      <point x="145" y="591"/>
      <point x="159" y="591" type="curve" smooth="yes"/>
      <point x="309" y="591" type="line" smooth="yes"/>
      <point x="323" y="591"/>
      <point x="333" y="599"/>
      <point x="335" y="614" type="curve" smooth="yes"/>
      <point x="353" y="731" type="line" smooth="yes"/>
      <point x="355" y="745"/>
      <point x="350" y="756"/>
      <point x="335" y="756" type="curve" smooth="yes"/>
      <point x="185" y="756" type="line" smooth="yes"/>
      <point x="169" y="756"/>
      <point x="159" y="746"/>
      <point x="157" y="731" type="curve" smooth="yes"/>
    </contour>
    <component base="idotless" xOffset="-1"/>
    <contour>
      <point x="126" y="-150" type="move" name="bottom"/>
    </contour>
    <contour>
      <point x="228" y="0" type="move" name="ogonek"/>
    </contour>
  </outline>
</glyph>
<glyph name="j" format="1">
  <advance width="281.0"/>
  <unicode hex="006A"/>
  <outline>
    <contour>
      <point x="138" y="604" type="curve" smooth="yes"/>
      <point x="157" y="721" type="line" smooth="yes"/>
      <point x="159" y="736"/>
      <point x="169" y="746"/>
      <point x="185" y="746" type="curve" smooth="yes"/>
      <point x="335" y="746" type="line" smooth="yes"/>
      <point x="350" y="746"/>
      <point x="356" y="735"/>
      <point x="354" y="721" type="curve" smooth="yes"/>
      <point x="335" y="604" type="line" smooth="yes"/>
      <point x="333" y="589"/>
      <point x="323" y="581"/>
      <point x="309" y="581" type="curve" smooth="yes"/>
      <point x="159" y="581" type="line" smooth="yes"/>
      <point x="145" y="581"/>
      <point x="136" y="590"/>
    </contour>
    <component base="jdotless"/>
  </outline>
</glyph>
<glyph name="k" format="1">
  <advance width="591.0"/>
  <unicode hex="006B"/>
  <outline>
    <contour>
      <point x="45" y="0" type="line"/>
      <point x="239" y="0" type="line"/>
      <point x="274" y="223" type="line"/>
      <point x="283.6" y="223.0"/>
      <point x="301.77798734409936" y="225.74079662509317"/>
      <point x="314" y="229" type="curve"/>
      <point x="408" y="0" type="line"/>
      <point x="606" y="0" type="line"/>
      <point x="475" y="288" type="line"/>
      <point x="531" y="322"/>
      <point x="597" y="388"/>
      <point x="638" y="539" type="curve"/>
      <point x="444" y="539" type="line"/>
      <point x="422.0697055188633" y="445.2978326715068"/>
      <point x="380.82035849210513" y="383.3493450139676"/>
      <point x="295" y="356" type="curve"/>
      <point x="363" y="783" type="line"/>
      <point x="169" y="783" type="line"/>
    </contour>
  </outline>
</glyph>
<glyph name="l" format="1">
  <advance width="322"/>
  <unicode hex="006C"/>
  <outline>
    <contour>
      <point x="61" y="189" type="curve" smooth="yes"/>
      <point x="155" y="783" type="line"/>
      <point x="349" y="783" type="line"/>
      <point x="262" y="229" type="line" smooth="yes"/>
      <point x="251" y="160"/>
      <point x="264" y="146"/>
      <point x="284" y="134" type="curve"/>
      <point x="284" y="134"/>
      <point x="322" y="113"/>
      <point x="329" y="113" type="curve"/>
      <point x="311" y="0" type="line"/>
      <point x="203" y="0" type="line" smooth="yes"/>
      <point x="108" y="0"/>
      <point x="39" y="48"/>
    </contour>
  </outline>
</glyph>
<glyph name="m" format="1">
  <advance width="857"/>
  <unicode hex="006D"/>
  <outline>
    <contour>
      <point x="34" y="0" type="line"/>
      <point x="118" y="531" type="line"/>
      <point x="280" y="531" type="line"/>
      <point x="304" y="479" type="line"/>
      <point x="346" y="512"/>
      <point x="379" y="540"/>
      <point x="460" y="540" type="curve" smooth="yes"/>
      <point x="530" y="540"/>
      <point x="565" y="517"/>
      <point x="580" y="479" type="curve"/>
      <point x="628" y="507"/>
      <point x="685" y="540"/>
      <point x="762" y="540" type="curve" smooth="yes"/>
      <point x="900" y="540"/>
      <point x="902" y="452"/>
      <point x="884" y="340" type="curve" smooth="yes"/>
      <point x="830" y="0" type="line"/>
      <point x="636" y="0" type="line"/>
      <point x="691" y="344" type="line" smooth="yes"/>
      <point x="698" y="386"/>
      <point x="688" y="396"/>
      <point x="666" y="396" type="curve" smooth="yes"/>
      <point x="633" y="396"/>
      <point x="603" y="388"/>
      <point x="586" y="366" type="curve"/>
      <point x="585" y="358"/>
      <point x="583" y="349"/>
      <point x="582" y="340" type="curve" smooth="yes"/>
      <point x="528" y="0" type="line"/>
      <point x="334" y="0" type="line"/>
      <point x="388" y="344" type="line" smooth="yes"/>
      <point x="395" y="386"/>
      <point x="386" y="396"/>
      <point x="364" y="396" type="curve" smooth="yes"/>
      <point x="327" y="396"/>
      <point x="301" y="386"/>
      <point x="285" y="359" type="curve"/>
      <point x="228" y="0" type="line"/>
    </contour>
  </outline>
</glyph>
<glyph name="n" format="1">
  <advance width="555"/>
  <unicode hex="006E"/>
  <outline>
    <contour>
      <point x="34" y="0" type="line"/>
      <point x="118" y="531" type="line"/>
      <point x="280" y="531" type="line"/>
      <point x="304" y="479" type="line"/>
      <point x="342" y="510"/>
      <point x="379" y="540"/>
      <point x="460" y="540" type="curve" smooth="yes"/>
      <point x="598" y="540"/>
      <point x="600" y="452"/>
      <point x="582" y="340" type="curve" smooth="yes"/>
      <point x="528" y="0" type="line"/>
      <point x="334" y="0" type="line"/>
      <point x="388" y="344" type="line" smooth="yes"/>
      <point x="395" y="386"/>
      <point x="386" y="396"/>
      <point x="364" y="396" type="curve" smooth="yes"/>
      <point x="327" y="396"/>
      <point x="301" y="386"/>
      <point x="285" y="359" type="curve"/>
      <point x="228" y="0" type="line"/>
    </contour>
  </outline>
</glyph>
<glyph name="o" format="1">
  <advance width="566.0"/>
  <unicode hex="006F"/>
  <outline>
    <contour>
      <point x="269" y="258" type="curve" smooth="yes"/>
      <point x="252" y="153"/>
      <point x="254" y="139"/>
      <point x="305" y="139" type="curve" smooth="yes"/>
      <point x="360" y="139"/>
      <point x="361" y="147"/>
      <point x="379" y="258" type="curve" smooth="yes"/>
      <point x="397" y="373"/>
      <point x="401" y="395"/>
      <point x="345" y="395" type="curve" smooth="yes"/>
      <point x="286" y="395"/>
      <point x="287" y="372"/>
    </contour>
    <contour>
      <point x="75" y="283" type="curve" smooth="yes"/>
      <point x="109" y="500"/>
      <point x="184" y="539"/>
      <point x="368" y="539" type="curve" smooth="yes"/>
      <point x="554" y="539"/>
      <point x="606" y="444"/>
      <point x="573" y="233" type="curve" smooth="yes"/>
      <point x="542" y="36"/>
      <point x="473" y="-5"/>
      <point x="282" y="-5" type="curve" smooth="yes"/>
      <point x="95" y="-5"/>
      <point x="45" y="93"/>
    </contour>
  </outline>
</glyph>
<glyph name="p" format="1">
  <advance width="581.0"/>
  <unicode hex="0070"/>
  <outline>
    <contour>
      <point x="266" y="175" type="curve"/>
      <point x="297" y="372" type="line"/>
      <point x="354" y="372" type="line" smooth="yes"/>
      <point x="390" y="372"/>
      <point x="404" y="353"/>
      <point x="404" y="313" type="curve" smooth="yes"/>
      <point x="404" y="301"/>
      <point x="402" y="288"/>
      <point x="400" y="274" type="curve" smooth="yes"/>
      <point x="386" y="193"/>
      <point x="356" y="168"/>
      <point x="312" y="168" type="curve" smooth="yes"/>
      <point x="292" y="168"/>
      <point x="274" y="171"/>
    </contour>
    <contour>
      <point x="2" y="-270" type="line"/>
      <point x="196" y="-270" type="line"/>
      <point x="240" y="9" type="line"/>
      <point x="257" y="-1"/>
      <point x="296" y="-6"/>
      <point x="334" y="-6" type="curve" smooth="yes"/>
      <point x="452" y="-6"/>
      <point x="557" y="64"/>
      <point x="585" y="238" type="curve" smooth="yes"/>
      <point x="591" y="278"/>
      <point x="595" y="315"/>
      <point x="595" y="348" type="curve" smooth="yes"/>
      <point x="595" y="477"/>
      <point x="550" y="545"/>
      <point x="413" y="545" type="curve" smooth="yes"/>
      <point x="315" y="545"/>
      <point x="231" y="531"/>
      <point x="126" y="511" type="curve"/>
    </contour>
  </outline>
</glyph>
<glyph name="q" format="1">
  <advance width="554"/>
  <unicode hex="0071"/>
  <outline>
    <contour>
      <point x="265" y="275" type="curve" smooth="yes"/>
      <point x="247" y="163"/>
      <point x="247" y="130"/>
      <point x="299" y="130" type="curve" smooth="yes"/>
      <point x="319" y="130"/>
      <point x="337" y="134"/>
      <point x="351" y="149" type="curve"/>
      <point x="391" y="407" type="line"/>
      <point x="344" y="407" type="line" smooth="yes"/>
      <point x="286" y="407"/>
      <point x="275" y="335"/>
    </contour>
    <contour>
      <point x="70" y="298" type="curve" smooth="yes"/>
      <point x="102" y="498"/>
      <point x="190" y="541"/>
      <point x="315" y="541" type="curve" smooth="yes"/>
      <point x="421" y="541"/>
      <point x="550" y="527"/>
      <point x="601" y="505" type="curve"/>
      <point x="479" y="-270" type="line"/>
      <point x="285" y="-270" type="line"/>
      <point x="332" y="29" type="line"/>
      <point x="305" y="0"/>
      <point x="274" y="-10"/>
      <point x="229" y="-10" type="curve" smooth="yes"/>
      <point x="76" y="-10"/>
      <point x="40" y="106"/>
    </contour>
  </outline>
</glyph>
<glyph name="r" format="1">
  <advance width="431.0"/>
  <unicode hex="0072"/>
  <outline>
    <contour>
      <point x="45" y="0" type="line"/>
      <point x="239" y="0" type="line"/>
      <point x="288" y="310" type="line"/>
      <point x="311" y="329"/>
      <point x="352" y="346"/>
      <point x="408" y="346" type="curve" smooth="yes"/>
      <point x="466" y="346" type="line"/>
      <point x="495" y="540" type="line"/>
      <point x="480" y="544"/>
      <point x="467" y="545"/>
      <point x="449" y="545" type="curve" smooth="yes"/>
      <point x="390.7142857142857" y="545.0"/>
      <point x="348" y="510"/>
      <point x="313" y="467" type="curve"/>
      <point x="304" y="539" type="line"/>
      <point x="130" y="539" type="line"/>
    </contour>
    <contour>
      <point x="323" y="652" type="move" name="top"/>
    </contour>
    <contour>
      <point x="117" y="-150" type="move" name="bottom"/>
    </contour>
  </outline>
</glyph>
<glyph name="s" format="1">
  <advance width="510"/>
  <unicode hex="0073"/>
  <outline>
    <contour>
      <point x="49" y="22" type="line"/>
      <point x="115" y="4"/>
      <point x="214" y="-5"/>
      <point x="319" y="-5" type="curve" smooth="yes"/>
      <point x="421" y="-5"/>
      <point x="496" y="14"/>
      <point x="511" y="123" type="curve" smooth="yes"/>
      <point x="520" y="187" type="line" smooth="yes"/>
      <point x="531" y="266"/>
      <point x="506" y="351"/>
      <point x="377" y="351" type="curve" smooth="yes"/>
      <point x="284" y="351" type="line" smooth="yes"/>
      <point x="262" y="351"/>
      <point x="255" y="358"/>
      <point x="256" y="367" type="curve" smooth="yes"/>
      <point x="257" y="377" type="line" smooth="yes"/>
      <point x="258" y="391"/>
      <point x="268" y="395"/>
      <point x="291" y="395" type="curve" smooth="yes"/>
      <point x="522" y="395" type="line"/>
      <point x="541" y="519" type="line"/>
      <point x="495" y="532"/>
      <point x="388" y="545"/>
      <point x="298" y="545" type="curve" smooth="yes"/>
      <point x="142" y="545"/>
      <point x="94" y="495"/>
      <point x="83" y="413" type="curve" smooth="yes"/>
      <point x="77" y="370" type="line" smooth="yes"/>
      <point x="62" y="260"/>
      <point x="115" y="191"/>
      <point x="226" y="191" type="curve" smooth="yes"/>
      <point x="317" y="191" type="line" smooth="yes"/>
      <point x="333" y="191"/>
      <point x="342" y="189"/>
      <point x="341" y="177" type="curve" smooth="yes"/>
      <point x="340" y="163" type="line" smooth="yes"/>
      <point x="339" y="153"/>
      <point x="333" y="146"/>
      <point x="316" y="146" type="curve" smooth="yes"/>
      <point x="67" y="146" type="line"/>
    </contour>
  </outline>
</glyph>
<glyph name="t" format="1">
  <advance width="417.0"/>
  <unicode hex="0074"/>
  <note>
    GF Latin Plus glyph
  </note>
  <outline>
    <contour>
      <point x="66" y="385" type="line"/>
      <point x="149" y="385" type="line"/>
      <point x="118" y="225" type="line" smooth="yes"/>
      <point x="109.77315905553706" y="182.53888544793324"/>
      <point x="108.0" y="149.31683168316832"/>
      <point x="108" y="127" type="curve" smooth="yes"/>
      <point x="108.0" y="38.919354838709666"/>
      <point x="169.2" y="0"/>
      <point x="288" y="0" type="curve" smooth="yes"/>
      <point x="379" y="0" type="line"/>
      <point x="402" y="144" type="line"/>
      <point x="343" y="150" type="line" smooth="yes"/>
      <point x="316.30397970085323" y="152.71484952194712"/>
      <point x="304.0" y="159.42857142857142"/>
      <point x="304" y="183" type="curve" smooth="yes"/>
      <point x="304.0" y="194.56410256410257"/>
      <point x="307.64446451581324" y="215.6061071940744"/>
      <point x="309" y="224" type="curve" smooth="yes"/>
      <point x="335" y="385" type="line"/>
      <point x="444" y="385" type="line"/>
      <point x="468" y="539" type="line"/>
      <point x="359" y="539" type="line"/>
      <point x="383" y="690" type="line"/>
      <point x="229" y="690" type="line"/>
      <point x="181" y="539" type="line"/>
      <point x="86" y="509" type="line"/>
    </contour>
    <contour>
      <point x="388" y="650" type="move" name="altcaron"/>
    </contour>
    <contour>
      <point x="229" y="-150" type="move" name="bottom"/>
    </contour>
  </outline>
</glyph>
<glyph name="u" format="1">
  <advance width="601.0"/>
  <unicode hex="0075"/>
  <outline>
    <contour>
      <point x="72" y="191" type="line" smooth="yes"/>
      <point x="69" y="171"/>
      <point x="67" y="152"/>
      <point x="67" y="122" type="curve" smooth="yes"/>
      <point x="67" y="42"/>
      <point x="104" y="-6"/>
      <point x="196" y="-6" type="curve" smooth="yes"/>
      <point x="277" y="-6"/>
      <point x="316" y="13"/>
      <point x="370" y="52" type="curve"/>
      <point x="382" y="0" type="line"/>
      <point x="556" y="0" type="line"/>
      <point x="641" y="539" type="line"/>
      <point x="447" y="539" type="line"/>
      <point x="394" y="205" type="line"/>
      <point x="374" y="185"/>
      <point x="347" y="168"/>
      <point x="312" y="168" type="curve" smooth="yes"/>
      <point x="292" y="168"/>
      <point x="270" y="174"/>
      <point x="270" y="203" type="curve" smooth="yes"/>
      <point x="270" y="209"/>
      <point x="270" y="213"/>
      <point x="271" y="218" type="curve" smooth="yes"/>
      <point x="321" y="539" type="line"/>
      <point x="127" y="539" type="line"/>
    </contour>
  </outline>
</glyph>
<glyph name="v" format="1">
  <advance width="565.0"/>
  <unicode hex="0076"/>
  <outline>
    <contour>
      <point x="75" y="539" type="line"/>
      <point x="156" y="0" type="line"/>
      <point x="380" y="0" type="line"/>
      <point x="524" y="297" type="line" smooth="yes"/>
      <point x="559.2042172403746" y="369.6086980582727"/>
      <point x="600.0" y="456.0"/>
      <point x="603" y="547" type="curve"/>
      <point x="422" y="547" type="line"/>
      <point x="416.0" y="480.0"/>
      <point x="401.19982741279904" y="433.9210842423673"/>
      <point x="379" y="378" type="curve" smooth="yes"/>
      <point x="300" y="179" type="line"/>
      <point x="275" y="539" type="line"/>
    </contour>
  </outline>
</glyph>
<glyph name="w" format="1">
  <advance width="869.0"/>
  <unicode hex="0077"/>
  <note>
    GF Latin Plus glyph
  </note>
  <outline>
    <contour>
      <point x="75" y="539" type="line"/>
      <point x="152" y="0" type="line"/>
      <point x="357" y="0" type="line"/>
      <point x="456" y="222" type="line"/>
      <point x="491" y="0" type="line"/>
      <point x="696" y="0" type="line"/>
      <point x="856" y="326" type="line" smooth="yes"/>
      <point x="881" y="376"/>
      <point x="914" y="472"/>
      <point x="914" y="547" type="curve"/>
      <point x="722" y="547" type="line"/>
      <point x="718" y="497"/>
      <point x="696" y="425"/>
      <point x="687" y="395" type="curve" smooth="yes"/>
      <point x="619" y="179" type="line"/>
      <point x="563" y="539" type="line"/>
      <point x="440" y="539" type="line"/>
      <point x="299" y="179" type="line"/>
      <point x="275" y="539" type="line"/>
    </contour>
    <contour>
      <point x="513" y="650" type="move" name="top"/>
    </contour>
    <contour>
      <point x="387" y="-150" type="move" name="bottom"/>
    </contour>
  </outline>
</glyph>
<glyph name="x" format="1">
  <advance width="613"/>
  <unicode hex="0078"/>
  <outline>
    <contour>
      <point x="14" y="0" type="line"/>
      <point x="232" y="280" type="line"/>
      <point x="98" y="531" type="line"/>
      <point x="330" y="531" type="line"/>
      <point x="370" y="409" type="line"/>
      <point x="451" y="531" type="line"/>
      <point x="683" y="531" type="line"/>
      <point x="462" y="243" type="line"/>
      <point x="591" y="0" type="line"/>
      <point x="367" y="0" type="line"/>
      <point x="325" y="115" type="line"/>
      <point x="246" y="0" type="line"/>
    </contour>
  </outline>
</glyph>
<glyph name="y" format="1">
  <advance width="580.3184796557509"/>
  <unicode hex="0079"/>
  <outline>
    <contour>
      <point x="74" y="531" type="line"/>
      <point x="275" y="531" type="line"/>
      <point x="283" y="195" type="line" smooth="yes"/>
      <point x="284" y="164"/>
      <point x="304" y="157"/>
      <point x="320" y="156" type="curve"/>
      <point x="406" y="394" type="line" smooth="yes"/>
      <point x="416" y="422"/>
      <point x="427" y="466"/>
      <point x="432" y="532" type="curve"/>
      <point x="618" y="532" type="line"/>
      <point x="631" y="455"/>
      <point x="603" y="374"/>
      <point x="582" y="324" type="curve" smooth="yes"/>
      <point x="452" y="0" type="line"/>
      <point x="327" y="-292"/>
      <point x="141" y="-296"/>
      <point x="85" y="-304" type="curve"/>
      <point x="85" y="-168" type="line"/>
      <point x="181" y="-124"/>
      <point x="225" y="-74"/>
      <point x="262" y="0" type="curve"/>
      <point x="145" y="0"/>
      <point x="104" y="66"/>
      <point x="98" y="156" type="curve" smooth="yes"/>
    </contour>
  </outline>
</glyph>
<glyph name="z" format="1">
  <advance width="497.0"/>
  <unicode hex="007A"/>
  <outline>
    <contour>
      <point x="35" y="1" type="line"/>
      <point x="462" y="1" type="line"/>
      <point x="462" y="1"/>
      <point x="489" y="164"/>
      <point x="488" y="165" type="curve"/>
      <point x="291" y="165" type="line"/>
      <point x="523" y="385" type="line"/>
      <point x="547" y="539" type="line"/>
      <point x="121" y="539" type="line"/>
      <point x="95" y="375" type="line"/>
      <point x="307" y="375" type="line"/>
      <point x="59" y="153" type="line"/>
    </contour>
  </outline>
</glyph>
<glyph name="braceleft" format="1">
  <advance width="322"/>
  <unicode hex="007B"/>
  <note>
    GF Latin Plus glyph
  </note>
  <outline>
    <contour>
      <point x="50" y="245" type="line"/>
      <point x="63.333333333333336" y="245.0"/>
      <point x="101.0" y="233.41176470588235"/>
      <point x="101" y="204" type="curve" smooth="yes"/>
      <point x="101" y="200"/>
      <point x="101" y="196"/>
      <point x="100" y="192" type="curve" smooth="yes"/>
      <point x="64" y="-38" type="line" smooth="yes"/>
      <point x="62" y="-53"/>
      <point x="60" y="-67"/>
      <point x="60" y="-80" type="curve" smooth="yes"/>
      <point x="60" y="-173"/>
      <point x="123" y="-210"/>
      <point x="278" y="-210" type="curve"/>
      <point x="301" y="-66" type="line"/>
      <point x="271" y="-66"/>
      <point x="262" y="-53"/>
      <point x="262" y="-26" type="curve" smooth="yes"/>
      <point x="262" y="-11"/>
      <point x="265" y="8"/>
      <point x="269" y="32" type="curve" smooth="yes"/>
      <point x="301" y="231" type="line" smooth="yes"/>
      <point x="302" y="237"/>
      <point x="302" y="243"/>
      <point x="302" y="249" type="curve" smooth="yes"/>
      <point x="302" y="290"/>
      <point x="276" y="320"/>
      <point x="226" y="331" type="curve"/>
      <point x="280" y="345"/>
      <point x="325" y="373"/>
      <point x="335" y="440" type="curve" smooth="yes"/>
      <point x="356" y="576" type="line" smooth="yes"/>
      <point x="371" y="667"/>
      <point x="378" y="688"/>
      <point x="420" y="688" type="curve"/>
      <point x="444" y="842" type="line"/>
      <point x="280" y="842"/>
      <point x="194" y="776"/>
      <point x="175" y="656" type="curve" smooth="yes"/>
      <point x="146" y="475" type="line" smooth="yes"/>
      <point x="140" y="437"/>
      <point x="111" y="425"/>
      <point x="78" y="422" type="curve"/>
    </contour>
  </outline>
</glyph>
<glyph name="bar" format="1">
  <advance width="250"/>
  <unicode hex="007C"/>
  <outline>
    <contour>
      <point x="36" y="-72" type="line"/>
      <point x="190" y="-72" type="line"/>
      <point x="323" y="770" type="line"/>
      <point x="169" y="770" type="line"/>
    </contour>
  </outline>
</glyph>
<glyph name="braceright" format="1">
  <advance width="322"/>
  <unicode hex="007D"/>
  <note>
    GF Latin Plus glyph
  </note>
  <outline>
    <contour>
      <point x="372" y="387" type="line"/>
      <point x="359" y="387"/>
      <point x="321" y="399"/>
      <point x="321" y="428" type="curve" smooth="yes"/>
      <point x="321" y="432"/>
      <point x="321" y="436"/>
      <point x="322" y="440" type="curve" smooth="yes"/>
      <point x="358" y="670" type="line" smooth="yes"/>
      <point x="360" y="685"/>
      <point x="362" y="699"/>
      <point x="362" y="712" type="curve" smooth="yes"/>
      <point x="362" y="805"/>
      <point x="299" y="842"/>
      <point x="144" y="842" type="curve"/>
      <point x="121" y="698" type="line"/>
      <point x="151" y="698"/>
      <point x="160" y="685"/>
      <point x="160" y="658" type="curve" smooth="yes"/>
      <point x="160" y="643"/>
      <point x="157" y="624"/>
      <point x="153" y="600" type="curve" smooth="yes"/>
      <point x="121" y="401" type="line" smooth="yes"/>
      <point x="120" y="395"/>
      <point x="120" y="389"/>
      <point x="120" y="383" type="curve" smooth="yes"/>
      <point x="120" y="342"/>
      <point x="146" y="312"/>
      <point x="196" y="301" type="curve"/>
      <point x="142" y="287"/>
      <point x="97" y="259"/>
      <point x="87" y="192" type="curve" smooth="yes"/>
      <point x="66" y="56" type="line" smooth="yes"/>
      <point x="51" y="-35"/>
      <point x="44" y="-56"/>
      <point x="2" y="-56" type="curve"/>
      <point x="-22" y="-210" type="line"/>
      <point x="142" y="-210"/>
      <point x="228" y="-144"/>
      <point x="247" y="-24" type="curve" smooth="yes"/>
      <point x="276" y="157" type="line" smooth="yes"/>
      <point x="282" y="195"/>
      <point x="311" y="207"/>
      <point x="344" y="210" type="curve"/>
    </contour>
  </outline>
</glyph>
<glyph name="asciitilde" format="1">
  <advance width="403"/>
  <unicode hex="007E"/>
  <outline>
    <contour>
      <point x="122" y="598" type="line"/>
      <point x="153" y="634"/>
      <point x="201" y="672"/>
      <point x="257" y="672" type="curve" smooth="yes"/>
      <point x="301" y="672"/>
      <point x="317" y="637"/>
      <point x="357" y="637" type="curve"/>
      <point x="397" y="635"/>
      <point x="431" y="654"/>
      <point x="457" y="677" type="curve"/>
      <point x="471" y="603" type="line"/>
      <point x="444" y="570"/>
      <point x="398" y="531"/>
      <point x="347" y="531" type="curve" smooth="yes"/>
      <point x="304" y="531"/>
      <point x="276" y="566"/>
      <point x="237" y="566" type="curve" smooth="yes"/>
      <point x="198" y="566"/>
      <point x="173" y="555"/>
      <point x="138" y="531" type="curve"/>
    </contour>
  </outline>
</glyph>
<glyph name="exclamdown" format="1">
  <advance width="281"/>
  <unicode hex="00A1"/>
  <outline>
    <contour>
      <point x="110" y="323" type="curve" smooth="yes"/>
      <point x="128" y="438" type="line" smooth="yes"/>
      <point x="130" y="452"/>
      <point x="142" y="460"/>
      <point x="156" y="461" type="curve"/>
      <point x="270" y="461" type="line"/>
      <point x="282" y="460"/>
      <point x="292" y="449"/>
      <point x="290" y="435" type="curve" smooth="yes"/>
      <point x="272" y="323" type="line" smooth="yes"/>
      <point x="270" y="310"/>
      <point x="263" y="296"/>
      <point x="246" y="296" type="curve" smooth="yes"/>
      <point x="130" y="296" type="line" smooth="yes"/>
      <point x="117" y="296"/>
      <point x="107" y="304"/>
    </contour>
    <contour>
      <point x="4" y="-270" type="line"/>
      <point x="109" y="265" type="line"/>
      <point x="256" y="265" type="line"/>
      <point x="190" y="-270" type="line"/>
    </contour>
  </outline>
</glyph>
<glyph name="cent" format="1">
  <advance width="483"/>
  <unicode hex="00A2"/>
  <outline>
    <contour>
      <point x="64" y="296" type="curve" smooth="yes"/>
      <point x="97" y="504"/>
      <point x="179" y="536"/>
      <point x="281" y="536" type="curve"/>
      <point x="297" y="634" type="line"/>
      <point x="405" y="634" type="line"/>
      <point x="389" y="534" type="line"/>
      <point x="434" y="530"/>
      <point x="485" y="521"/>
      <point x="534" y="500" type="curve"/>
      <point x="516" y="386" type="line"/>
      <point x="516" y="386"/>
      <point x="457" y="392"/>
      <point x="368" y="392" type="curve" smooth="yes"/>
      <point x="300" y="392"/>
      <point x="278" y="394"/>
      <point x="257" y="264" type="curve" smooth="yes"/>
      <point x="238" y="142"/>
      <point x="255" y="139"/>
      <point x="327" y="139" type="curve" smooth="yes"/>
      <point x="419" y="139"/>
      <point x="485" y="147"/>
      <point x="485" y="147" type="curve"/>
      <point x="467" y="33" type="line"/>
      <point x="416" y="1"/>
      <point x="356" y="-6"/>
      <point x="299" y="-6" type="curve"/>
      <point x="285" y="-95" type="line"/>
      <point x="177" y="-95" type="line"/>
      <point x="192" y="-5" type="line"/>
      <point x="95" y="-3"/>
      <point x="32" y="91"/>
    </contour>
  </outline>
</glyph>
<glyph name="sterling" format="1">
  <advance width="572"/>
  <unicode hex="00A3"/>
  <outline>
    <contour>
      <point x="28" y="0" type="line"/>
      <point x="52" y="149" type="line"/>
      <point x="118" y="174" type="line"/>
      <point x="138" y="300" type="line"/>
      <point x="76" y="300" type="line"/>
      <point x="91" y="395" type="line"/>
      <point x="157" y="422" type="line"/>
      <point x="169" y="495" type="line"/>
      <point x="205" y="722"/>
      <point x="306" y="732"/>
      <point x="484" y="732" type="curve" smooth="yes"/>
      <point x="541" y="732"/>
      <point x="657" y="716"/>
      <point x="657" y="716" type="curve"/>
      <point x="633" y="559" type="line"/>
      <point x="449" y="559" type="line" smooth="yes"/>
      <point x="391" y="559"/>
      <point x="371" y="552"/>
      <point x="361" y="487" type="curve" smooth="yes"/>
      <point x="351" y="422" type="line"/>
      <point x="529" y="405" type="line"/>
      <point x="513" y="300" type="line"/>
      <point x="332" y="300" type="line"/>
      <point x="312" y="174" type="line"/>
      <point x="571" y="174" type="line"/>
      <point x="543" y="0" type="line"/>
    </contour>
  </outline>
</glyph>
<glyph name="currency" format="1">
  <advance width="436"/>
  <unicode hex="00A4"/>
  <outline>
    <contour>
      <point x="206" y="309" type="curve" smooth="yes"/>
      <point x="200" y="274"/>
      <point x="224" y="246"/>
      <point x="259" y="246" type="curve" smooth="yes"/>
      <point x="294" y="246"/>
      <point x="326" y="274"/>
      <point x="332" y="309" type="curve" smooth="yes"/>
      <point x="338" y="344"/>
      <point x="314" y="373"/>
      <point x="279" y="373" type="curve" smooth="yes"/>
      <point x="244" y="373"/>
      <point x="212" y="344"/>
    </contour>
    <contour>
      <point x="61" y="182" type="line"/>
      <point x="119" y="233" type="line"/>
      <point x="111" y="256"/>
      <point x="107" y="281"/>
      <point x="111" y="309" type="curve" smooth="yes"/>
      <point x="115" y="335"/>
      <point x="126" y="360"/>
      <point x="140" y="381" type="curve"/>
      <point x="96" y="429" type="line"/>
      <point x="160" y="488" type="line"/>
      <point x="202" y="441" type="line"/>
      <point x="230" y="458"/>
      <point x="262" y="468"/>
      <point x="294" y="468" type="curve" smooth="yes"/>
      <point x="324" y="468"/>
      <point x="350" y="459"/>
      <point x="372" y="444" type="curve"/>
      <point x="425" y="492" type="line"/>
      <point x="478" y="439" type="line"/>
      <point x="419" y="387" type="line"/>
      <point x="428" y="364"/>
      <point x="431" y="337"/>
      <point x="427" y="309" type="curve" smooth="yes"/>
      <point x="421" y="274"/>
      <point x="405" y="242"/>
      <point x="382" y="216" type="curve"/>
      <point x="421" y="173" type="line"/>
      <point x="359" y="112" type="line"/>
      <point x="311" y="165" type="line"/>
      <point x="290" y="156"/>
      <point x="267" y="151"/>
      <point x="244" y="151" type="curve" smooth="yes"/>
      <point x="214" y="151"/>
      <point x="187" y="160"/>
      <point x="165" y="175" type="curve"/>
      <point x="111" y="126" type="line"/>
    </contour>
  </outline>
</glyph>
<glyph name="yen" format="1">
  <advance width="662"/>
  <unicode hex="00A5"/>
  <outline>
    <contour>
      <point x="130" y="128" type="line"/>
      <point x="146" y="227" type="line"/>
      <point x="261" y="227" type="line"/>
      <point x="265" y="252" type="line"/>
      <point x="150" y="252" type="line"/>
      <point x="166" y="351" type="line"/>
      <point x="219" y="351" type="line"/>
      <point x="126" y="732" type="line"/>
      <point x="337" y="732" type="line"/>
      <point x="382" y="408" type="line"/>
      <point x="535" y="732" type="line"/>
      <point x="766" y="732" type="line"/>
      <point x="539" y="351" type="line"/>
      <point x="593" y="351" type="line"/>
      <point x="577" y="252" type="line"/>
      <point x="459" y="252" type="line"/>
      <point x="455" y="227" type="line"/>
      <point x="573" y="227" type="line"/>
      <point x="557" y="128" type="line"/>
      <point x="439" y="128" type="line"/>
      <point x="419" y="0" type="line"/>
      <point x="225" y="0" type="line"/>
      <point x="245" y="128" type="line"/>
    </contour>
  </outline>
</glyph>
<glyph name="brokenbar" format="1">
  <advance width="250"/>
  <unicode hex="00A6"/>
  <note>
    GF Latin Plus glyph
  </note>
  <outline>
    <contour>
      <point x="116" y="429" type="line"/>
      <point x="270" y="429" type="line"/>
      <point x="324" y="770" type="line"/>
      <point x="170" y="770" type="line"/>
    </contour>
    <contour>
      <point x="37" y="-72" type="line"/>
      <point x="191" y="-72" type="line"/>
      <point x="243" y="256" type="line"/>
      <point x="89" y="256" type="line"/>
    </contour>
  </outline>
</glyph>
<glyph name="section" format="1">
  <advance width="532"/>
  <unicode hex="00A7"/>
  <note>
    GF Latin Plus glyph
  </note>
  <outline>
    <contour>
      <point x="275" y="373" type="curve" smooth="yes"/>
      <point x="280" y="401" type="line" smooth="yes"/>
      <point x="282" y="419"/>
      <point x="294" y="430"/>
      <point x="319" y="430" type="curve" smooth="yes"/>
      <point x="349" y="430" type="line" smooth="yes"/>
      <point x="372" y="430"/>
      <point x="383" y="423"/>
      <point x="383" y="408" type="curve" smooth="yes"/>
      <point x="383" y="407"/>
      <point x="383" y="405"/>
      <point x="383" y="403" type="curve" smooth="yes"/>
      <point x="378" y="374" type="line" smooth="yes"/>
      <point x="374" y="348"/>
      <point x="360" y="344"/>
      <point x="335" y="344" type="curve" smooth="yes"/>
      <point x="305" y="344" type="line" smooth="yes"/>
      <point x="287" y="344"/>
      <point x="275" y="352"/>
      <point x="275" y="368" type="curve" smooth="yes"/>
      <point x="275" y="369"/>
      <point x="275" y="371"/>
    </contour>
    <contour>
      <point x="83" y="323" type="line" smooth="yes"/>
      <point x="82" y="314"/>
      <point x="81" y="305"/>
      <point x="81" y="297" type="curve" smooth="yes"/>
      <point x="81" y="222"/>
      <point x="142" y="200"/>
      <point x="233" y="200" type="curve" smooth="yes"/>
      <point x="313" y="200" type="line" smooth="yes"/>
      <point x="331" y="200"/>
      <point x="338" y="196"/>
      <point x="338" y="188" type="curve" smooth="yes"/>
      <point x="338" y="186"/>
      <point x="337" y="177"/>
      <point x="335" y="167" type="curve" smooth="yes"/>
      <point x="332" y="153"/>
      <point x="325" y="148"/>
      <point x="295" y="148" type="curve" smooth="yes"/>
      <point x="91" y="148" type="line"/>
      <point x="70" y="11" type="line"/>
      <point x="141" y="-3"/>
      <point x="233" y="-6"/>
      <point x="313" y="-6" type="curve" smooth="yes"/>
      <point x="423" y="-6"/>
      <point x="503" y="31"/>
      <point x="523" y="160" type="curve" smooth="yes"/>
      <point x="530" y="203" type="line" smooth="yes"/>
      <point x="532" y="213"/>
      <point x="533" y="223"/>
      <point x="533" y="233" type="curve" smooth="yes"/>
      <point x="533" y="275"/>
      <point x="516" y="303"/>
      <point x="481" y="315" type="curve"/>
      <point x="534" y="336"/>
      <point x="563" y="379"/>
      <point x="569" y="418" type="curve" smooth="yes"/>
      <point x="574" y="450" type="line" smooth="yes"/>
      <point x="576" y="460"/>
      <point x="577" y="469"/>
      <point x="577" y="477" type="curve" smooth="yes"/>
      <point x="577" y="548"/>
      <point x="522" y="575"/>
      <point x="421" y="575" type="curve" smooth="yes"/>
      <point x="344" y="575" type="line" smooth="yes"/>
      <point x="323" y="575"/>
      <point x="319" y="582"/>
      <point x="319" y="591" type="curve" smooth="yes"/>
      <point x="319" y="593"/>
      <point x="319.6712020253893" y="598.0272121523357"/>
      <point x="321" y="606" type="curve" smooth="yes"/>
      <point x="323" y="620"/>
      <point x="332" y="630"/>
      <point x="361" y="630" type="curve" smooth="yes"/>
      <point x="565" y="630" type="line"/>
      <point x="586" y="764" type="line"/>
      <point x="529" y="779"/>
      <point x="423" y="784"/>
      <point x="355" y="784" type="curve" smooth="yes"/>
      <point x="217" y="784"/>
      <point x="155" y="718"/>
      <point x="142" y="638" type="curve" smooth="yes"/>
      <point x="134" y="590" type="line" smooth="yes"/>
      <point x="132" y="576"/>
      <point x="131" y="562"/>
      <point x="131" y="549" type="curve" smooth="yes"/>
      <point x="131" y="510"/>
      <point x="143" y="479"/>
      <point x="179" y="459" type="curve"/>
      <point x="122" y="438"/>
      <point x="97" y="411"/>
      <point x="88" y="355" type="curve" smooth="yes"/>
    </contour>
  </outline>
</glyph>
<glyph name="dieresis" format="1">
  <advance width="390.0"/>
  <unicode hex="00A8"/>
  <outline>
    <contour>
      <point x="131" y="650" type="line" smooth="yes"/>
      <point x="131" y="649"/>
      <point x="131" y="647"/>
      <point x="131" y="646" type="curve" smooth="yes"/>
      <point x="131" y="634"/>
      <point x="139" y="627"/>
      <point x="151" y="627" type="curve" smooth="yes"/>
      <point x="241" y="627" type="line" smooth="yes"/>
      <point x="255" y="627"/>
      <point x="266" y="635"/>
      <point x="268" y="650" type="curve" smooth="yes"/>
      <point x="286" y="761" type="line" smooth="yes"/>
      <point x="286" y="763"/>
      <point x="286" y="765"/>
      <point x="286" y="766" type="curve" smooth="yes"/>
      <point x="286" y="778"/>
      <point x="280" y="786"/>
      <point x="266" y="786" type="curve" smooth="yes"/>
      <point x="176" y="786" type="line" smooth="yes"/>
      <point x="160" y="786"/>
      <point x="151" y="776"/>
      <point x="149" y="761" type="curve" smooth="yes"/>
    </contour>
    <contour>
      <point x="328" y="650" type="line" smooth="yes"/>
      <point x="328" y="649"/>
      <point x="328" y="647"/>
      <point x="328" y="646" type="curve" smooth="yes"/>
      <point x="328" y="634"/>
      <point x="336" y="627"/>
      <point x="348" y="627" type="curve" smooth="yes"/>
      <point x="438" y="627" type="line" smooth="yes"/>
      <point x="452" y="627"/>
      <point x="463" y="635"/>
      <point x="465" y="650" type="curve" smooth="yes"/>
      <point x="483" y="761" type="line" smooth="yes"/>
      <point x="483" y="763"/>
      <point x="483" y="765"/>
      <point x="483" y="766" type="curve" smooth="yes"/>
      <point x="483" y="778"/>
      <point x="477" y="786"/>
      <point x="463" y="786" type="curve" smooth="yes"/>
      <point x="373" y="786" type="line" smooth="yes"/>
      <point x="357" y="786"/>
      <point x="348" y="776"/>
      <point x="346" y="761" type="curve" smooth="yes"/>
    </contour>
  </outline>
</glyph>
<glyph name="copyright" format="1">
  <advance width="791"/>
  <unicode hex="00A9"/>
  <outline>
    <contour>
      <point x="274" y="382" type="curve" smooth="yes"/>
      <point x="300" y="543"/>
      <point x="362" y="583"/>
      <point x="452" y="583" type="curve" smooth="yes"/>
      <point x="493" y="583"/>
      <point x="581" y="581"/>
      <point x="636" y="559" type="curve"/>
      <point x="622" y="467" type="line"/>
      <point x="560" y="476"/>
      <point x="509" y="479"/>
      <point x="476" y="479" type="curve" smooth="yes"/>
      <point x="422" y="479"/>
      <point x="402" y="457"/>
      <point x="387" y="362" type="curve" smooth="yes"/>
      <point x="374" y="278"/>
      <point x="398" y="251"/>
      <point x="447" y="251" type="curve" smooth="yes"/>
      <point x="506" y="251"/>
      <point x="555" y="259"/>
      <point x="596" y="267" type="curve"/>
      <point x="582" y="175" type="line"/>
      <point x="526" y="147"/>
      <point x="459" y="147"/>
      <point x="392" y="147" type="curve" smooth="yes"/>
      <point x="313" y="147"/>
      <point x="246" y="205"/>
    </contour>
    <contour>
      <point x="202" y="368" type="curve" smooth="yes"/>
      <point x="177" y="209"/>
      <point x="209" y="104"/>
      <point x="323" y="104" type="curve" smooth="yes"/>
      <point x="513" y="104" type="line" smooth="yes"/>
      <point x="603" y="104"/>
      <point x="673" y="164"/>
      <point x="705" y="368" type="curve" smooth="yes"/>
      <point x="724" y="488"/>
      <point x="737" y="628"/>
      <point x="606" y="628" type="curve" smooth="yes"/>
      <point x="406" y="628" type="line" smooth="yes"/>
      <point x="317" y="628"/>
      <point x="236" y="583"/>
    </contour>
    <contour>
      <point x="88" y="388" type="curve" smooth="yes"/>
      <point x="119" y="583"/>
      <point x="192" y="732"/>
      <point x="421" y="732" type="curve" smooth="yes"/>
      <point x="621" y="732" type="line" smooth="yes"/>
      <point x="824" y="732"/>
      <point x="853" y="553"/>
      <point x="819" y="338" type="curve" smooth="yes"/>
      <point x="778" y="79"/>
      <point x="661" y="0"/>
      <point x="510" y="0" type="curve" smooth="yes"/>
      <point x="310" y="0" type="line" smooth="yes"/>
      <point x="117" y="0"/>
      <point x="53" y="167"/>
    </contour>
  </outline>
</glyph>
<glyph name="ordfeminine" format="1">
  <advance width="360"/>
  <unicode hex="00AA"/>
  <outline>
    <contour>
      <point x="213" y="567" type="curve" smooth="yes"/>
      <point x="206" y="523"/>
      <point x="196" y="481"/>
      <point x="233" y="481" type="curve" smooth="yes"/>
      <point x="261" y="481"/>
      <point x="285" y="492"/>
      <point x="287" y="512" type="curve" smooth="yes"/>
      <point x="305" y="632" type="line"/>
      <point x="297" y="638"/>
      <point x="272" y="638"/>
      <point x="259" y="635" type="curve" smooth="yes"/>
      <point x="240" y="631"/>
      <point x="221" y="621"/>
    </contour>
    <contour>
      <point x="86" y="583" type="curve"/>
      <point x="118" y="732"/>
      <point x="202" y="734"/>
      <point x="272" y="734" type="curve" smooth="yes"/>
      <point x="327" y="734"/>
      <point x="410" y="726"/>
      <point x="444" y="693" type="curve"/>
      <point x="397" y="370" type="line"/>
      <point x="295" y="370" type="line"/>
      <point x="275" y="412" type="line"/>
      <point x="259" y="376"/>
      <point x="207" y="365"/>
      <point x="172" y="365" type="curve" smooth="yes"/>
      <point x="108" y="365"/>
      <point x="54" y="448"/>
    </contour>
    <contour>
      <point x="57" y="258" type="line"/>
      <point x="69" y="336" type="line"/>
      <point x="404" y="336" type="line"/>
      <point x="392" y="258" type="line"/>
    </contour>
  </outline>
</glyph>
<glyph name="guillemotleft" format="1">
  <advance width="596"/>
  <unicode hex="00AB"/>
  <outline>
    <contour>
      <point x="320" y="354" type="line"/>
      <point x="558" y="557" type="line"/>
      <point x="640" y="462" type="line"/>
      <point x="503" y="344" type="line"/>
      <point x="607" y="224" type="line"/>
      <point x="498" y="146" type="line"/>
    </contour>
    <contour>
      <point x="84" y="354" type="line"/>
      <point x="322" y="557" type="line"/>
      <point x="404" y="462" type="line"/>
      <point x="267" y="344" type="line"/>
      <point x="371" y="224" type="line"/>
      <point x="262" y="146" type="line"/>
    </contour>
  </outline>
</glyph>
<glyph name="logicalnot" format="1">
  <advance width="466"/>
  <unicode hex="00AC"/>
  <outline>
    <contour>
      <point x="55" y="226" type="line"/>
      <point x="78" y="370" type="line"/>
      <point x="505" y="370" type="line"/>
      <point x="496" y="313"/>
      <point x="480" y="216"/>
      <point x="471" y="159" type="curve"/>
      <point x="327" y="159" type="line"/>
      <point x="338" y="226" type="line"/>
    </contour>
  </outline>
</glyph>
<glyph name="registered" format="1">
  <advance width="791"/>
  <unicode hex="00AE"/>
  <outline>
    <contour>
      <point x="412" y="399" type="line"/>
      <point x="451" y="399" type="line" smooth="yes"/>
      <point x="503" y="399"/>
      <point x="506" y="403"/>
      <point x="512" y="441" type="curve" smooth="yes"/>
      <point x="517" y="473"/>
      <point x="508" y="476"/>
      <point x="463" y="476" type="curve" smooth="yes"/>
      <point x="424" y="476" type="line"/>
    </contour>
    <contour>
      <point x="259" y="153" type="line"/>
      <point x="327" y="580" type="line"/>
      <point x="514" y="580" type="line" smooth="yes"/>
      <point x="580" y="580"/>
      <point x="644" y="553"/>
      <point x="626" y="442" type="curve" smooth="yes"/>
      <point x="614" y="365"/>
      <point x="589" y="327"/>
      <point x="541" y="311" type="curve"/>
      <point x="600" y="153" type="line"/>
      <point x="479" y="153" type="line"/>
      <point x="426" y="303" type="line"/>
      <point x="399" y="315" type="line"/>
      <point x="373" y="153" type="line"/>
    </contour>
    <contour>
      <point x="202" y="368" type="curve" smooth="yes"/>
      <point x="177" y="209"/>
      <point x="209" y="104"/>
      <point x="323" y="104" type="curve" smooth="yes"/>
      <point x="513" y="104" type="line" smooth="yes"/>
      <point x="603" y="104"/>
      <point x="673" y="164"/>
      <point x="705" y="368" type="curve" smooth="yes"/>
      <point x="724" y="488"/>
      <point x="737" y="628"/>
      <point x="606" y="628" type="curve" smooth="yes"/>
      <point x="406" y="628" type="line" smooth="yes"/>
      <point x="317" y="628"/>
      <point x="236" y="583"/>
    </contour>
    <contour>
      <point x="88" y="388" type="curve" smooth="yes"/>
      <point x="119" y="583"/>
      <point x="192" y="732"/>
      <point x="421" y="732" type="curve" smooth="yes"/>
      <point x="621" y="732" type="line" smooth="yes"/>
      <point x="824" y="732"/>
      <point x="853" y="553"/>
      <point x="819" y="338" type="curve" smooth="yes"/>
      <point x="778" y="79"/>
      <point x="661" y="0"/>
      <point x="510" y="0" type="curve" smooth="yes"/>
      <point x="310" y="0" type="line" smooth="yes"/>
      <point x="117" y="0"/>
      <point x="53" y="167"/>
    </contour>
  </outline>
</glyph>
<glyph name="macron" format="1">
  <advance width="348"/>
  <unicode hex="00AF"/>
  <outline>
    <contour>
      <point x="112" y="531" type="line"/>
      <point x="127" y="624" type="line"/>
      <point x="419" y="624" type="line"/>
      <point x="404" y="531" type="line"/>
    </contour>
  </outline>
</glyph>
<glyph name="degree" format="1">
  <advance width="256"/>
  <unicode hex="00B0"/>
  <outline>
    <contour>
      <point x="192" y="632" type="curve" smooth="yes"/>
      <point x="190" y="612"/>
      <point x="205" y="597"/>
      <point x="225" y="597" type="curve" smooth="yes"/>
      <point x="245" y="597"/>
      <point x="261" y="612"/>
      <point x="263" y="632" type="curve" smooth="yes"/>
      <point x="265" y="652"/>
      <point x="252" y="668"/>
      <point x="232" y="668" type="curve" smooth="yes"/>
      <point x="212" y="668"/>
      <point x="194" y="652"/>
    </contour>
    <contour>
      <point x="126" y="632" type="curve" smooth="yes"/>
      <point x="131" y="689"/>
      <point x="180" y="731"/>
      <point x="236" y="731" type="curve" smooth="yes"/>
      <point x="292" y="731"/>
      <point x="334" y="689"/>
      <point x="329" y="632" type="curve" smooth="yes"/>
      <point x="324" y="575"/>
      <point x="276" y="535"/>
      <point x="220" y="535" type="curve" smooth="yes"/>
      <point x="164" y="535"/>
      <point x="121" y="575"/>
    </contour>
  </outline>
</glyph>
<glyph name="plusminus" format="1">
  <advance width="480"/>
  <unicode hex="00B1"/>
  <outline>
    <contour>
      <point x="93" y="377" type="line"/>
      <point x="117" y="531" type="line"/>
      <point x="247" y="531" type="line"/>
      <point x="268" y="662" type="line"/>
      <point x="422" y="662" type="line"/>
      <point x="401" y="531" type="line"/>
      <point x="533" y="531" type="line"/>
      <point x="509" y="377" type="line"/>
      <point x="377" y="377" type="line"/>
      <point x="356" y="246" type="line"/>
      <point x="202" y="246" type="line"/>
      <point x="223" y="377" type="line"/>
    </contour>
    <contour>
      <point x="41" y="57" type="line"/>
      <point x="65" y="211" type="line"/>
      <point x="481" y="211" type="line"/>
      <point x="457" y="57" type="line"/>
    </contour>
  </outline>
</glyph>
<glyph name="twosuperior" format="1">
  <advance width="393"/>
  <unicode hex="00B2"/>
  <note>
    GF Latin Plus glyph
  </note>
  <outline>
    <contour>
      <point x="143.0" y="703" type="line"/>
      <point x="294.0" y="703" type="line" smooth="yes"/>
      <point x="298.0" y="703"/>
      <point x="306.0" y="699"/>
      <point x="306.0" y="683" type="curve" smooth="yes"/>
      <point x="306.0" y="665"/>
      <point x="293.0" y="642"/>
      <point x="273.0" y="623" type="curve" smooth="yes"/>
      <point x="102.0" y="474" type="line"/>
      <point x="83.0" y="355" type="line"/>
      <point x="431.0" y="355" type="line"/>
      <point x="453.0" y="490" type="line"/>
      <point x="318.0" y="490" type="line"/>
      <point x="394.0" y="558" type="line" smooth="yes"/>
      <point x="446.0" y="604"/>
      <point x="462.0" y="660"/>
      <point x="461.0" y="729" type="curve" smooth="yes"/>
      <point x="461.0" y="796"/>
      <point x="424.0" y="846"/>
      <point x="324.0" y="846" type="curve" smooth="yes"/>
      <point x="253.0" y="846"/>
      <point x="204.0" y="833"/>
      <point x="162.0" y="823" type="curve"/>
    </contour>
  </outline>
</glyph>
<glyph name="threesuperior" format="1">
  <advance width="410"/>
  <unicode hex="00B3"/>
  <outline>
    <contour>
      <point x="63" y="371" type="curve"/>
      <point x="81" y="481" type="line"/>
      <point x="227" y="481" type="line" smooth="yes"/>
      <point x="279" y="481"/>
      <point x="293" y="482"/>
      <point x="296" y="505" type="curve"/>
      <point x="297" y="510" type="line"/>
      <point x="300" y="532"/>
      <point x="282" y="533"/>
      <point x="239" y="535" type="curve" smooth="yes"/>
      <point x="131" y="539" type="line"/>
      <point x="149" y="658" type="line"/>
      <point x="260" y="662" type="line" smooth="yes"/>
      <point x="306" y="664"/>
      <point x="323" y="663"/>
      <point x="326" y="685" type="curve"/>
      <point x="326" y="689" type="line"/>
      <point x="331" y="713"/>
      <point x="303" y="713"/>
      <point x="268" y="713" type="curve" smooth="yes"/>
      <point x="113" y="713" type="line"/>
      <point x="130" y="822" type="line"/>
      <point x="195" y="845"/>
      <point x="281" y="846"/>
      <point x="363" y="844" type="curve" smooth="yes"/>
      <point x="440" y="843"/>
      <point x="488" y="787"/>
      <point x="475" y="708" type="curve" smooth="yes"/>
      <point x="471" y="682" type="line" smooth="yes"/>
      <point x="463" y="633"/>
      <point x="438" y="604"/>
      <point x="393" y="598" type="curve"/>
      <point x="441" y="586"/>
      <point x="448" y="533"/>
      <point x="440" y="482" type="curve"/>
      <point x="436" y="462" type="line"/>
      <point x="423" y="381"/>
      <point x="365" y="350"/>
      <point x="280" y="350" type="curve" smooth="yes"/>
      <point x="200" y="350"/>
      <point x="120" y="348"/>
    </contour>
  </outline>
</glyph>
<glyph name="acute" format="1">
  <advance width="244"/>
  <unicode hex="00B4"/>
  <outline>
    <contour>
      <point x="95" y="531" type="line"/>
      <point x="195" y="674" type="line"/>
      <point x="340" y="674" type="line"/>
      <point x="204" y="531" type="line"/>
    </contour>
  </outline>
</glyph>
<glyph name="uni00B5" format="1">
  <advance width="583"/>
  <unicode hex="00B5"/>
  <outline>
    <contour>
      <point x="8" y="-270" type="line"/>
      <point x="81" y="191" type="line"/>
      <point x="135" y="531" type="line"/>
      <point x="329" y="531" type="line"/>
      <point x="274" y="187" type="line" smooth="yes"/>
      <point x="267" y="145"/>
      <point x="277" y="135"/>
      <point x="299" y="135" type="curve" smooth="yes"/>
      <point x="336" y="135"/>
      <point x="362" y="145"/>
      <point x="378" y="172" type="curve"/>
      <point x="435" y="531" type="line"/>
      <point x="629" y="531" type="line"/>
      <point x="545" y="0" type="line"/>
      <point x="383" y="0" type="line"/>
      <point x="359" y="52" type="line"/>
      <point x="330" y="35"/>
      <point x="309" y="18"/>
      <point x="282" y="6" type="curve" smooth="yes"/>
      <point x="271" y="1"/>
      <point x="259" y="-3"/>
      <point x="244" y="-6" type="curve"/>
      <point x="202" y="-270" type="line"/>
    </contour>
  </outline>
</glyph>
<glyph name="paragraph" format="1">
  <advance width="573"/>
  <unicode hex="00B6"/>
  <outline>
    <contour>
      <point x="228" y="519" type="line" smooth="yes"/>
      <point x="222" y="480"/>
      <point x="235" y="479"/>
      <point x="263" y="479" type="curve" smooth="yes"/>
      <point x="307" y="479" type="line"/>
      <point x="328" y="608" type="line"/>
      <point x="284" y="608" type="line" smooth="yes"/>
      <point x="244" y="608"/>
      <point x="241" y="600"/>
      <point x="234" y="558" type="curve" smooth="yes"/>
    </contour>
    <contour>
      <point x="101" y="521" type="curve" smooth="yes"/>
      <point x="115" y="614" type="line" smooth="yes"/>
      <point x="130" y="709"/>
      <point x="199" y="732"/>
      <point x="293" y="732" type="curve" smooth="yes"/>
      <point x="678" y="732" type="line"/>
      <point x="658" y="606" type="line"/>
      <point x="619" y="606" type="line"/>
      <point x="523" y="0" type="line"/>
      <point x="399" y="0" type="line"/>
      <point x="496" y="608" type="line"/>
      <point x="452" y="608" type="line"/>
      <point x="313" y="-270" type="line"/>
      <point x="189" y="-270" type="line"/>
      <point x="290" y="372" type="line"/>
      <point x="284" y="370"/>
      <point x="270" y="355"/>
      <point x="234" y="355" type="curve" smooth="yes"/>
      <point x="120" y="355"/>
      <point x="89" y="443"/>
    </contour>
  </outline>
</glyph>
<glyph name="periodcentered" format="1">
  <advance width="256"/>
  <unicode hex="00B7"/>
  <note>
    GF Latin Plus glyph
  </note>
  <outline>
    <contour>
      <point x="99" y="328" type="line" smooth="yes"/>
      <point x="97" y="314"/>
      <point x="106" y="305"/>
      <point x="120" y="305" type="curve" smooth="yes"/>
      <point x="233" y="305" type="line" smooth="yes"/>
      <point x="247" y="305"/>
      <point x="258" y="310"/>
      <point x="261" y="328" type="curve" smooth="yes"/>
      <point x="280" y="445" type="line" smooth="yes"/>
      <point x="283" y="461"/>
      <point x="277" y="470"/>
      <point x="259" y="470" type="curve" smooth="yes"/>
      <point x="146" y="470" type="line" smooth="yes"/>
      <point x="130" y="470"/>
      <point x="120" y="460"/>
      <point x="118" y="445" type="curve" smooth="yes"/>
    </contour>
  </outline>
</glyph>
<glyph name="cedilla" format="1">
  <advance width="238"/>
  <unicode hex="00B8"/>
  <outline>
    <contour>
      <point x="0" y="-183" type="line"/>
      <point x="13" y="-104" type="line"/>
      <point x="52" y="-89" type="line" smooth="yes"/>
      <point x="82" y="-77"/>
      <point x="82" y="-75"/>
      <point x="88" y="-37" type="curve"/>
      <point x="205" y="-37" type="line"/>
      <point x="189" y="-139"/>
      <point x="153" y="-183"/>
      <point x="61" y="-183" type="curve" smooth="yes"/>
    </contour>
  </outline>
</glyph>
<glyph name="onesuperior" format="1">
  <advance width="282"/>
  <unicode hex="00B9"/>
  <outline>
    <contour>
      <point x="105" y="687" type="curve"/>
      <point x="120" y="787" type="line"/>
      <point x="120" y="787"/>
      <point x="187" y="805"/>
      <point x="219" y="842" type="curve"/>
      <point x="363" y="842" type="line"/>
      <point x="286" y="355" type="line"/>
      <point x="140" y="355" type="line"/>
      <point x="196" y="700" type="line"/>
      <point x="168" y="678"/>
      <point x="105" y="687"/>
    </contour>
  </outline>
</glyph>
<glyph name="ordmasculine" format="1">
  <advance width="384"/>
  <unicode hex="00BA"/>
  <note>
    GF Latin Plus glyph
  </note>
  <outline>
    <contour>
      <point x="246" y="549" type="curve" smooth="yes"/>
      <point x="236" y="489"/>
      <point x="238" y="481"/>
      <point x="272" y="481" type="curve" smooth="yes"/>
      <point x="313" y="481"/>
      <point x="309" y="486"/>
      <point x="319" y="549" type="curve" smooth="yes"/>
      <point x="329" y="614"/>
      <point x="337" y="625"/>
      <point x="295" y="625" type="curve" smooth="yes"/>
      <point x="251" y="625"/>
      <point x="256" y="614"/>
    </contour>
    <contour>
      <point x="111" y="565" type="curve" smooth="yes"/>
      <point x="134" y="709"/>
      <point x="193" y="733"/>
      <point x="312" y="733" type="curve" smooth="yes"/>
      <point x="436" y="733"/>
      <point x="476" y="671"/>
      <point x="454" y="531" type="curve" smooth="yes"/>
      <point x="433" y="400"/>
      <point x="382" y="373"/>
      <point x="255" y="373" type="curve" smooth="yes"/>
      <point x="130" y="373"/>
      <point x="91" y="439"/>
    </contour>
    <contour>
      <point x="72" y="258" type="line"/>
      <point x="84" y="336" type="line"/>
      <point x="419" y="336" type="line"/>
      <point x="407" y="258" type="line"/>
    </contour>
  </outline>
</glyph>
<glyph name="guillemotright" format="1">
  <advance width="595"/>
  <unicode hex="00BB"/>
  <outline>
    <contour>
      <point x="302" y="244" type="line"/>
      <point x="442" y="368" type="line"/>
      <point x="347" y="472" type="line"/>
      <point x="449" y="557" type="line"/>
      <point x="623" y="354" type="line"/>
      <point x="389" y="146" type="line"/>
    </contour>
    <contour>
      <point x="66" y="244" type="line"/>
      <point x="206" y="368" type="line"/>
      <point x="112" y="472" type="line"/>
      <point x="214" y="557" type="line"/>
      <point x="387" y="354" type="line"/>
      <point x="153" y="146" type="line"/>
    </contour>
  </outline>
</glyph>
<glyph name="onehalf" format="1">
  <advance width="1040"/>
  <unicode hex="00BD"/>
  <outline>
    <contour>
      <point x="652" y="-1" type="line"/>
      <point x="672" y="125" type="line"/>
      <point x="731" y="157"/>
      <point x="917" y="278"/>
      <point x="924" y="322" type="curve" smooth="yes"/>
      <point x="930" y="358"/>
      <point x="908" y="362"/>
      <point x="854" y="362" type="curve" smooth="yes"/>
      <point x="706" y="362" type="line"/>
      <point x="723" y="471" type="line"/>
      <point x="782" y="484"/>
      <point x="831" y="493"/>
      <point x="931" y="493" type="curve" smooth="yes"/>
      <point x="1040" y="493"/>
      <point x="1086" y="414"/>
      <point x="1072" y="325" type="curve" smooth="yes"/>
      <point x="1058" y="237"/>
      <point x="975" y="166"/>
      <point x="923" y="130" type="curve"/>
      <point x="1040" y="130" type="line"/>
      <point x="1019" y="-1" type="line"/>
    </contour>
    <contour>
      <point x="207" y="0" type="line"/>
      <point x="695" y="770" type="line"/>
      <point x="836" y="770" type="line"/>
      <point x="348" y="0" type="line"/>
    </contour>
    <contour>
      <point x="105" y="587" type="curve"/>
      <point x="120" y="687" type="line"/>
      <point x="120" y="687"/>
      <point x="187" y="705"/>
      <point x="219" y="742" type="curve"/>
      <point x="363" y="742" type="line"/>
      <point x="286" y="255" type="line"/>
      <point x="140" y="255" type="line"/>
      <point x="196" y="600" type="line"/>
      <point x="168" y="578"/>
      <point x="105" y="587"/>
    </contour>
  </outline>
</glyph>
<glyph name="threequarters" format="1">
  <advance width="1130"/>
  <unicode hex="00BE"/>
  <outline>
    <contour>
      <point x="689" y="144" type="line"/>
      <point x="885" y="486" type="line"/>
      <point x="1038" y="486" type="line"/>
      <point x="888" y="213" type="line"/>
      <point x="955" y="213" type="line"/>
      <point x="969" y="300" type="line"/>
      <point x="998" y="351" type="line"/>
      <point x="1117" y="351" type="line"/>
      <point x="1095" y="213" type="line"/>
      <point x="1135" y="213" type="line"/>
      <point x="1118" y="101" type="line"/>
      <point x="1071" y="80" type="line"/>
      <point x="1062" y="1" type="line"/>
      <point x="922" y="1" type="line"/>
      <point x="934" y="79" type="line"/>
      <point x="712" y="79" type="line"/>
    </contour>
    <contour>
      <point x="310" y="0" type="line"/>
      <point x="798" y="770" type="line"/>
      <point x="939" y="770" type="line"/>
      <point x="451" y="0" type="line"/>
    </contour>
    <contour>
      <point x="63" y="271" type="curve"/>
      <point x="81" y="381" type="line"/>
      <point x="227" y="381" type="line" smooth="yes"/>
      <point x="279" y="381"/>
      <point x="293" y="382"/>
      <point x="296" y="405" type="curve"/>
      <point x="297" y="410" type="line"/>
      <point x="300" y="432"/>
      <point x="282" y="433"/>
      <point x="239" y="435" type="curve" smooth="yes"/>
      <point x="131" y="439" type="line"/>
      <point x="149" y="558" type="line"/>
      <point x="260" y="562" type="line" smooth="yes"/>
      <point x="306" y="564"/>
      <point x="323" y="563"/>
      <point x="326" y="585" type="curve"/>
      <point x="326" y="589" type="line"/>
      <point x="331" y="613"/>
      <point x="303" y="613"/>
      <point x="268" y="613" type="curve" smooth="yes"/>
      <point x="113" y="613" type="line"/>
      <point x="130" y="722" type="line"/>
      <point x="195" y="745"/>
      <point x="281" y="746"/>
      <point x="363" y="744" type="curve" smooth="yes"/>
      <point x="440" y="743"/>
      <point x="488" y="687"/>
      <point x="475" y="608" type="curve" smooth="yes"/>
      <point x="471" y="582" type="line" smooth="yes"/>
      <point x="463" y="533"/>
      <point x="438" y="504"/>
      <point x="393" y="498" type="curve"/>
      <point x="441" y="486"/>
      <point x="448" y="433"/>
      <point x="440" y="382" type="curve"/>
      <point x="436" y="362" type="line"/>
      <point x="423" y="281"/>
      <point x="365" y="250"/>
      <point x="280" y="250" type="curve" smooth="yes"/>
      <point x="200" y="250"/>
      <point x="120" y="248"/>
    </contour>
  </outline>
</glyph>
<glyph name="questiondown" format="1">
  <advance width="542"/>
  <unicode hex="00BF"/>
  <outline>
    <contour>
      <point x="279" y="332" type="curve" smooth="yes"/>
      <point x="297" y="449" type="line" smooth="yes"/>
      <point x="300" y="467"/>
      <point x="312" y="472"/>
      <point x="326" y="472" type="curve" smooth="yes"/>
      <point x="439" y="472" type="line" smooth="yes"/>
      <point x="453" y="472"/>
      <point x="461" y="463"/>
      <point x="459" y="449" type="curve" smooth="yes"/>
      <point x="441" y="332" type="line" smooth="yes"/>
      <point x="439" y="317"/>
      <point x="429" y="307"/>
      <point x="413" y="307" type="curve" smooth="yes"/>
      <point x="300" y="307" type="line" smooth="yes"/>
      <point x="282" y="307"/>
      <point x="276" y="316"/>
    </contour>
    <contour>
      <point x="11" y="-40" type="curve" smooth="yes"/>
      <point x="19" y="11" type="line" smooth="yes"/>
      <point x="40" y="146"/>
      <point x="100" y="202"/>
      <point x="265" y="196" type="curve"/>
      <point x="278" y="277" type="line"/>
      <point x="423" y="277" type="line"/>
      <point x="388" y="55" type="line"/>
      <point x="296" y="55" type="line"/>
      <point x="247" y="53"/>
      <point x="220" y="38"/>
      <point x="212" y="-15" type="curve"/>
      <point x="209" y="-30" type="line"/>
      <point x="202" y="-74"/>
      <point x="230" y="-92"/>
      <point x="287" y="-92" type="curve" smooth="yes"/>
      <point x="518" y="-92" type="line"/>
      <point x="495" y="-237" type="line"/>
      <point x="405" y="-260"/>
      <point x="322" y="-272"/>
      <point x="208" y="-267" type="curve"/>
      <point x="56" y="-267"/>
      <point x="-5" y="-138"/>
    </contour>
  </outline>
</glyph>
<glyph name="Aacute" format="1">
  <advance width="711"/>
  <unicode hex="00C1"/>
  <outline>
    <contour>
      <point x="440" y="797" type="line"/>
      <point x="540" y="940" type="line"/>
      <point x="685" y="940" type="line"/>
      <point x="549" y="797" type="line"/>
    </contour>
    <contour>
      <point x="367" y="293" type="line"/>
      <point x="472" y="293" type="line"/>
      <point x="449" y="489" type="line"/>
    </contour>
    <contour>
      <point x="25" y="0" type="line"/>
      <point x="370" y="732" type="line"/>
      <point x="599" y="732" type="line"/>
      <point x="705" y="0" type="line"/>
      <point x="506" y="0" type="line"/>
      <point x="485" y="128" type="line"/>
      <point x="297" y="128" type="line"/>
      <point x="240" y="0" type="line"/>
    </contour>
  </outline>
</glyph>
<glyph name="Acircumflex" format="1">
  <advance width="711"/>
  <unicode hex="00C2"/>
  <outline>
    <contour>
      <point x="334" y="797" type="line"/>
      <point x="456" y="937" type="line"/>
      <point x="587" y="937" type="line"/>
      <point x="656" y="797" type="line"/>
      <point x="545" y="797" type="line"/>
      <point x="514" y="848" type="line"/>
      <point x="456" y="797" type="line"/>
    </contour>
    <contour>
      <point x="367" y="293" type="line"/>
      <point x="472" y="293" type="line"/>
      <point x="449" y="489" type="line"/>
    </contour>
    <contour>
      <point x="25" y="0" type="line"/>
      <point x="370" y="732" type="line"/>
      <point x="599" y="732" type="line"/>
      <point x="705" y="0" type="line"/>
      <point x="506" y="0" type="line"/>
      <point x="485" y="128" type="line"/>
      <point x="297" y="128" type="line"/>
      <point x="240" y="0" type="line"/>
    </contour>
  </outline>
</glyph>
<glyph name="Atilde" format="1">
  <advance width="711"/>
  <unicode hex="00C3"/>
  <outline>
    <contour>
      <point x="332" y="864" type="line"/>
      <point x="363" y="900"/>
      <point x="411" y="938"/>
      <point x="467" y="938" type="curve" smooth="yes"/>
      <point x="511" y="938"/>
      <point x="527" y="903"/>
      <point x="567" y="903" type="curve"/>
      <point x="607" y="901"/>
      <point x="641" y="920"/>
      <point x="667" y="943" type="curve"/>
      <point x="681" y="869" type="line"/>
      <point x="654" y="836"/>
      <point x="608" y="797"/>
      <point x="557" y="797" type="curve" smooth="yes"/>
      <point x="514" y="797"/>
      <point x="486" y="832"/>
      <point x="447" y="832" type="curve" smooth="yes"/>
      <point x="408" y="832"/>
      <point x="383" y="821"/>
      <point x="348" y="797" type="curve"/>
    </contour>
    <contour>
      <point x="367" y="293" type="line"/>
      <point x="472" y="293" type="line"/>
      <point x="449" y="489" type="line"/>
    </contour>
    <contour>
      <point x="25" y="0" type="line"/>
      <point x="370" y="732" type="line"/>
      <point x="599" y="732" type="line"/>
      <point x="705" y="0" type="line"/>
      <point x="506" y="0" type="line"/>
      <point x="485" y="128" type="line"/>
      <point x="297" y="128" type="line"/>
      <point x="240" y="0" type="line"/>
    </contour>
  </outline>
</glyph>
<glyph name="Adieresis" format="1">
  <advance width="711"/>
  <unicode hex="00C4"/>
  <outline>
    <contour>
      <point x="568" y="863" type="curve" smooth="yes"/>
      <point x="574" y="899"/>
      <point x="608" y="928"/>
      <point x="644" y="928" type="curve" smooth="yes"/>
      <point x="680" y="928"/>
      <point x="705" y="899"/>
      <point x="699" y="863" type="curve" smooth="yes"/>
      <point x="693" y="827"/>
      <point x="659" y="797"/>
      <point x="623" y="797" type="curve" smooth="yes"/>
      <point x="587" y="797"/>
      <point x="562" y="827"/>
    </contour>
    <contour>
      <point x="313" y="863" type="curve" smooth="yes"/>
      <point x="319" y="899"/>
      <point x="353" y="928"/>
      <point x="389" y="928" type="curve" smooth="yes"/>
      <point x="425" y="928"/>
      <point x="450" y="899"/>
      <point x="444" y="863" type="curve" smooth="yes"/>
      <point x="438" y="827"/>
      <point x="404" y="797"/>
      <point x="368" y="797" type="curve" smooth="yes"/>
      <point x="332" y="797"/>
      <point x="307" y="827"/>
    </contour>
    <contour>
      <point x="367" y="293" type="line"/>
      <point x="472" y="293" type="line"/>
      <point x="449" y="489" type="line"/>
    </contour>
    <contour>
      <point x="25" y="0" type="line"/>
      <point x="370" y="732" type="line"/>
      <point x="599" y="732" type="line"/>
      <point x="705" y="0" type="line"/>
      <point x="506" y="0" type="line"/>
      <point x="485" y="128" type="line"/>
      <point x="297" y="128" type="line"/>
      <point x="240" y="0" type="line"/>
    </contour>
  </outline>
</glyph>
<glyph name="Aring" format="1">
  <advance width="711"/>
  <unicode hex="00C5"/>
  <outline>
    <contour>
      <point x="459" y="830" type="curve" smooth="yes"/>
      <point x="457" y="811"/>
      <point x="471" y="797"/>
      <point x="490" y="797" type="curve" smooth="yes"/>
      <point x="509" y="797"/>
      <point x="524" y="811"/>
      <point x="526" y="830" type="curve" smooth="yes"/>
      <point x="528" y="849"/>
      <point x="515" y="864"/>
      <point x="496" y="864" type="curve" smooth="yes"/>
      <point x="477" y="864"/>
      <point x="461" y="849"/>
    </contour>
    <contour>
      <point x="391" y="830" type="curve" smooth="yes"/>
      <point x="396" y="887"/>
      <point x="444" y="930"/>
      <point x="500" y="930" type="curve" smooth="yes"/>
      <point x="556" y="930"/>
      <point x="599" y="887"/>
      <point x="594" y="830" type="curve" smooth="yes"/>
      <point x="589.632" y="780.2"/>
      <point x="553.967" y="741.087"/>
      <point x="507.681" y="732" type="curve"/>
      <point x="599" y="732" type="line"/>
      <point x="705" y="0" type="line"/>
      <point x="506" y="0" type="line"/>
      <point x="485" y="128" type="line"/>
      <point x="297" y="128" type="line"/>
      <point x="240" y="0" type="line"/>
      <point x="25" y="0" type="line"/>
      <point x="370" y="732" type="line"/>
      <point x="466.383" y="732" type="line"/>
      <point x="420.429" y="741.087"/>
      <point x="386.632" y="780.2"/>
    </contour>
    <contour>
      <point x="367" y="293" type="line"/>
      <point x="472" y="293" type="line"/>
      <point x="449" y="489" type="line"/>
    </contour>
  </outline>
</glyph>
<glyph name="AE" format="1">
  <advance width="1094"/>
  <unicode hex="00C6"/>
  <outline>
    <contour>
      <point x="446" y="331" type="line"/>
      <point x="515" y="331" type="line"/>
      <point x="539" y="482" type="line"/>
    </contour>
    <contour>
      <point x="17" y="0" type="line"/>
      <point x="375" y="552" type="line" smooth="yes"/>
      <point x="482" y="717"/>
      <point x="627" y="739"/>
      <point x="765" y="732" type="curve" smooth="yes"/>
      <point x="765" y="732"/>
      <point x="955" y="732"/>
      <point x="1069" y="716" type="curve"/>
      <point x="1044" y="553" type="line"/>
      <point x="797" y="553" type="line" smooth="yes"/>
      <point x="745" y="553"/>
      <point x="740" y="524"/>
      <point x="736" y="497" type="curve" smooth="yes"/>
      <point x="729" y="453" type="line"/>
      <point x="976" y="442" type="line"/>
      <point x="951" y="281" type="line"/>
      <point x="700" y="272" type="line"/>
      <point x="693" y="228" type="line" smooth="yes"/>
      <point x="685" y="175"/>
      <point x="718" y="176"/>
      <point x="747" y="176" type="curve" smooth="yes"/>
      <point x="984" y="176" type="line"/>
      <point x="958" y="14" type="line"/>
      <point x="853" y="0"/>
      <point x="662" y="-3"/>
      <point x="662" y="-3" type="curve" smooth="yes"/>
      <point x="591" y="-7"/>
      <point x="464" y="11"/>
      <point x="482" y="124" type="curve" smooth="yes"/>
      <point x="489" y="167" type="line"/>
      <point x="342" y="167" type="line"/>
      <point x="232" y="0" type="line"/>
    </contour>
  </outline>
</glyph>
<glyph name="Ccedilla" format="1">
  <advance width="566"/>
  <unicode hex="00C7"/>
  <outline>
    <contour>
      <point x="165" y="-182" type="line"/>
      <point x="178" y="-103" type="line"/>
      <point x="217" y="-88" type="line" smooth="yes"/>
      <point x="247" y="-76"/>
      <point x="248" y="-74"/>
      <point x="254" y="-36" type="curve"/>
      <point x="371" y="-36" type="line"/>
      <point x="355" y="-138"/>
      <point x="318" y="-182"/>
      <point x="226" y="-182" type="curve" smooth="yes"/>
    </contour>
    <contour>
      <point x="88" y="399" type="curve" smooth="yes"/>
      <point x="124" y="632"/>
      <point x="201" y="740"/>
      <point x="400" y="740" type="curve" smooth="yes"/>
      <point x="544" y="740"/>
      <point x="577" y="732"/>
      <point x="658" y="700" type="curve"/>
      <point x="634" y="549" type="line" smooth="yes"/>
      <point x="633" y="549"/>
      <point x="536" y="566"/>
      <point x="433" y="566" type="curve" smooth="yes"/>
      <point x="349" y="566"/>
      <point x="314" y="570"/>
      <point x="282" y="366" type="curve" smooth="yes"/>
      <point x="256" y="202"/>
      <point x="269" y="168"/>
      <point x="370" y="168" type="curve" smooth="yes"/>
      <point x="475" y="168"/>
      <point x="575" y="177"/>
      <point x="575" y="177" type="curve"/>
      <point x="551" y="26" type="line"/>
      <point x="485" y="0"/>
      <point x="430" y="-9"/>
      <point x="282" y="-6" type="curve" smooth="yes"/>
      <point x="98" y="-3"/>
      <point x="50" y="153"/>
    </contour>
  </outline>
</glyph>
<glyph name="Egrave" format="1">
  <advance width="555"/>
  <unicode hex="00C8"/>
  <outline>
    <contour>
      <point x="271" y="935" type="line"/>
      <point x="416" y="935" type="line"/>
      <point x="470" y="792" type="line"/>
      <point x="361" y="792" type="line"/>
    </contour>
    <contour>
      <point x="64" y="173" type="curve" smooth="yes"/>
      <point x="127" y="572" type="line" smooth="yes"/>
      <point x="150" y="716"/>
      <point x="251" y="732"/>
      <point x="340" y="732" type="curve"/>
      <point x="340" y="732"/>
      <point x="529" y="732"/>
      <point x="644" y="716" type="curve"/>
      <point x="618" y="553" type="line"/>
      <point x="371" y="553" type="line" smooth="yes"/>
      <point x="319" y="553"/>
      <point x="315" y="524"/>
      <point x="311" y="497" type="curve" smooth="yes"/>
      <point x="305" y="457" type="line"/>
      <point x="551" y="446" type="line"/>
      <point x="525" y="285" type="line"/>
      <point x="276" y="276" type="line"/>
      <point x="268" y="228" type="line" smooth="yes"/>
      <point x="259" y="175"/>
      <point x="293" y="176"/>
      <point x="322" y="176" type="curve" smooth="yes"/>
      <point x="559" y="176" type="line"/>
      <point x="533" y="14" type="line"/>
      <point x="427" y="0"/>
      <point x="233" y="-3"/>
      <point x="233" y="-3" type="curve"/>
      <point x="158.667" y="-5.33301"/>
      <point x="40" y="20"/>
    </contour>
  </outline>
</glyph>
<glyph name="Eacute" format="1">
  <advance width="555"/>
  <unicode hex="00C9"/>
  <outline>
    <contour>
      <point x="368" y="792" type="line"/>
      <point x="468" y="935" type="line"/>
      <point x="613" y="935" type="line"/>
      <point x="477" y="792" type="line"/>
    </contour>
    <contour>
      <point x="64" y="173" type="curve" smooth="yes"/>
      <point x="127" y="572" type="line" smooth="yes"/>
      <point x="150" y="716"/>
      <point x="251" y="732"/>
      <point x="340" y="732" type="curve"/>
      <point x="340" y="732"/>
      <point x="529" y="732"/>
      <point x="644" y="716" type="curve"/>
      <point x="618" y="553" type="line"/>
      <point x="371" y="553" type="line" smooth="yes"/>
      <point x="319" y="553"/>
      <point x="315" y="524"/>
      <point x="311" y="497" type="curve" smooth="yes"/>
      <point x="305" y="457" type="line"/>
      <point x="551" y="446" type="line"/>
      <point x="525" y="285" type="line"/>
      <point x="276" y="276" type="line"/>
      <point x="268" y="228" type="line" smooth="yes"/>
      <point x="259" y="175"/>
      <point x="293" y="176"/>
      <point x="322" y="176" type="curve" smooth="yes"/>
      <point x="559" y="176" type="line"/>
      <point x="533" y="14" type="line"/>
      <point x="427" y="0"/>
      <point x="233" y="-3"/>
      <point x="233" y="-3" type="curve"/>
      <point x="158.667" y="-5.33301"/>
      <point x="40" y="20"/>
    </contour>
  </outline>
</glyph>
<glyph name="Edieresis" format="1">
  <advance width="555"/>
  <unicode hex="00CB"/>
  <outline>
    <contour>
      <point x="486" y="843" type="curve" smooth="yes"/>
      <point x="492" y="879"/>
      <point x="526" y="908"/>
      <point x="562" y="908" type="curve" smooth="yes"/>
      <point x="598" y="908"/>
      <point x="623" y="879"/>
      <point x="617" y="843" type="curve" smooth="yes"/>
      <point x="611" y="807"/>
      <point x="577" y="777"/>
      <point x="541" y="777" type="curve" smooth="yes"/>
      <point x="505" y="777"/>
      <point x="480" y="807"/>
    </contour>
    <contour>
      <point x="231" y="843" type="curve" smooth="yes"/>
      <point x="237" y="879"/>
      <point x="271" y="908"/>
      <point x="307" y="908" type="curve" smooth="yes"/>
      <point x="343" y="908"/>
      <point x="368" y="879"/>
      <point x="362" y="843" type="curve" smooth="yes"/>
      <point x="356" y="807"/>
      <point x="322" y="777"/>
      <point x="286" y="777" type="curve" smooth="yes"/>
      <point x="250" y="777"/>
      <point x="225" y="807"/>
    </contour>
    <contour>
      <point x="64" y="173" type="curve" smooth="yes"/>
      <point x="127" y="572" type="line" smooth="yes"/>
      <point x="150" y="716"/>
      <point x="251" y="732"/>
      <point x="340" y="732" type="curve"/>
      <point x="340" y="732"/>
      <point x="529" y="732"/>
      <point x="644" y="716" type="curve"/>
      <point x="618" y="553" type="line"/>
      <point x="371" y="553" type="line" smooth="yes"/>
      <point x="319" y="553"/>
      <point x="315" y="524"/>
      <point x="311" y="497" type="curve" smooth="yes"/>
      <point x="305" y="457" type="line"/>
      <point x="551" y="446" type="line"/>
      <point x="525" y="285" type="line"/>
      <point x="276" y="276" type="line"/>
      <point x="268" y="228" type="line" smooth="yes"/>
      <point x="259" y="175"/>
      <point x="293" y="176"/>
      <point x="322" y="176" type="curve" smooth="yes"/>
      <point x="559" y="176" type="line"/>
      <point x="533" y="14" type="line"/>
      <point x="427" y="0"/>
      <point x="233" y="-3"/>
      <point x="233" y="-3" type="curve"/>
      <point x="158.667" y="-5.33301"/>
      <point x="40" y="20"/>
    </contour>
  </outline>
</glyph>
<glyph name="Igrave" format="1">
  <advance width="282"/>
  <unicode hex="00CC"/>
  <outline>
    <contour>
      <point x="124" y="940" type="line"/>
      <point x="269" y="940" type="line"/>
      <point x="323" y="797" type="line"/>
      <point x="214" y="797" type="line"/>
    </contour>
    <contour>
      <point x="45" y="0" type="line"/>
      <point x="161" y="732" type="line"/>
      <point x="355" y="732" type="line"/>
      <point x="239" y="0" type="line"/>
    </contour>
  </outline>
</glyph>
<glyph name="Iacute" format="1">
  <advance width="282"/>
  <unicode hex="00CD"/>
  <outline>
    <contour>
      <point x="214" y="797" type="line"/>
      <point x="314" y="940" type="line"/>
      <point x="459" y="940" type="line"/>
      <point x="323" y="797" type="line"/>
    </contour>
    <contour>
      <point x="45" y="0" type="line"/>
      <point x="161" y="732" type="line"/>
      <point x="355" y="732" type="line"/>
      <point x="239" y="0" type="line"/>
    </contour>
  </outline>
</glyph>
<glyph name="Icircumflex" format="1">
  <advance width="282"/>
  <unicode hex="00CE"/>
  <outline>
    <contour>
      <point x="107" y="797" type="line"/>
      <point x="229" y="937" type="line"/>
      <point x="360" y="937" type="line"/>
      <point x="429" y="797" type="line"/>
      <point x="318" y="797" type="line"/>
      <point x="287" y="848" type="line"/>
      <point x="229" y="797" type="line"/>
    </contour>
    <contour>
      <point x="45" y="0" type="line"/>
      <point x="161" y="732" type="line"/>
      <point x="355" y="732" type="line"/>
      <point x="239" y="0" type="line"/>
    </contour>
  </outline>
</glyph>
<glyph name="Idieresis" format="1">
  <advance width="282"/>
  <unicode hex="00CF"/>
  <outline>
    <contour>
      <point x="341" y="863" type="curve" smooth="yes"/>
      <point x="347" y="899"/>
      <point x="381" y="928"/>
      <point x="417" y="928" type="curve" smooth="yes"/>
      <point x="453" y="928"/>
      <point x="478" y="899"/>
      <point x="472" y="863" type="curve" smooth="yes"/>
      <point x="466" y="827"/>
      <point x="432" y="797"/>
      <point x="396" y="797" type="curve" smooth="yes"/>
      <point x="360" y="797"/>
      <point x="335" y="827"/>
    </contour>
    <contour>
      <point x="86" y="863" type="curve" smooth="yes"/>
      <point x="92" y="899"/>
      <point x="126" y="928"/>
      <point x="162" y="928" type="curve" smooth="yes"/>
      <point x="198" y="928"/>
      <point x="223" y="899"/>
      <point x="217" y="863" type="curve" smooth="yes"/>
      <point x="211" y="827"/>
      <point x="177" y="797"/>
      <point x="141" y="797" type="curve" smooth="yes"/>
      <point x="105" y="797"/>
      <point x="80" y="827"/>
    </contour>
    <contour>
      <point x="45" y="0" type="line"/>
      <point x="161" y="732" type="line"/>
      <point x="355" y="732" type="line"/>
      <point x="239" y="0" type="line"/>
    </contour>
  </outline>
</glyph>
<glyph name="Eth" format="1">
  <advance width="640"/>
  <unicode hex="00D0"/>
  <outline>
    <contour>
      <point x="265" y="164" type="line"/>
      <point x="374" y="164" type="line" smooth="yes"/>
      <point x="431" y="164"/>
      <point x="458" y="223"/>
      <point x="480" y="364" type="curve" smooth="yes"/>
      <point x="509" y="545"/>
      <point x="485" y="568"/>
      <point x="438" y="568" type="curve" smooth="yes"/>
      <point x="329" y="568" type="line"/>
      <point x="304" y="410" type="line"/>
      <point x="393" y="410" type="line"/>
      <point x="381" y="336" type="line"/>
      <point x="292" y="336" type="line"/>
    </contour>
    <contour>
      <point x="33" y="336" type="line"/>
      <point x="45" y="410" type="line"/>
      <point x="110" y="410" type="line"/>
      <point x="161" y="732" type="line"/>
      <point x="484" y="732" type="line" smooth="yes"/>
      <point x="683" y="732"/>
      <point x="707" y="540"/>
      <point x="674" y="333" type="curve" smooth="yes"/>
      <point x="633" y="77"/>
      <point x="555" y="0"/>
      <point x="388" y="0" type="curve" smooth="yes"/>
      <point x="45" y="0" type="line"/>
      <point x="98" y="336" type="line"/>
    </contour>
  </outline>
</glyph>
<glyph name="Ntilde" format="1">
  <advance width="677"/>
  <unicode hex="00D1"/>
  <outline>
    <contour>
      <point x="308" y="864" type="line"/>
      <point x="339" y="900"/>
      <point x="387" y="938"/>
      <point x="443" y="938" type="curve" smooth="yes"/>
      <point x="487" y="938"/>
      <point x="503" y="903"/>
      <point x="543" y="903" type="curve"/>
      <point x="583" y="901"/>
      <point x="617" y="920"/>
      <point x="643" y="943" type="curve"/>
      <point x="657" y="869" type="line"/>
      <point x="630" y="836"/>
      <point x="584" y="797"/>
      <point x="533" y="797" type="curve" smooth="yes"/>
      <point x="490" y="797"/>
      <point x="462" y="832"/>
      <point x="423" y="832" type="curve" smooth="yes"/>
      <point x="384" y="832"/>
      <point x="359" y="821"/>
      <point x="324" y="797" type="curve"/>
    </contour>
    <contour>
      <point x="45" y="0" type="line"/>
      <point x="161" y="732" type="line"/>
      <point x="357" y="732" type="line"/>
      <point x="507" y="353" type="line"/>
      <point x="566" y="732" type="line"/>
      <point x="760" y="732" type="line"/>
      <point x="644" y="0" type="line"/>
      <point x="450" y="0" type="line"/>
      <point x="298" y="369" type="line"/>
      <point x="240" y="0" type="line"/>
    </contour>
  </outline>
</glyph>
<glyph name="Ograve" format="1">
  <advance width="666"/>
  <unicode hex="00D2"/>
  <outline>
    <contour>
      <point x="321" y="940" type="line"/>
      <point x="466" y="940" type="line"/>
      <point x="520" y="797" type="line"/>
      <point x="411" y="797" type="line"/>
    </contour>
    <contour>
      <point x="288" y="361" type="curve" smooth="yes"/>
      <point x="264" y="208"/>
      <point x="268" y="170"/>
      <point x="366" y="170" type="curve" smooth="yes"/>
      <point x="452" y="170"/>
      <point x="481" y="206"/>
      <point x="506" y="361" type="curve" smooth="yes"/>
      <point x="533" y="531"/>
      <point x="520" y="563"/>
      <point x="429" y="563" type="curve" smooth="yes"/>
      <point x="341" y="563"/>
      <point x="316" y="540"/>
    </contour>
    <contour>
      <point x="94" y="386" type="curve" smooth="yes"/>
      <point x="148" y="729"/>
      <point x="288" y="737"/>
      <point x="456" y="737" type="curve" smooth="yes"/>
      <point x="629" y="737"/>
      <point x="754" y="679"/>
      <point x="700" y="336" type="curve" smooth="yes"/>
      <point x="649" y="13"/>
      <point x="519" y="-4"/>
      <point x="339" y="-4" type="curve" smooth="yes"/>
      <point x="159" y="-4"/>
      <point x="41" y="53"/>
    </contour>
  </outline>
</glyph>
<glyph name="Ocircumflex" format="1">
  <advance width="666"/>
  <unicode hex="00D4"/>
  <outline>
    <contour>
      <point x="305" y="797" type="line"/>
      <point x="427" y="937" type="line"/>
      <point x="558" y="937" type="line"/>
      <point x="627" y="797" type="line"/>
      <point x="516" y="797" type="line"/>
      <point x="485" y="848" type="line"/>
      <point x="427" y="797" type="line"/>
    </contour>
    <contour>
      <point x="288" y="361" type="curve" smooth="yes"/>
      <point x="264" y="208"/>
      <point x="268" y="170"/>
      <point x="366" y="170" type="curve" smooth="yes"/>
      <point x="452" y="170"/>
      <point x="481" y="206"/>
      <point x="506" y="361" type="curve" smooth="yes"/>
      <point x="533" y="531"/>
      <point x="520" y="563"/>
      <point x="429" y="563" type="curve" smooth="yes"/>
      <point x="341" y="563"/>
      <point x="316" y="540"/>
    </contour>
    <contour>
      <point x="94" y="386" type="curve" smooth="yes"/>
      <point x="148" y="729"/>
      <point x="288" y="737"/>
      <point x="456" y="737" type="curve" smooth="yes"/>
      <point x="629" y="737"/>
      <point x="754" y="679"/>
      <point x="700" y="336" type="curve" smooth="yes"/>
      <point x="649" y="13"/>
      <point x="519" y="-4"/>
      <point x="339" y="-4" type="curve" smooth="yes"/>
      <point x="159" y="-4"/>
      <point x="41" y="53"/>
    </contour>
  </outline>
</glyph>
<glyph name="Otilde" format="1">
  <advance width="666"/>
  <unicode hex="00D5"/>
  <outline>
    <contour>
      <point x="302" y="864" type="line"/>
      <point x="333" y="900"/>
      <point x="381" y="938"/>
      <point x="437" y="938" type="curve" smooth="yes"/>
      <point x="481" y="938"/>
      <point x="497" y="903"/>
      <point x="537" y="903" type="curve"/>
      <point x="577" y="901"/>
      <point x="611" y="920"/>
      <point x="637" y="943" type="curve"/>
      <point x="651" y="869" type="line"/>
      <point x="624" y="836"/>
      <point x="578" y="797"/>
      <point x="527" y="797" type="curve" smooth="yes"/>
      <point x="484" y="797"/>
      <point x="456" y="832"/>
      <point x="417" y="832" type="curve" smooth="yes"/>
      <point x="378" y="832"/>
      <point x="353" y="821"/>
      <point x="318" y="797" type="curve"/>
    </contour>
    <contour>
      <point x="288" y="361" type="curve" smooth="yes"/>
      <point x="264" y="208"/>
      <point x="268" y="170"/>
      <point x="366" y="170" type="curve" smooth="yes"/>
      <point x="452" y="170"/>
      <point x="481" y="206"/>
      <point x="506" y="361" type="curve" smooth="yes"/>
      <point x="533" y="531"/>
      <point x="520" y="563"/>
      <point x="429" y="563" type="curve" smooth="yes"/>
      <point x="341" y="563"/>
      <point x="316" y="540"/>
    </contour>
    <contour>
      <point x="94" y="386" type="curve" smooth="yes"/>
      <point x="148" y="729"/>
      <point x="288" y="737"/>
      <point x="456" y="737" type="curve" smooth="yes"/>
      <point x="629" y="737"/>
      <point x="754" y="679"/>
      <point x="700" y="336" type="curve" smooth="yes"/>
      <point x="649" y="13"/>
      <point x="519" y="-4"/>
      <point x="339" y="-4" type="curve" smooth="yes"/>
      <point x="159" y="-4"/>
      <point x="41" y="53"/>
    </contour>
  </outline>
</glyph>
<glyph name="Odieresis" format="1">
  <advance width="666"/>
  <unicode hex="00D6"/>
  <outline>
    <contour>
      <point x="539" y="863" type="curve" smooth="yes"/>
      <point x="545" y="899"/>
      <point x="579" y="928"/>
      <point x="615" y="928" type="curve" smooth="yes"/>
      <point x="651" y="928"/>
      <point x="676" y="899"/>
      <point x="670" y="863" type="curve" smooth="yes"/>
      <point x="664" y="827"/>
      <point x="630" y="797"/>
      <point x="594" y="797" type="curve" smooth="yes"/>
      <point x="558" y="797"/>
      <point x="533" y="827"/>
    </contour>
    <contour>
      <point x="284" y="863" type="curve" smooth="yes"/>
      <point x="290" y="899"/>
      <point x="324" y="928"/>
      <point x="360" y="928" type="curve" smooth="yes"/>
      <point x="396" y="928"/>
      <point x="421" y="899"/>
      <point x="415" y="863" type="curve" smooth="yes"/>
      <point x="409" y="827"/>
      <point x="375" y="797"/>
      <point x="339" y="797" type="curve" smooth="yes"/>
      <point x="303" y="797"/>
      <point x="278" y="827"/>
    </contour>
    <contour>
      <point x="288" y="361" type="curve" smooth="yes"/>
      <point x="264" y="208"/>
      <point x="268" y="170"/>
      <point x="366" y="170" type="curve" smooth="yes"/>
      <point x="452" y="170"/>
      <point x="481" y="206"/>
      <point x="506" y="361" type="curve" smooth="yes"/>
      <point x="533" y="531"/>
      <point x="520" y="563"/>
      <point x="429" y="563" type="curve" smooth="yes"/>
      <point x="341" y="563"/>
      <point x="316" y="540"/>
    </contour>
    <contour>
      <point x="94" y="386" type="curve" smooth="yes"/>
      <point x="148" y="729"/>
      <point x="288" y="737"/>
      <point x="456" y="737" type="curve" smooth="yes"/>
      <point x="629" y="737"/>
      <point x="754" y="679"/>
      <point x="700" y="336" type="curve" smooth="yes"/>
      <point x="649" y="13"/>
      <point x="519" y="-4"/>
      <point x="339" y="-4" type="curve" smooth="yes"/>
      <point x="159" y="-4"/>
      <point x="41" y="53"/>
    </contour>
  </outline>
</glyph>
<glyph name="multiply" format="1">
  <advance width="464"/>
  <unicode hex="00D7"/>
  <outline>
    <contour>
      <point x="73" y="263" type="line"/>
      <point x="179" y="355" type="line"/>
      <point x="102" y="448" type="line"/>
      <point x="221" y="554" type="line"/>
      <point x="299" y="461" type="line"/>
      <point x="414" y="558" type="line"/>
      <point x="505" y="449" type="line"/>
      <point x="388" y="349" type="line"/>
      <point x="466" y="257" type="line"/>
      <point x="349" y="160" type="line"/>
      <point x="274" y="247" type="line"/>
      <point x="167" y="149" type="line"/>
    </contour>
  </outline>
</glyph>
<glyph name="Oslash" format="1">
  <advance width="666"/>
  <unicode hex="00D8"/>
  <outline>
    <contour>
      <point x="284" y="202" type="line"/>
      <point x="296" y="178"/>
      <point x="321" y="170"/>
      <point x="366" y="170" type="curve" smooth="yes"/>
      <point x="452" y="170"/>
      <point x="480" y="206"/>
      <point x="505" y="361" type="curve" smooth="yes"/>
      <point x="512" y="406"/>
      <point x="517" y="441"/>
      <point x="517" y="469" type="curve"/>
    </contour>
    <contour>
      <point x="287" y="361" type="curve" smooth="yes"/>
      <point x="283" y="335"/>
      <point x="279" y="313"/>
      <point x="277" y="293" type="curve"/>
      <point x="498" y="545" type="line"/>
      <point x="484" y="559"/>
      <point x="461" y="563"/>
      <point x="428" y="563" type="curve" smooth="yes"/>
      <point x="340" y="563"/>
      <point x="315" y="540"/>
    </contour>
    <contour>
      <point x="21" y="0" type="line"/>
      <point x="103" y="93" type="line"/>
      <point x="79" y="147"/>
      <point x="72" y="261"/>
      <point x="93" y="391" type="curve" smooth="yes"/>
      <point x="147" y="734"/>
      <point x="288" y="737"/>
      <point x="456" y="737" type="curve" smooth="yes"/>
      <point x="527" y="737"/>
      <point x="590" y="731"/>
      <point x="635" y="701" type="curve"/>
      <point x="662" y="732" type="line"/>
      <point x="748" y="732" type="line"/>
      <point x="680" y="654" type="line"/>
      <point x="712" y="599"/>
      <point x="722" y="479"/>
      <point x="699" y="331" type="curve" smooth="yes"/>
      <point x="648" y="8"/>
      <point x="518" y="-4"/>
      <point x="338" y="-4" type="curve" smooth="yes"/>
      <point x="257" y="-4"/>
      <point x="188" y="2"/>
      <point x="142" y="40" type="curve"/>
      <point x="107" y="0" type="line"/>
    </contour>
  </outline>
</glyph>
<glyph name="Ugrave" format="1">
  <advance width="652"/>
  <unicode hex="00D9"/>
  <outline>
    <contour>
      <point x="312" y="940" type="line"/>
      <point x="457" y="940" type="line"/>
      <point x="511" y="797" type="line"/>
      <point x="402" y="797" type="line"/>
    </contour>
    <contour>
      <point x="96" y="350" type="curve"/>
      <point x="158" y="732" type="line"/>
      <point x="352" y="732" type="line"/>
      <point x="287" y="320" type="line" smooth="yes"/>
      <point x="272" y="226"/>
      <point x="265" y="169"/>
      <point x="360" y="169" type="curve" smooth="yes"/>
      <point x="449" y="169"/>
      <point x="461" y="230"/>
      <point x="475" y="320" type="curve" smooth="yes"/>
      <point x="540" y="732" type="line"/>
      <point x="735" y="732" type="line"/>
      <point x="675" y="290" type="line"/>
      <point x="624" y="-33"/>
      <point x="453" y="-5"/>
      <point x="332" y="-5" type="curve" smooth="yes"/>
      <point x="196" y="-5"/>
      <point x="43" y="17"/>
    </contour>
  </outline>
</glyph>
<glyph name="Udieresis" format="1">
  <advance width="652"/>
  <unicode hex="00DC"/>
  <outline>
    <contour>
      <point x="530" y="863" type="curve" smooth="yes"/>
      <point x="536" y="899"/>
      <point x="570" y="928"/>
      <point x="606" y="928" type="curve" smooth="yes"/>
      <point x="642" y="928"/>
      <point x="667" y="899"/>
      <point x="661" y="863" type="curve" smooth="yes"/>
      <point x="655" y="827"/>
      <point x="621" y="797"/>
      <point x="585" y="797" type="curve" smooth="yes"/>
      <point x="549" y="797"/>
      <point x="524" y="827"/>
    </contour>
    <contour>
      <point x="275" y="863" type="curve" smooth="yes"/>
      <point x="281" y="899"/>
      <point x="315" y="928"/>
      <point x="351" y="928" type="curve" smooth="yes"/>
      <point x="387" y="928"/>
      <point x="412" y="899"/>
      <point x="406" y="863" type="curve" smooth="yes"/>
      <point x="400" y="827"/>
      <point x="366" y="797"/>
      <point x="330" y="797" type="curve" smooth="yes"/>
      <point x="294" y="797"/>
      <point x="269" y="827"/>
    </contour>
    <contour>
      <point x="96" y="350" type="curve"/>
      <point x="158" y="732" type="line"/>
      <point x="352" y="732" type="line"/>
      <point x="287" y="320" type="line" smooth="yes"/>
      <point x="272" y="226"/>
      <point x="265" y="169"/>
      <point x="360" y="169" type="curve" smooth="yes"/>
      <point x="449" y="169"/>
      <point x="461" y="230"/>
      <point x="475" y="320" type="curve" smooth="yes"/>
      <point x="540" y="732" type="line"/>
      <point x="735" y="732" type="line"/>
      <point x="675" y="290" type="line"/>
      <point x="624" y="-33"/>
      <point x="453" y="-5"/>
      <point x="332" y="-5" type="curve" smooth="yes"/>
      <point x="196" y="-5"/>
      <point x="43" y="17"/>
    </contour>
  </outline>
</glyph>
<glyph name="Thorn" format="1">
  <advance width="538"/>
  <unicode hex="00DE"/>
  <outline>
    <contour>
      <point x="278" y="313" type="line"/>
      <point x="305" y="313" type="line" smooth="yes"/>
      <point x="357" y="313"/>
      <point x="366" y="317"/>
      <point x="375" y="372" type="curve" smooth="yes"/>
      <point x="383" y="423"/>
      <point x="362" y="424"/>
      <point x="322" y="424" type="curve" smooth="yes"/>
      <point x="295" y="424" type="line"/>
    </contour>
    <contour>
      <point x="34" y="0" type="line"/>
      <point x="72" y="243"/>
      <point x="111" y="486"/>
      <point x="149" y="729" type="curve"/>
      <point x="343" y="729" type="line"/>
      <point x="321" y="588" type="line"/>
      <point x="428" y="588" type="line" smooth="yes"/>
      <point x="507" y="588"/>
      <point x="598" y="541"/>
      <point x="570" y="362" type="curve" smooth="yes"/>
      <point x="538" y="158"/>
      <point x="433" y="152"/>
      <point x="359" y="149" type="curve" smooth="yes"/>
      <point x="313" y="147"/>
      <point x="295" y="147"/>
      <point x="255" y="168" type="curve"/>
      <point x="228" y="0" type="line"/>
    </contour>
  </outline>
</glyph>
<glyph name="germandbls" format="1">
  <advance width="574"/>
  <unicode hex="00DF"/>
  <outline>
    <contour>
      <point x="34" y="0" type="line"/>
      <point x="124" y="566" type="line" smooth="yes"/>
      <point x="142" y="682"/>
      <point x="223" y="784"/>
      <point x="411" y="784" type="curve" smooth="yes"/>
      <point x="692" y="784"/>
      <point x="688" y="563"/>
      <point x="569" y="422" type="curve" smooth="yes"/>
      <point x="537" y="384"/>
      <point x="505" y="380"/>
      <point x="500" y="348" type="curve" smooth="yes"/>
      <point x="493" y="305"/>
      <point x="608" y="279"/>
      <point x="591" y="169" type="curve"/>
      <point x="588" y="152" type="line"/>
      <point x="567" y="22"/>
      <point x="480" y="-8"/>
      <point x="385" y="-8" type="curve" smooth="yes"/>
      <point x="317" y="-8"/>
      <point x="292" y="0"/>
      <point x="260" y="11" type="curve"/>
      <point x="280" y="142" type="line"/>
      <point x="311" y="138"/>
      <point x="329" y="136"/>
      <point x="342" y="136" type="curve" smooth="yes"/>
      <point x="365" y="136"/>
      <point x="393" y="144"/>
      <point x="399" y="184" type="curve" smooth="yes"/>
      <point x="400" y="190" type="line" smooth="yes"/>
      <point x="409" y="249"/>
      <point x="302" y="253"/>
      <point x="317" y="351" type="curve" smooth="yes"/>
      <point x="327" y="415"/>
      <point x="359" y="442"/>
      <point x="399" y="476" type="curve" smooth="yes"/>
      <point x="432" y="504"/>
      <point x="440" y="525"/>
      <point x="443" y="546" type="curve" smooth="yes"/>
      <point x="452" y="602"/>
      <point x="432" y="613"/>
      <point x="394" y="613" type="curve" smooth="yes"/>
      <point x="332" y="613"/>
      <point x="319" y="577"/>
      <point x="303" y="476" type="curve" smooth="yes"/>
      <point x="228" y="0" type="line"/>
    </contour>
  </outline>
</glyph>
<glyph name="agrave" format="1">
  <advance width="546"/>
  <unicode hex="00E0"/>
  <outline>
    <contour>
      <point x="202" y="744" type="line"/>
      <point x="347" y="744" type="line"/>
      <point x="401" y="601" type="line"/>
      <point x="292" y="601" type="line"/>
    </contour>
    <contour>
      <point x="259" y="288" type="curve" smooth="yes"/>
      <point x="249" y="218"/>
      <point x="240" y="150"/>
      <point x="290" y="150" type="curve" smooth="yes"/>
      <point x="332" y="150"/>
      <point x="352" y="169"/>
      <point x="355" y="202" type="curve"/>
      <point x="382" y="392" type="line"/>
      <point x="374" y="399"/>
      <point x="349" y="401"/>
      <point x="329" y="396" type="curve" smooth="yes"/>
      <point x="300" y="389"/>
      <point x="271" y="375"/>
    </contour>
    <contour>
      <point x="69" y="312" type="curve" smooth="yes"/>
      <point x="116" y="534"/>
      <point x="234" y="541"/>
      <point x="338" y="541" type="curve" smooth="yes"/>
      <point x="420" y="541"/>
      <point x="539" y="528"/>
      <point x="590" y="479" type="curve"/>
      <point x="520" y="2" type="line"/>
      <point x="367" y="2" type="line"/>
      <point x="337" y="52" type="line"/>
      <point x="313" y="8"/>
      <point x="250" y="-5"/>
      <point x="197" y="-5" type="curve" smooth="yes"/>
      <point x="102" y="-5"/>
      <point x="26" y="111"/>
    </contour>
  </outline>
</glyph>
<glyph name="atilde" format="1">
  <advance width="546"/>
  <unicode hex="00E3"/>
  <outline>
    <contour>
      <point x="190" y="668" type="line"/>
      <point x="221" y="704"/>
      <point x="269" y="742"/>
      <point x="325" y="742" type="curve" smooth="yes"/>
      <point x="369" y="742"/>
      <point x="385" y="707"/>
      <point x="425" y="707" type="curve"/>
      <point x="465" y="705"/>
      <point x="499" y="724"/>
      <point x="525" y="747" type="curve"/>
      <point x="539" y="673" type="line"/>
      <point x="512" y="640"/>
      <point x="466" y="601"/>
      <point x="415" y="601" type="curve" smooth="yes"/>
      <point x="372" y="601"/>
      <point x="344" y="636"/>
      <point x="305" y="636" type="curve" smooth="yes"/>
      <point x="266" y="636"/>
      <point x="241" y="625"/>
      <point x="206" y="601" type="curve"/>
    </contour>
    <contour>
      <point x="259" y="288" type="curve" smooth="yes"/>
      <point x="249" y="218"/>
      <point x="240" y="150"/>
      <point x="290" y="150" type="curve" smooth="yes"/>
      <point x="332" y="150"/>
      <point x="352" y="169"/>
      <point x="355" y="202" type="curve"/>
      <point x="382" y="392" type="line"/>
      <point x="374" y="399"/>
      <point x="349" y="401"/>
      <point x="329" y="396" type="curve" smooth="yes"/>
      <point x="300" y="389"/>
      <point x="271" y="375"/>
    </contour>
    <contour>
      <point x="69" y="312" type="curve" smooth="yes"/>
      <point x="116" y="534"/>
      <point x="234" y="541"/>
      <point x="338" y="541" type="curve" smooth="yes"/>
      <point x="420" y="541"/>
      <point x="539" y="528"/>
      <point x="590" y="479" type="curve"/>
      <point x="520" y="2" type="line"/>
      <point x="367" y="2" type="line"/>
      <point x="337" y="52" type="line"/>
      <point x="313" y="8"/>
      <point x="250" y="-5"/>
      <point x="197" y="-5" type="curve" smooth="yes"/>
      <point x="102" y="-5"/>
      <point x="26" y="111"/>
    </contour>
  </outline>
</glyph>
<glyph name="adieresis" format="1">
  <advance width="546"/>
  <unicode hex="00E4"/>
  <outline>
    <contour>
      <point x="427" y="667" type="curve" smooth="yes"/>
      <point x="433" y="703"/>
      <point x="467" y="732"/>
      <point x="503" y="732" type="curve" smooth="yes"/>
      <point x="539" y="732"/>
      <point x="564" y="703"/>
      <point x="558" y="667" type="curve" smooth="yes"/>
      <point x="552" y="631"/>
      <point x="518" y="601"/>
      <point x="482" y="601" type="curve" smooth="yes"/>
      <point x="446" y="601"/>
      <point x="421" y="631"/>
    </contour>
    <contour>
      <point x="172" y="667" type="curve" smooth="yes"/>
      <point x="178" y="703"/>
      <point x="212" y="732"/>
      <point x="248" y="732" type="curve" smooth="yes"/>
      <point x="284" y="732"/>
      <point x="309" y="703"/>
      <point x="303" y="667" type="curve" smooth="yes"/>
      <point x="297" y="631"/>
      <point x="263" y="601"/>
      <point x="227" y="601" type="curve" smooth="yes"/>
      <point x="191" y="601"/>
      <point x="166" y="631"/>
    </contour>
    <contour>
      <point x="259" y="288" type="curve" smooth="yes"/>
      <point x="249" y="218"/>
      <point x="240" y="150"/>
      <point x="290" y="150" type="curve" smooth="yes"/>
      <point x="332" y="150"/>
      <point x="352" y="169"/>
      <point x="355" y="202" type="curve"/>
      <point x="382" y="392" type="line"/>
      <point x="374" y="399"/>
      <point x="349" y="401"/>
      <point x="329" y="396" type="curve" smooth="yes"/>
      <point x="300" y="389"/>
      <point x="271" y="375"/>
    </contour>
    <contour>
      <point x="69" y="312" type="curve" smooth="yes"/>
      <point x="116" y="534"/>
      <point x="234" y="541"/>
      <point x="338" y="541" type="curve" smooth="yes"/>
      <point x="420" y="541"/>
      <point x="539" y="528"/>
      <point x="590" y="479" type="curve"/>
      <point x="520" y="2" type="line"/>
      <point x="367" y="2" type="line"/>
      <point x="337" y="52" type="line"/>
      <point x="313" y="8"/>
      <point x="250" y="-5"/>
      <point x="197" y="-5" type="curve" smooth="yes"/>
      <point x="102" y="-5"/>
      <point x="26" y="111"/>
    </contour>
  </outline>
</glyph>
<glyph name="aring" format="1">
  <advance width="546"/>
  <unicode hex="00E5"/>
  <outline>
    <contour>
      <point x="337" y="701" type="curve" smooth="yes"/>
      <point x="335" y="682"/>
      <point x="349" y="668"/>
      <point x="368" y="668" type="curve" smooth="yes"/>
      <point x="387" y="668"/>
      <point x="402" y="682"/>
      <point x="404" y="701" type="curve" smooth="yes"/>
      <point x="406" y="720"/>
      <point x="393" y="735"/>
      <point x="374" y="735" type="curve" smooth="yes"/>
      <point x="355" y="735"/>
      <point x="339" y="720"/>
    </contour>
    <contour>
      <point x="269" y="701" type="curve" smooth="yes"/>
      <point x="274" y="758"/>
      <point x="322" y="801"/>
      <point x="378" y="801" type="curve" smooth="yes"/>
      <point x="434" y="801"/>
      <point x="477" y="758"/>
      <point x="472" y="701" type="curve" smooth="yes"/>
      <point x="467" y="644"/>
      <point x="421" y="601"/>
      <point x="365" y="601" type="curve" smooth="yes"/>
      <point x="309" y="601"/>
      <point x="264" y="644"/>
    </contour>
    <contour>
      <point x="259" y="288" type="curve" smooth="yes"/>
      <point x="249" y="218"/>
      <point x="240" y="150"/>
      <point x="290" y="150" type="curve" smooth="yes"/>
      <point x="332" y="150"/>
      <point x="352" y="169"/>
      <point x="355" y="202" type="curve"/>
      <point x="382" y="392" type="line"/>
      <point x="374" y="399"/>
      <point x="349" y="401"/>
      <point x="329" y="396" type="curve" smooth="yes"/>
      <point x="300" y="389"/>
      <point x="271" y="375"/>
    </contour>
    <contour>
      <point x="69" y="312" type="curve" smooth="yes"/>
      <point x="116" y="534"/>
      <point x="234" y="541"/>
      <point x="338" y="541" type="curve" smooth="yes"/>
      <point x="420" y="541"/>
      <point x="539" y="528"/>
      <point x="590" y="479" type="curve"/>
      <point x="520" y="2" type="line"/>
      <point x="367" y="2" type="line"/>
      <point x="337" y="52" type="line"/>
      <point x="313" y="8"/>
      <point x="250" y="-5"/>
      <point x="197" y="-5" type="curve" smooth="yes"/>
      <point x="102" y="-5"/>
      <point x="26" y="111"/>
    </contour>
  </outline>
</glyph>
<glyph name="ae" format="1">
  <advance width="817"/>
  <unicode hex="00E6"/>
  <outline>
    <contour>
      <point x="559" y="316" type="curve"/>
      <point x="559" y="316"/>
      <point x="644" y="289"/>
      <point x="656" y="353" type="curve" smooth="yes"/>
      <point x="662" y="385"/>
      <point x="647" y="398"/>
      <point x="618" y="397" type="curve" smooth="yes"/>
      <point x="576" y="395"/>
      <point x="566" y="361"/>
    </contour>
    <contour>
      <point x="259" y="286" type="curve" smooth="yes"/>
      <point x="249" y="216"/>
      <point x="239" y="148"/>
      <point x="289" y="148" type="curve" smooth="yes"/>
      <point x="319" y="148"/>
      <point x="339" y="158"/>
      <point x="348" y="176" type="curve"/>
      <point x="346" y="217"/>
      <point x="349" y="265"/>
      <point x="359" y="318" type="curve" smooth="yes"/>
      <point x="364" y="346"/>
      <point x="371" y="372"/>
      <point x="378" y="394" type="curve"/>
      <point x="366" y="400"/>
      <point x="346" y="400"/>
      <point x="328" y="396" type="curve" smooth="yes"/>
      <point x="299" y="389"/>
      <point x="271" y="373"/>
    </contour>
    <contour>
      <point x="68" y="318" type="curve" smooth="yes"/>
      <point x="115" y="540"/>
      <point x="230" y="541"/>
      <point x="334" y="541" type="curve" smooth="yes"/>
      <point x="383" y="541"/>
      <point x="448" y="536"/>
      <point x="492" y="522" type="curve"/>
      <point x="528" y="534"/>
      <point x="560" y="540"/>
      <point x="619" y="541" type="curve" smooth="yes"/>
      <point x="724" y="542"/>
      <point x="858" y="515"/>
      <point x="855" y="388" type="curve" smooth="yes"/>
      <point x="850" y="127"/>
      <point x="582" y="177"/>
      <point x="545" y="192" type="curve"/>
      <point x="538" y="146"/>
      <point x="558" y="139"/>
      <point x="629" y="139" type="curve" smooth="yes"/>
      <point x="675" y="139"/>
      <point x="760" y="148"/>
      <point x="809" y="158" type="curve"/>
      <point x="785" y="22" type="line"/>
      <point x="708" y="-3"/>
      <point x="630" y="-19"/>
      <point x="496" y="-7" type="curve" smooth="yes"/>
      <point x="443" y="-2"/>
      <point x="404" y="22"/>
      <point x="379" y="62" type="curve"/>
      <point x="333" y="-2"/>
      <point x="243" y="-7"/>
      <point x="197" y="-7" type="curve" smooth="yes"/>
      <point x="101" y="-7"/>
      <point x="25" y="117"/>
    </contour>
  </outline>
</glyph>
<glyph name="ccedilla" format="1">
  <advance width="489"/>
  <unicode hex="00E7"/>
  <outline>
    <contour>
      <point x="114" y="-184" type="line"/>
      <point x="126" y="-105" type="line"/>
      <point x="166" y="-90" type="line" smooth="yes"/>
      <point x="196" y="-78"/>
      <point x="196" y="-76"/>
      <point x="202" y="-38" type="curve"/>
      <point x="319" y="-38" type="line"/>
      <point x="303" y="-140"/>
      <point x="267" y="-184"/>
      <point x="175" y="-184" type="curve" smooth="yes"/>
    </contour>
    <contour>
      <point x="70" y="296" type="curve" smooth="yes"/>
      <point x="103" y="504"/>
      <point x="185" y="536"/>
      <point x="287" y="536" type="curve" smooth="yes"/>
      <point x="339" y="536"/>
      <point x="444" y="541"/>
      <point x="540" y="500" type="curve"/>
      <point x="522" y="386" type="line"/>
      <point x="522" y="386"/>
      <point x="463" y="392"/>
      <point x="374" y="392" type="curve" smooth="yes"/>
      <point x="306" y="392"/>
      <point x="284" y="394"/>
      <point x="263" y="264" type="curve" smooth="yes"/>
      <point x="244" y="142"/>
      <point x="261" y="139"/>
      <point x="333" y="139" type="curve" smooth="yes"/>
      <point x="425" y="139"/>
      <point x="491" y="147"/>
      <point x="491" y="147" type="curve"/>
      <point x="473" y="33" type="line"/>
      <point x="390" y="-20"/>
      <point x="285" y="-4"/>
      <point x="202" y="-5" type="curve"/>
      <point x="103" y="-5"/>
      <point x="37" y="88"/>
    </contour>
  </outline>
</glyph>
<glyph name="eacute" format="1">
  <advance width="529"/>
  <unicode hex="00E9"/>
  <outline>
    <contour>
      <point x="303" y="601" type="line"/>
      <point x="403" y="744" type="line"/>
      <point x="548" y="744" type="line"/>
      <point x="412" y="601" type="line"/>
    </contour>
    <contour>
      <point x="271" y="316" type="curve"/>
      <point x="271" y="316"/>
      <point x="355" y="289"/>
      <point x="367" y="353" type="curve" smooth="yes"/>
      <point x="373" y="385"/>
      <point x="359" y="398"/>
      <point x="330" y="397" type="curve" smooth="yes"/>
      <point x="288" y="395"/>
      <point x="278" y="361"/>
    </contour>
    <contour>
      <point x="71" y="318" type="curve" smooth="yes"/>
      <point x="102" y="481"/>
      <point x="150" y="539"/>
      <point x="345" y="541" type="curve" smooth="yes"/>
      <point x="450" y="542"/>
      <point x="570" y="515"/>
      <point x="567" y="388" type="curve" smooth="yes"/>
      <point x="562" y="127"/>
      <point x="293" y="177"/>
      <point x="256" y="192" type="curve"/>
      <point x="249" y="146"/>
      <point x="269" y="139"/>
      <point x="340" y="139" type="curve" smooth="yes"/>
      <point x="386" y="139"/>
      <point x="482" y="148"/>
      <point x="531" y="158" type="curve"/>
      <point x="507" y="22" type="line"/>
      <point x="430" y="-3"/>
      <point x="342" y="-19"/>
      <point x="208" y="-7" type="curve" smooth="yes"/>
      <point x="81" y="4"/>
      <point x="35" y="124"/>
    </contour>
  </outline>
</glyph>
<glyph name="igrave" format="1">
  <advance width="252"/>
  <unicode hex="00EC"/>
  <outline>
    <contour>
      <point x="65" y="742" type="line"/>
      <point x="210" y="742" type="line"/>
      <point x="264" y="599" type="line"/>
      <point x="155" y="599" type="line"/>
    </contour>
    <contour>
      <point x="20" y="0" type="line"/>
      <point x="104" y="531" type="line"/>
      <point x="298" y="531" type="line"/>
      <point x="214" y="0" type="line"/>
    </contour>
  </outline>
</glyph>
<glyph name="iacute" format="1">
  <advance width="252"/>
  <unicode hex="00ED"/>
  <outline>
    <contour>
      <point x="155" y="599" type="line"/>
      <point x="255" y="742" type="line"/>
      <point x="400" y="742" type="line"/>
      <point x="264" y="599" type="line"/>
    </contour>
    <contour>
      <point x="20" y="0" type="line"/>
      <point x="104" y="531" type="line"/>
      <point x="298" y="531" type="line"/>
      <point x="214" y="0" type="line"/>
    </contour>
  </outline>
</glyph>
<glyph name="icircumflex" format="1">
  <advance width="252"/>
  <unicode hex="00EE"/>
  <outline>
    <contour>
      <point x="49" y="599" type="line"/>
      <point x="171" y="739" type="line"/>
      <point x="302" y="739" type="line"/>
      <point x="371" y="599" type="line"/>
      <point x="260" y="599" type="line"/>
      <point x="229" y="650" type="line"/>
      <point x="171" y="599" type="line"/>
    </contour>
    <contour>
      <point x="20" y="0" type="line"/>
      <point x="104" y="531" type="line"/>
      <point x="298" y="531" type="line"/>
      <point x="214" y="0" type="line"/>
    </contour>
  </outline>
</glyph>
<glyph name="idieresis" format="1">
  <advance width="252"/>
  <unicode hex="00EF"/>
  <outline>
    <contour>
      <point x="283" y="665" type="curve" smooth="yes"/>
      <point x="289" y="701"/>
      <point x="323" y="730"/>
      <point x="359" y="730" type="curve" smooth="yes"/>
      <point x="395" y="730"/>
      <point x="420" y="701"/>
      <point x="414" y="665" type="curve" smooth="yes"/>
      <point x="408" y="629"/>
      <point x="374" y="599"/>
      <point x="338" y="599" type="curve" smooth="yes"/>
      <point x="302" y="599"/>
      <point x="277" y="629"/>
    </contour>
    <contour>
      <point x="28" y="665" type="curve" smooth="yes"/>
      <point x="34" y="701"/>
      <point x="68" y="730"/>
      <point x="104" y="730" type="curve" smooth="yes"/>
      <point x="140" y="730"/>
      <point x="165" y="701"/>
      <point x="159" y="665" type="curve" smooth="yes"/>
      <point x="153" y="629"/>
      <point x="119" y="599"/>
      <point x="83" y="599" type="curve" smooth="yes"/>
      <point x="47" y="599"/>
      <point x="22" y="629"/>
    </contour>
    <contour>
      <point x="20" y="0" type="line"/>
      <point x="104" y="531" type="line"/>
      <point x="298" y="531" type="line"/>
      <point x="214" y="0" type="line"/>
    </contour>
  </outline>
</glyph>
